<?xml version="1.0" encoding="utf-8"?>
<!-- Generator: Adobe Illustrator 22.0.1, SVG Export Plug-In . SVG Version: 6.00 Build 0)  -->
<svg version="1.1" xmlns="http://www.w3.org/2000/svg" xmlns:xlink="http://www.w3.org/1999/xlink" x="0px" y="0px"
	 viewBox="0 0 500 500" style="enable-background:new 0 0 500 500;" xml:space="preserve">
<style type="text/css">
	.st0{display:none;}
	.st1{display:inline;fill:url(#SVGID_1_);}
	.st2{fill:#FFFFFF;}
	.st3{fill:#420102;}
	.st4{fill:#130000;}
	.st5{fill:#212121;}
	.st6{fill:#292929;}
	.st7{fill:#363636;}
	.st8{fill:#404040;}
	.st9{fill:#BF1533;}
	.st10{fill:#9A0419;}
	.st11{fill:#590000;}
	.st12{fill:#EE8900;}
	.st13{fill:#FCA600;}
	.st14{fill:#D23600;}
	.st15{fill:#D95100;}
	.st16{fill:#DE6D00;}
	.st17{fill:#FFBB00;}
	.st18{fill:#FFE554;}
	.st19{fill:#D19419;}
	.st20{fill:#FFCA01;}
	.st21{fill:#45BF55;}
	.st22{fill:#97ED8A;}
	.st23{fill:#00261C;}
	.st24{fill:#044D29;}
	.st25{fill:#168039;}
	.st26{fill:#B4DCED;}
	.st27{fill:#E8F8FF;}
	.st28{fill:#3399CC;}
	.st29{fill:#91C9E8;}
	.st30{fill:#446E9E;}
	.st31{fill:#335377;}
	.st32{fill:#233951;}
	.st33{fill:#5F9ADD;}
	.st34{fill:#3E6591;}
	.st35{fill:#7B52AB;}
	.st36{fill:#9768D1;}
	.st37{fill:#25064C;}
	.st38{fill:#36175E;}
	.st39{fill:#1C1C1C;}
	.st40{display:inline;}
	.st41{fill:none;stroke:#000000;stroke-width:2;stroke-miterlimit:10;}
	.st42{fill:#7B52AB;stroke:#000000;stroke-miterlimit:10;}
	.st43{fill:#212121;stroke:#000000;stroke-miterlimit:10;}
	.st44{fill:#363636;stroke:#000000;stroke-miterlimit:10;}
	.st45{fill:#404040;stroke:#000000;stroke-miterlimit:10;}
	.st46{fill:#1C1C1C;stroke:#000000;stroke-miterlimit:10;}
	.st47{fill:#36175E;stroke:#000000;stroke-miterlimit:10;}
	.st48{fill:#FFFFFF;stroke:#000000;stroke-miterlimit:10;}
</style>
<g id="BG" class="st0">
</g>
<g id="Ideas">
</g>
<g id="Tools">
</g>
<g id="Spaceship1" class="st0">
	<g class="st40">
		<g id="XMLID_5_">
			<g>
				<path class="st29" d="M439.6,265l6.7,1.8c-2.3,1.5-4.6,2.9-6.7,4.3L439.6,265z"/>
				<polygon class="st5" points="439.6,265 439.6,271 437.9,272.1 437.4,272.5 435.5,273.6 434.7,271.8 357,253.8 333.5,248.4 
					332.4,248.1 300.8,240.8 290.3,238.4 290.3,226 300.8,228.8 332.5,237.1 333.5,237.3 357,243.4 434.7,263.7 				"/>
				<path class="st29" d="M434.7,271.8l0.8,1.8c-10.5,6.7-19,12.2-27.6,17.7c-9.4,6-18.8,12.1-30.7,19.7l-23-4.1l0-0.2l36-27.7
					l-43.8-17.9l-13-5.3l-43.1-17.6l10.4,2.4l31.6,7.3l1.1,0.3l23.5,5.5L434.7,271.8z"/>
				<polygon class="st7" points="390.3,279.1 354.3,306.8 354.2,307 301,297.6 290.3,297.6 290.3,238.4 333.5,256 346.5,261.3 				
					"/>
				<polygon class="st5" points="377.2,311 369.5,316 366.7,315.5 367.1,312.7 362.5,311.9 362.1,314.8 357.5,314 358,311.1 
					353.4,310.3 352.9,313.3 348.3,312.5 348.8,309.5 344.1,308.8 343.6,311.7 339,311 339.5,308 335,307.2 334.4,310.2 
					329.8,309.5 330.4,306.4 325.8,305.6 325.2,308.7 320.6,307.9 321.1,304.9 316.5,304.1 316,307.2 311.4,306.4 312,303.3 
					307.4,302.5 306.8,305.6 302.2,304.9 301.1,304.7 290.3,304.7 290.3,304 290.3,297.6 301,297.6 354.2,307 				"/>
				<polygon class="st8" points="357,216.9 357,243.4 333.5,237.3 333.5,216.9 				"/>
				<path class="st39" d="M357,214.3v2.6h-23.5v-2.6c1.9-0.9,3-1.4,4.8-2.3h13.8C354,212.9,355.1,213.4,357,214.3z"/>
				<polygon class="st7" points="341.3,339.4 332.6,345 315.9,345 290.3,359.3 286.6,361.4 272.3,369.4 272.3,361.4 272.3,353.2 
					272.3,333 272.3,322 273.4,322.3 274.2,322.5 290.3,326.6 				"/>
				<polygon class="st5" points="332.6,345 272.3,384 272.3,371.4 272.3,369.4 286.6,361.4 290.3,359.3 315.9,345 				"/>
				<polygon class="st28" points="290.3,315.5 290.3,326.6 274.2,322.5 273.4,322.3 272.3,322 272.3,316.6 290.2,304.7 290.3,304.7 
									"/>
				<polygon class="st5" points="290.3,297.6 290.3,304 290.2,304.7 277.4,304.7 277.4,282.7 276,230 275.9,226 290.3,226 
					290.3,238.4 				"/>
				<path class="st5" d="M290.3,204.4V226h-14.5l-0.6-14.1l-0.8-21.2l-1.3-32l-0.5-11.5l-0.2-9.2l3.4,10.9l11,35.6l0,0.1l0,0v0
					l1.9,6.1l0,0.1l0,0.1C289.8,195.2,290.3,199.7,290.3,204.4z"/>
				<polygon class="st5" points="290.2,304.7 272.3,316.6 272.3,311.3 272.3,304.7 277.4,304.7 				"/>
				<path class="st2" d="M288.8,190.8l-1.9-6.1v0l0,0l0-0.4C287.6,186.4,288.3,188.6,288.8,190.8z"/>
				<polygon class="st7" points="286.9,184.3 286.9,184.6 275.9,149 275.9,120.9 286.9,120.9 				"/>
				<path class="st39" d="M286.9,120.1v0.7h-11v-0.7c1.3-1.3,2-2,3.3-3.3h4.5C284.9,118.2,285.6,118.9,286.9,120.1z"/>
				<polygon class="st7" points="277.4,282.7 277.4,304.7 272.3,304.7 256.6,304.7 250,304.7 243.4,304.7 227.7,304.7 222.6,304.7 
					222.6,282.7 230.7,273.5 250,273.5 262.1,273.5 269.3,273.5 				"/>
				<polygon class="st7" points="276,230 277.4,282.7 269.3,273.5 262.1,273.5 250,273.5 250,272.6 250,226 275.3,212 275.9,226 
									"/>
				<polygon class="st7" points="274.6,194.5 275.3,212 250,226 224.7,212 225.4,194.5 230.4,190.2 230.4,190.2 240.4,181.7 
					259.6,181.7 270.2,190.7 				"/>
				<polygon class="st28" points="273.2,158.8 274.6,194.5 270.2,190.7 259.6,181.7 259.6,137.4 272.8,147.3 				"/>
				<polygon class="st5" points="272.5,138.1 272.8,147.3 272.4,137.6 				"/>
				<path class="st7" d="M272.4,137.6l0.4,9.7l-13.1-9.9h-19.3l-13.1,9.9l0-0.3l0.4-9.7v-8h0.1c0.5-6.4,5.7-11.7,12.6-13.4v13.4
					h19.3V116c6.9,1.7,12.1,7,12.6,13.4v8L272.4,137.6z"/>
				<polygon class="st2" points="272.4,137.4 272.4,137.6 272.3,137.4 				"/>
				<path class="st39" d="M272.3,369.4v2c0,3.9-3.1,7-7,7h-30.7c-3.3,0-6.1-2.3-6.8-5.4v-3.6H272.3z"/>
				<polygon class="st5" points="272.3,361.4 272.3,369.4 227.9,369.4 227.9,369.3 227.7,369.2 227.7,361.4 				"/>
				<rect x="227.7" y="353.2" class="st5" width="44.7" height="8.2"/>
				<polygon class="st5" points="272.3,333 272.3,353.2 227.7,353.2 227.7,333 272,333 				"/>
				<polygon class="st29" points="272.3,322 272.3,333 272,333 227.7,333 227.7,322 227.7,316.6 246.4,312.1 250,311.3 253.6,312.1 
					272.3,316.6 				"/>
				<polygon class="st7" points="272.3,311.3 272.3,316.6 253.6,312.1 250,311.3 246.4,312.1 227.7,316.6 227.7,311.3 227.7,304.7 
					243.4,304.7 250,304.7 256.6,304.7 272.3,304.7 				"/>
				<rect x="240.4" y="137.4" class="st29" width="19.3" height="44.3"/>
				<polygon class="st7" points="250,272.6 250,273.5 230.7,273.5 222.6,282.7 224,230 224.1,226 224.7,212 250,226 				"/>
				<polygon class="st28" points="240.4,137.4 240.4,181.7 230.4,190.2 230.4,190.2 225.4,194.5 225.6,190.2 225.6,190.2 
					227.3,147.3 				"/>
				<path class="st2" d="M227.9,373v11l-0.2-0.1v-12.5C227.7,371.9,227.7,372.5,227.9,373z"/>
				<path class="st2" d="M227.9,369.4v3.6c-0.1-0.5-0.2-1-0.2-1.6v-2H227.9z"/>
				<polygon class="st2" points="227.9,369.3 227.9,369.4 227.7,369.4 227.7,369.2 				"/>
				<polygon class="st5" points="227.7,371.4 227.7,383.9 208.4,371.4 167.6,345 184.2,344.9 209.7,359.1 227.6,369.2 227.7,369.4 
									"/>
				<polygon class="st2" points="227.7,369.2 227.7,369.4 227.6,369.2 				"/>
				<polygon class="st7" points="227.7,361.4 227.7,369.2 227.6,369.2 209.7,359.1 184.2,344.9 167.6,345 158.7,339.4 209.7,326.6 
					215.5,325.1 227.7,322 227.7,333 227.7,353.2 				"/>
				<polygon class="st28" points="227.7,316.6 227.7,322 215.5,325.1 209.7,326.6 209.7,304.7 209.9,304.9 				"/>
				<polygon class="st5" points="227.7,311.3 227.7,316.6 209.9,304.9 209.8,304.7 222.6,304.7 227.7,304.7 				"/>
				<polygon class="st5" points="227.6,137.4 227.3,147 227.5,138 				"/>
				<path class="st5" d="M227.5,138l-0.2,9.1l0,0.3l-1.7,42.9v0l-0.2,4.4l-0.7,17.4l-0.6,14.1h-14.5v-21.7c0-5,0.6-9.8,1.7-14.4
					l1.7-5.5l0-0.1l0,0l11-35.6L227.5,138z"/>
				<polygon class="st7" points="224.1,120.9 224.1,148.8 213.1,184.4 213.1,184.3 213.1,120.9 				"/>
				<path class="st39" d="M224.1,120.1v0.7h-11v-0.7c1.3-1.3,2-2,3.3-3.3h4.5C222.1,118.2,222.8,118.9,224.1,120.1z"/>
				<polygon class="st5" points="224.1,226 224,230 222.6,282.7 222.6,304.7 209.8,304.7 209.7,304 209.7,297.6 209.7,238.4 
					209.7,226 				"/>
				<path class="st2" d="M213.1,184.3l0,0.1l0,0.1l-1.7,5.5C211.9,188.1,212.4,186.1,213.1,184.3z"/>
				<polygon class="st7" points="209.8,304.7 209.9,304.9 209.7,304.7 				"/>
				<polygon class="st2" points="209.7,304 209.8,304.7 209.7,304.7 				"/>
				<polygon class="st5" points="209.7,304 209.7,304.7 198.9,304.7 197.8,304.9 193.2,305.6 192.6,302.5 188.1,303.3 188.6,306.4 
					184,307.2 183.4,304.1 178.9,304.9 179.4,307.9 174.8,308.7 174.3,305.6 169.6,306.4 170.2,309.5 165.6,310.2 165.1,307.2 
					160.4,308 161,311 156.4,311.7 155.9,308.8 151.3,309.5 151.8,312.5 147.1,313.3 146.6,310.3 142.1,311.1 142.5,314 
					137.9,314.8 137.4,311.9 132.9,312.7 133.3,315.5 130.5,316 122.8,311 145.8,307 199,297.6 209.7,297.6 				"/>
				<polygon class="st7" points="209.7,238.4 209.7,297.6 199,297.6 145.8,307 145.8,306.8 109.8,279.1 153.5,261.3 166.5,256 				
					"/>
				<polygon class="st5" points="209.7,226 209.7,238.4 199.3,240.8 167.6,248.1 166.5,248.4 143,253.8 65.3,271.8 64.5,273.6 
					62.6,272.5 62.1,272.1 60.4,271 60.4,265 65.3,263.7 143,243.4 166.5,237.3 167.4,237.1 199.3,228.8 				"/>
				<path class="st29" d="M209.7,238.4L166.5,256l-13,5.3l-43.8,17.9l36,27.7l0,0.2l-23,4.1c-11.9-7.6-21.3-13.6-30.7-19.7
					c-8.6-5.5-17.2-11-27.6-17.7l0.8-1.8l77.7-18l23.5-5.5l1.1-0.3l31.6-7.3L209.7,238.4z"/>
				<polygon class="st8" points="166.5,216.9 166.5,237.3 143,243.4 143,216.9 				"/>
				<path class="st39" d="M166.5,214.3v2.6H143v-2.6c1.9-0.9,3-1.4,4.8-2.3h13.8C163.6,212.9,164.6,213.4,166.5,214.3z"/>
				<path class="st29" d="M60.4,265l0,6.1c-2.2-1.4-4.4-2.8-6.7-4.3L60.4,265z"/>
			</g>
			<g>
				<polyline class="st41" points="272.3,369.4 286.6,361.4 290.3,359.3 315.9,345 332.6,345 272.3,384 272.3,371.4 				"/>
				<line class="st41" x1="272.3" y1="369.4" x2="272.3" y2="371.4"/>
				<polyline class="st41" points="272.3,353.2 272.3,361.4 227.7,361.4 				"/>
				<polyline class="st41" points="272.3,333 272.3,353.2 227.7,353.2 				"/>
				<polyline class="st41" points="227.7,333 227.7,353.2 227.7,361.4 				"/>
				<path class="st41" d="M272.3,371.4c0,3.9-3.1,7-7,7h-30.7c-3.3,0-6.1-2.3-6.8-5.4"/>
				<polyline class="st41" points="286.9,120.9 286.9,184.3 286.9,184.6 				"/>
				<line class="st41" x1="275.9" y1="149" x2="275.9" y2="120.9"/>
				<line class="st41" x1="224.1" y1="120.9" x2="224.1" y2="148.8"/>
				<polyline class="st41" points="213.1,184.4 213.1,184.3 213.1,120.9 				"/>
				<path class="st41" d="M288.8,190.9c1,4.3,1.5,8.8,1.5,13.4V226"/>
				<path class="st41" d="M286.9,184.3c0.8,2.1,1.4,4.3,1.9,6.6"/>
				<polyline class="st41" points="272.4,137.6 272.5,138.1 275.9,149 286.9,184.6 286.9,184.7 286.9,184.7 286.9,184.7 
					288.8,190.8 288.8,190.9 288.8,190.9 				"/>
				<polyline class="st41" points="213.1,184.4 213.1,184.4 224.1,148.8 227.5,138 				"/>
				<path class="st41" d="M209.7,226v-21.7c0-5,0.6-9.8,1.7-14.4c0.5-1.9,1.1-3.9,1.7-5.7"/>
				<polyline class="st41" points="290.3,326.6 290.3,315.5 290.3,304.7 				"/>
				<line class="st41" x1="209.7" y1="326.6" x2="209.7" y2="304.7"/>
				<line class="st41" x1="290.3" y1="304.7" x2="290.2" y2="304.7"/>
				<line class="st41" x1="209.8" y1="304.7" x2="209.7" y2="304.7"/>
				<line class="st41" x1="224.1" y1="226" x2="209.7" y2="226"/>
				<line class="st41" x1="290.3" y1="226" x2="275.9" y2="226"/>
				<polyline class="st41" points="272.4,137.6 272.4,137.4 272.3,137.4 				"/>
				<polyline class="st41" points="275.9,226 275.3,212 274.5,190.8 273.2,158.8 272.8,147.3 				"/>
				<polyline class="st41" points="227.7,322 215.5,325.1 209.7,326.6 158.7,339.4 227.7,384 227.7,383.9 				"/>
				<line class="st41" x1="227.7" y1="369.2" x2="227.7" y2="361.4"/>
				<line class="st41" x1="250" y1="272.6" x2="250" y2="226"/>
				<polyline class="st41" points="290.3,326.6 341.3,339.4 332.6,345 				"/>
				<line class="st41" x1="272.3" y1="369.4" x2="272.3" y2="361.4"/>
				<path class="st41" d="M224.1,120.9v-0.7c-1.3-1.3-2-2-3.3-3.3h-4.5c-1.3,1.3-2,2-3.3,3.3v0.7H224.1z"/>
				<path class="st41" d="M286.9,120.9v-0.7c-1.3-1.3-2-2-3.3-3.3h-4.5c-1.3,1.3-2,2-3.3,3.3v0.7H286.9z"/>
				<polyline class="st41" points="272.3,322 273.4,322.3 274.2,322.5 290.3,326.6 				"/>
				<polyline class="st41" points="272.3,333 272.3,322 272.3,316.6 				"/>
				<polyline class="st41" points="227.7,316.6 227.7,322 227.7,333 				"/>
				<polyline class="st41" points="227.7,304.7 227.7,311.3 227.7,316.6 				"/>
				<polyline class="st41" points="272.3,316.6 272.3,311.3 272.3,304.7 				"/>
				<line class="st41" x1="272" y1="333" x2="227.7" y2="333"/>
				<line class="st41" x1="227.9" y1="369.4" x2="272.3" y2="369.4"/>
				<polygon class="st41" points="227.7,383.9 208.4,371.4 167.6,345 184.2,344.9 209.7,359.1 227.6,369.2 227.7,369.2 227.9,369.3 
					227.9,369.4 227.9,373 227.9,384 				"/>
				<polyline class="st41" points="209.7,304 209.8,304.7 222.6,304.7 				"/>
				<polyline class="st41" points="277.4,304.7 277.4,282.7 269.3,273.5 262.1,273.5 250,273.5 230.7,273.5 222.6,282.7 
					222.6,304.7 227.7,304.7 243.4,304.7 250,304.7 256.6,304.7 				"/>
				<polyline class="st41" points="290.3,304 290.2,304.7 277.4,304.7 272.3,304.7 256.6,304.7 				"/>
				<line class="st41" x1="259.6" y1="137.4" x2="259.6" y2="181.7"/>
				<line class="st41" x1="240.4" y1="137.4" x2="240.4" y2="181.7"/>
				<polyline class="st41" points="227.3,147.3 225.6,190.2 225.6,190.2 225.4,194.5 				"/>
				<polyline class="st41" points="224.7,212 225.4,194.5 230.4,190.2 230.4,190.2 240.4,181.7 259.6,181.7 270.2,190.7 
					274.6,194.5 275.3,212 				"/>
				<polyline class="st41" points="277.4,282.7 276,230 275.9,226 				"/>
				<polyline class="st41" points="222.6,282.7 224,230 224.1,226 224.7,212 250,226 275.3,212 				"/>
				<polyline class="st41" points="290.2,304.7 272.3,316.6 253.6,312.1 250,311.3 246.4,312.1 227.7,316.6 209.9,304.9 
					209.7,304.7 				"/>
				<path class="st41" d="M272.8,147.3l-0.2-9.2l-0.2-8.7c-0.6-6.4-5.7-11.7-12.6-13.4v13.4h-19.3V116c-6.9,1.7-12.1,7-12.6,13.4
					h-0.1l-0.2,8.6l-0.2,9.1l0,0.3l13.1-9.9h19.3L272.8,147.3z"/>
				<line class="st41" x1="143" y1="243.4" x2="143" y2="216.9"/>
				<line class="st41" x1="166.5" y1="216.9" x2="166.5" y2="237.3"/>
				<path class="st41" d="M143,216.9v-2.6c1.9-0.9,3-1.4,4.8-2.3h13.8c1.9,0.9,3,1.4,4.8,2.3v2.6H143z"/>
				<path class="st41" d="M60.4,271c-2.2-1.4-4.4-2.8-6.7-4.3l6.7-1.8"/>
				<path class="st41" d="M122.8,311c-11.9-7.6-21.3-13.6-30.7-19.7c-8.6-5.5-17.2-11-27.6-17.7"/>
				<polyline class="st41" points="209.7,304.7 198.9,304.7 197.8,304.9 193.2,305.6 192.6,302.5 188.1,303.3 188.6,306.4 
					184,307.2 183.4,304.1 178.9,304.9 179.4,307.9 174.8,308.7 174.3,305.6 169.6,306.4 170.2,309.5 165.6,310.2 165.1,307.2 
					160.4,308 161,311 156.4,311.7 155.9,308.8 151.3,309.5 151.8,312.5 147.1,313.3 146.6,310.3 142.1,311.1 142.5,314 
					137.9,314.8 137.4,311.9 132.9,312.7 133.3,315.5 130.5,316 122.8,311 145.8,307 199,297.6 209.7,297.6 209.7,304 				"/>
				<polygon class="st41" points="60.4,265 65.3,263.7 143,243.4 166.5,237.3 167.4,237.1 199.3,228.8 209.7,226 209.7,238.4 
					199.3,240.8 167.6,248.1 166.5,248.4 143,253.8 65.3,271.8 64.5,273.6 62.6,272.5 62.1,272.1 60.4,271 				"/>
				<polyline class="st41" points="145.8,306.8 109.8,279.1 153.5,261.3 166.5,256 209.7,238.4 209.7,297.6 				"/>
				<line class="st41" x1="357" y1="243.4" x2="357" y2="216.9"/>
				<line class="st41" x1="333.5" y1="216.9" x2="333.5" y2="237.3"/>
				<path class="st41" d="M357,216.9v-2.6c-1.9-0.9-3-1.4-4.8-2.3h-13.8c-1.9,0.9-3,1.4-4.8,2.3v2.6H357z"/>
				<path class="st41" d="M439.6,271c2.1-1.4,4.4-2.8,6.7-4.3l-6.7-1.8"/>
				<path class="st41" d="M377.2,311c11.9-7.6,21.3-13.6,30.7-19.7c8.6-5.5,17.2-11,27.6-17.7"/>
				<polyline class="st41" points="290.3,304.7 301.1,304.7 302.2,304.9 306.8,305.6 307.4,302.5 312,303.3 311.4,306.4 316,307.2 
					316.5,304.1 321.1,304.9 320.6,307.9 325.2,308.7 325.8,305.6 330.4,306.4 329.8,309.5 334.4,310.2 335,307.2 339.5,308 
					339,311 343.6,311.7 344.1,308.8 348.8,309.5 348.3,312.5 352.9,313.3 353.4,310.3 358,311.1 357.5,314 362.1,314.8 
					362.5,311.9 367.1,312.7 366.7,315.5 369.5,316 377.2,311 354.2,307 301,297.6 290.3,297.6 290.3,304 				"/>
				<polygon class="st41" points="439.6,265 434.7,263.7 357,243.4 333.5,237.3 332.5,237.1 300.8,228.8 290.3,226 290.3,238.4 
					300.8,240.8 332.4,248.1 333.5,248.4 357,253.8 434.7,271.8 435.5,273.6 437.4,272.5 437.9,272.1 439.6,271 				"/>
				<polyline class="st41" points="354.3,306.8 390.3,279.1 346.5,261.3 333.5,256 290.3,238.4 290.3,297.6 				"/>
			</g>
		</g>
	</g>
</g>
<g id="Spaceship2" class="st0">
	<g id="XMLID_12_" class="st40">
		<g>
			<path class="st6" d="M250,304.4c-2.3,0-4.1-1.8-4.1-4.1V282c0-2.3,1.8-4.1,4.1-4.1c1.1,0,2.2,0.5,2.9,1.2
				c0.7,0.8,1.2,1.8,1.2,2.9v18.3C254.1,302.6,252.3,304.4,250,304.4z"/>
			<path class="st8" d="M229.9,315.4h40.2h12.1h23.1h15.6l8.4,25L250,358.2l-79.3-17.8l8.4-25h15.6h23.1H229.9z M229.4,339.3
				c0,2.3,1.8,4.1,4.1,4.1h33c2.3,0,4.1-1.8,4.1-4.1V338c0-2.3-1.8-4.1-4.1-4.1h-5.4c2.3,0,4.1-1.8,4.1-4.1v-1.9
				c0-2.3-1.8-4.1-4.1-4.1h-22.2c-2.3,0-4.1,1.8-4.1,4.1v1.9c0,2.3,1.8,4.1,4.1,4.1h-5.4c-2.3,0-4.1,1.8-4.1,4.1V339.3z"/>
			<path class="st6" d="M258.2,277.9c1.1,0,2.2,0.5,2.9,1.2c0.7,0.8,1.2,1.8,1.2,2.9v18.3c0,2.3-1.8,4.1-4.1,4.1h0
				c-2.3,0-4.1-1.8-4.1-4.1V282C254.1,279.7,255.9,277.9,258.2,277.9z"/>
			<polygon class="st29" points="170.8,340.4 250,358.2 329.3,340.4 305.2,351.7 275.4,365.8 251,377.3 249,377.3 224.6,365.8 
				194.8,351.7 			"/>
			<path class="st39" d="M368.5,135c2.5,2.5,3.9,3.9,6.5,6.5v1.1h-20v-1.1c2.5-2.5,3.9-3.9,6.5-6.5H368.5z"/>
			<rect x="315.8" y="150.1" class="st7" width="15.8" height="18.7"/>
			<path class="st29" d="M250,169.2v-20h0.9c11.9,0,21.5,9.6,21.5,21.5V186c0,3.6-0.9,7.1-2.5,10.1L250,169.2z"/>
			<path class="st29" d="M250,262.3l-20.1-39c0-11.1,9-20.1,20.1-20.1c5.5,0,10.6,2.2,14.2,5.9c3.6,3.6,5.9,8.7,5.9,14.2L250,262.3z
				"/>
			<polygon class="st7" points="224.6,365.8 224.6,382.5 194.8,382.5 194.8,351.7 			"/>
			<path class="st39" d="M179.3,142.6c1.9,1.9,3,3,4.9,4.9v2.5h-15.8v-2.5c1.9-1.9,3-3,4.9-4.9H179.3z"/>
			<path class="st39" d="M194.8,382.5h29.8v1.8c0,2.2-1.8,3.9-3.9,3.9h-21.9c-2.2,0-3.9-1.8-3.9-3.9V382.5z"/>
			<polygon class="st28" points="179.1,315.4 170.8,340.4 126.7,366.5 			"/>
			<path class="st7" d="M250,169.2l19.9,26.9c1.6-3,2.5-6.4,2.5-10.1v-15.4c0-11.9-9.6-21.5-21.5-21.5H250h-0.9
				c-11.9,0-21.5,9.6-21.5,21.5V186c0,3.6,0.9,7.1,2.5,10.1L250,169.2z M250,203.2c-11.1,0-20.1,9-20.1,20.1v92.1h-12.1h-23.1
				c-1.8-7.5,19.7-15.6,18.5-24.2c-2.3-16-3.6-33.7-3.6-52.4c0-5.9,0.1-11.7,0.4-17.4c0.8-19.2,3-37.1,6.3-52.6
				c3.2-15.1,7.3-27.9,12.2-37.6c5.3,5.8,13,9.5,21.5,9.5c8.5,0,16.2-3.7,21.5-9.5c4.9,9.6,9,22.5,12.2,37.6
				c3.3,15.5,5.5,33.3,6.3,52.6c0.3,5.7,0.4,11.5,0.4,17.4c0,18.7-1.3,36.4-3.6,52.4c-1.2,8.6,20.3,16.7,18.5,24.2h-23.1h-12.1
				v-92.1c0-5.5-2.3-10.6-5.9-14.2C260.6,205.5,255.5,203.2,250,203.2z"/>
			<path class="st29" d="M435.5,287.3c0,15.5-12.5,28.1-28,28.1h-1.1c6-5.8,9.5-11.6,11.6-16.6c11.8-27.7,0.1-67.1-27.5-86.8
				c-28.2-20.1-69.8-17.4-99.3,8.3l-1.3,1.1c-0.8-19.2-3-37.1-6.3-52.6h32.1h15.8H355h8.5c3.9,0,7.7,0.3,11.5,0.9
				c34.3,5.6,60.5,36,60.5,72.7V287.3z"/>
			<rect x="168.4" y="150.1" class="st7" width="15.8" height="18.7"/>
			<path class="st29" d="M250,149.1v20l-19.9,26.9c-1.6-3-2.5-6.4-2.5-10.1v-15.4c0-11.9,9.6-21.5,21.5-21.5H250z"/>
			<path class="st8" d="M271.5,131.3c-5.3,5.8-13,9.5-21.5,9.5c-8.5,0-16.2-3.7-21.5-9.5c6.2-12.3,13.6-19.5,21.5-19.5
				C257.9,111.8,265.3,118.9,271.5,131.3z"/>
			<path class="st6" d="M286.8,291.2c2.3-16,3.6-33.7,3.6-52.4c0-5.9-0.1-11.7-0.4-17.4l1.3-1.1c29.5-25.7,71-28.3,99.3-8.3
				c27.6,19.7,39.3,59,27.5,86.8c-2.1,5-5.6,10.8-11.6,16.6c1.5-4.6,2.4-9.6,2.4-14.8c0-25.5-20.2-46.2-45.2-46.2
				s-45.2,20.7-45.2,46.2c0,5.2,0.9,10.2,2.4,14.8h-15.6C307,307.9,285.5,299.8,286.8,291.2z"/>
			<path class="st6" d="M238.9,323.8h22.2c2.3,0,4.1,1.8,4.1,4.1v1.9c0,2.3-1.8,4.1-4.1,4.1h-22.2c-2.3,0-4.1-1.8-4.1-4.1v-1.9
				C234.8,325.6,236.6,323.8,238.9,323.8z"/>
			<path class="st6" d="M91.2,300.6c0,5.2,0.8,10.2,2.4,14.8c-6-5.8-9.5-11.6-11.6-16.6c-11.8-27.7-0.2-67.1,27.5-86.8
				c28.2-20.1,69.8-17.4,99.3,8.3l1.3,1.1c-0.3,5.7-0.4,11.5-0.4,17.4c0,18.7,1.3,36.4,3.6,52.4c1.2,8.6-20.3,16.7-18.5,24.2h-15.6
				c1.5-4.6,2.4-9.6,2.4-14.8c0-25.5-20.2-46.2-45.2-46.2S91.2,275.1,91.2,300.6z"/>
			<path class="st29" d="M64.5,242.5c0-36.7,26.2-67.1,60.5-72.7c3.7-0.6,7.6-0.9,11.5-0.9h8.5h23.4h15.8h32.1
				c-3.3,15.5-5.5,33.3-6.3,52.6l-1.3-1.1c-29.5-25.7-71-28.3-99.3-8.3c-27.7,19.7-39.3,59-27.5,86.8c2.1,5,5.6,10.8,11.6,16.6h-1.1
				c-15.5,0-28-12.6-28-28.1V242.5z"/>
			<path class="st39" d="M305.2,384.3c0,2.2-1.8,3.9-3.9,3.9h-21.9c-2.2,0-3.9-1.8-3.9-3.9v-1.8h29.8V384.3z"/>
			<polygon class="st5" points="170.8,340.4 194.8,351.7 141.1,374.8 126.7,366.5 			"/>
			<path class="st8" d="M229.9,315.4v-92.1l20.1,39l20.1-39v92.1H229.9z M245.9,300.3c0,2.3,1.8,4.1,4.1,4.1s4.1-1.8,4.1-4.1
				c0,2.3,1.8,4.1,4.1,4.1h0c2.3,0,4.1-1.8,4.1-4.1V282c0-1.1-0.5-2.2-1.2-2.9c-0.8-0.7-1.8-1.2-2.9-1.2c-2.3,0-4.1,1.8-4.1,4.1
				c0-1.1-0.5-2.2-1.2-2.9c-0.8-0.7-1.8-1.2-2.9-1.2c-2.3,0-4.1,1.8-4.1,4.1c0-2.3-1.8-4.1-4.1-4.1h0c-2.3,0-4.1,1.8-4.1,4.1v18.3
				c0,2.3,1.8,4.1,4.1,4.1h0C244.1,304.4,245.9,302.6,245.9,300.3z"/>
			<path class="st6" d="M241.8,277.9c2.3,0,4.1,1.8,4.1,4.1v18.3c0,2.3-1.8,4.1-4.1,4.1h0c-2.3,0-4.1-1.8-4.1-4.1V282
				C237.7,279.7,239.5,277.9,241.8,277.9L241.8,277.9z"/>
			<polygon class="st5" points="358.9,374.8 305.2,351.7 329.3,340.4 373.3,366.5 			"/>
			<polygon class="st7" points="275.4,382.5 275.4,365.8 305.2,351.7 305.2,382.5 			"/>
			<path class="st7" d="M125,169.7v-27.2h20v26.3h-8.5C132.6,168.8,128.8,169.1,125,169.7z"/>
			<path class="st6" d="M229.4,338c0-2.3,1.8-4.1,4.1-4.1h5.4h22.2h5.4c2.3,0,4.1,1.8,4.1,4.1v1.3c0,2.3-1.8,4.1-4.1,4.1h-33
				c-2.3,0-4.1-1.8-4.1-4.1V338z"/>
			<path class="st7" d="M375,142.6v27.2c-3.7-0.6-7.6-0.9-11.5-0.9H355v-26.3H375z"/>
			<path class="st39" d="M138.5,135c2.5,2.5,3.9,3.9,6.5,6.5v1.1h-20v-1.1c2.5-2.5,3.9-3.9,6.5-6.5H138.5z"/>
			<path class="st39" d="M331.6,147.5v2.5h-15.8v-2.5c1.9-1.9,3-3,5-4.9h5.9C328.6,144.5,329.7,145.6,331.6,147.5z"/>
			<polygon class="st28" points="373.3,366.5 329.3,340.4 320.9,315.4 			"/>
		</g>
		<g>
			<path class="st41" d="M305.2,315.4c1.8-7.5-19.7-15.6-18.5-24.2c2.3-16,3.6-33.7,3.6-52.4c0-5.9-0.1-11.7-0.4-17.4
				c-0.8-19.2-3-37.1-6.3-52.6c-3.2-15.1-7.3-27.9-12.2-37.6c-6.2-12.3-13.6-19.5-21.5-19.5c-7.9,0-15.3,7.1-21.5,19.5
				c-4.9,9.6-9,22.5-12.2,37.6c-3.3,15.5-5.5,33.3-6.3,52.6c-0.3,5.7-0.4,11.5-0.4,17.4c0,18.7,1.3,36.4,3.6,52.4
				c1.2,8.6-20.3,16.7-18.5,24.2"/>
			<path class="st41" d="M270.1,315.4h12.1h23.1h15.6c-1.5-4.6-2.4-9.6-2.4-14.8c0-25.5,20.2-46.2,45.2-46.2s45.2,20.7,45.2,46.2
				c0,5.2-0.9,10.2-2.4,14.8h1.1c15.5,0,28-12.6,28-28.1v-44.8c0-36.7-26.2-67.1-60.5-72.7c-3.7-0.6-7.6-0.9-11.5-0.9H355h-23.4
				h-15.8h-32.1"/>
			<path class="st41" d="M216.3,168.8h-32.1h-15.8H145h-8.5c-3.9,0-7.7,0.3-11.5,0.9c-34.3,5.6-60.5,36-60.5,72.7v44.8
				c0,15.5,12.5,28.1,28,28.1h1.1c-1.5-4.6-2.4-9.6-2.4-14.8c0-25.5,20.2-46.2,45.2-46.2s45.2,20.7,45.2,46.2
				c0,5.2-0.9,10.2-2.4,14.8h15.6h23.1h12.1"/>
			<polyline class="st41" points="194.8,351.7 170.8,340.4 179.1,315.4 			"/>
			<polyline class="st41" points="320.9,315.4 329.3,340.4 305.2,351.7 275.4,365.8 251,377.3 249,377.3 224.6,365.8 194.8,351.7 
							"/>
			<line class="st41" x1="194.8" y1="382.5" x2="194.8" y2="351.7"/>
			<line class="st41" x1="224.6" y1="365.8" x2="224.6" y2="382.5"/>
			<line class="st41" x1="275.4" y1="382.5" x2="275.4" y2="365.8"/>
			<line class="st41" x1="305.2" y1="351.7" x2="305.2" y2="382.5"/>
			<polyline class="st41" points="320.9,315.4 373.3,366.5 358.9,374.8 305.2,351.7 			"/>
			<polyline class="st41" points="179.1,315.4 126.7,366.5 141.1,374.8 194.8,351.7 			"/>
			<path class="st41" d="M93.6,315.4c-6-5.8-9.5-11.6-11.6-16.6c-11.8-27.7-0.2-67.1,27.5-86.8c28.2-20.1,69.8-17.4,99.3,8.3
				l1.3,1.1"/>
			<path class="st41" d="M406.4,315.4c6-5.8,9.5-11.6,11.6-16.6c11.8-27.7,0.1-67.1-27.5-86.8c-28.2-20.1-69.8-17.4-99.3,8.3
				l-1.3,1.1"/>
			<path class="st41" d="M228.5,131.3c5.3,5.8,13,9.5,21.5,9.5c8.5,0,16.2-3.7,21.5-9.5"/>
			<path class="st41" d="M250,169.2l19.9,26.9c1.6-3,2.5-6.4,2.5-10.1v-15.4c0-11.9-9.6-21.5-21.5-21.5H250h-0.9
				c-11.9,0-21.5,9.6-21.5,21.5V186c0,3.6,0.9,7.1,2.5,10.1L250,169.2z"/>
			<line class="st41" x1="250" y1="169.2" x2="250" y2="149.1"/>
			<path class="st41" d="M270.1,315.4h-40.2v-92.1c0-11.1,9-20.1,20.1-20.1c5.5,0,10.6,2.2,14.2,5.9c3.6,3.6,5.9,8.7,5.9,14.2V315.4
				z"/>
			<polyline class="st41" points="229.9,223.3 250,262.3 270.1,223.3 			"/>
			<path class="st41" d="M245.9,282c0-2.3,1.8-4.1,4.1-4.1c1.1,0,2.2,0.5,2.9,1.2c0.7,0.8,1.2,1.8,1.2,2.9"/>
			<path class="st41" d="M254.1,300.3c0,2.3-1.8,4.1-4.1,4.1s-4.1-1.8-4.1-4.1"/>
			<path class="st41" d="M254.1,282c0-2.3,1.8-4.1,4.1-4.1c1.1,0,2.2,0.5,2.9,1.2c0.7,0.8,1.2,1.8,1.2,2.9v18.3
				c0,2.3-1.8,4.1-4.1,4.1h0c-2.3,0-4.1-1.8-4.1-4.1V282z"/>
			<path class="st41" d="M245.9,300.3c0,2.3-1.8,4.1-4.1,4.1h0c-2.3,0-4.1-1.8-4.1-4.1V282c0-2.3,1.8-4.1,4.1-4.1h0
				c2.3,0,4.1,1.8,4.1,4.1V300.3z"/>
			<line class="st41" x1="145" y1="142.6" x2="145" y2="168.8"/>
			<line class="st41" x1="125" y1="169.7" x2="125" y2="142.6"/>
			<line class="st41" x1="184.2" y1="150.1" x2="184.2" y2="168.8"/>
			<line class="st41" x1="168.4" y1="150" x2="184.2" y2="150"/>
			<line class="st41" x1="168.4" y1="168.8" x2="168.4" y2="150.1"/>
			<path class="st41" d="M145,142.6v-1.1c-2.5-2.5-3.9-3.9-6.5-6.5h-7c-2.5,2.5-3.9,3.9-6.5,6.5v1.1H145z"/>
			<path class="st41" d="M184.2,150v-2.5c-1.9-1.9-3-3-4.9-4.9h-5.9c-1.9,1.9-3,3-4.9,4.9v2.5v0.1L184.2,150L184.2,150z"/>
			<line class="st41" x1="375" y1="142.6" x2="375" y2="169.7"/>
			<line class="st41" x1="355" y1="168.8" x2="355" y2="142.6"/>
			<line class="st41" x1="331.6" y1="150.1" x2="331.6" y2="168.8"/>
			<line class="st41" x1="315.8" y1="150" x2="331.6" y2="150"/>
			<line class="st41" x1="315.8" y1="168.8" x2="315.8" y2="150.1"/>
			<path class="st41" d="M355,142.6v-1.1c2.5-2.5,3.9-3.9,6.5-6.5h7.1c2.5,2.5,3.9,3.9,6.5,6.5v1.1H355z"/>
			<path class="st41" d="M315.8,150v-2.5c1.9-1.9,3-3,5-4.9h5.9c1.9,1.9,3,3,4.9,4.9v2.5v0.1L315.8,150L315.8,150z"/>
			<path class="st41" d="M305.2,382.5v1.8c0,2.2-1.8,3.9-3.9,3.9h-21.9c-2.2,0-3.9-1.8-3.9-3.9v-1.8H305.2z"/>
			<path class="st41" d="M224.6,382.5v1.8c0,2.2-1.8,3.9-3.9,3.9h-21.9c-2.2,0-3.9-1.8-3.9-3.9v-1.8H224.6z"/>
			<polyline class="st41" points="126.7,366.5 170.8,340.4 250,358.2 329.3,340.4 373.3,366.5 			"/>
			<path class="st41" d="M238.9,333.9c-2.3,0-4.1-1.8-4.1-4.1v-1.9c0-2.3,1.8-4.1,4.1-4.1h22.2c2.3,0,4.1,1.8,4.1,4.1v1.9
				c0,2.3-1.8,4.1-4.1,4.1"/>
			<path class="st41" d="M261.1,333.9h5.4c2.3,0,4.1,1.8,4.1,4.1v1.3c0,2.3-1.8,4.1-4.1,4.1h-33c-2.3,0-4.1-1.8-4.1-4.1V338
				c0-2.3,1.8-4.1,4.1-4.1h5.4H261.1z"/>
		</g>
	</g>
</g>
<g id="Spaceship3" class="st0">
	<g class="st40">
		<g id="XMLID_19_">
			<g>
				<path class="st6" d="M289.1,240.9c0,1.5,1.3,2.8,2.8,2.8s2.8-1.3,2.8-2.8c0-1.5-1.3-2.8-2.8-2.8S289.1,239.3,289.1,240.9z
					 M299,251.8c0,3,2.5,5.5,5.5,5.5c3,0,5.5-2.5,5.5-5.5c0-3-2.5-5.5-5.5-5.5C301.5,246.3,299,248.8,299,251.8z M339.2,177.6
					c5.9,0,11.4-2,15.8-5.4c4.5,18,6.8,45.3-4.7,73c-2.1,5.1-15.2,35.5-44.6,49.2v-11.7c0-8.8-7.2-16-16-16H277v-3.9V262l8.3-12.7
					l-8.3-21.5v-1.8v-26.1l0.8,2.4c2.9,6.1,13.2,27.5,24.2,35.1c3.1,2.2,6.2,3.2,9.2,2.6c1.6-0.3,3.1-1.2,4.6-2.4
					c9.8-8.4,15.2-36.1,14.7-61.7C333.2,177,336.2,177.6,339.2,177.6z"/>
				<path class="st29" d="M333,137.6c9.8,2.9,14.8,14.4,17.3,20.4c1.5,3.6,3.2,8.4,4.7,14.3c-4.3,3.4-9.8,5.4-15.8,5.4
					c-3.1,0-6-0.5-8.8-1.5c-0.1-4.1-0.3-8.2-0.7-12.2c-1-10.3-3.4-19.2-6-26.4C325.9,136.9,329.3,136.5,333,137.6z"/>
				<path class="st29" d="M323.7,364.7l2.1,7.6l-17.5,4.8c-2.6-1.5-5-2.9-7.3-4.2l2.8-5.8l14.1-4.8L323.7,364.7z"/>
				<path class="st39" d="M313.3,214.8c1,1,1.5,1.5,2.5,2.5v3.8H302v-3.8c1-1,1.5-1.5,2.5-2.5H313.3z"/>
				<path class="st8" d="M266.2,353c-2.6-1.5-5.3-3-8.2-4.7l-4.5-16.7l23.2-21c16.6-4.5,33.7,5.3,38.1,21.9l8.8,32.2l-5.8-2.4
					l-14.1,4.8l-2.8,5.8C288.2,365.6,278.8,360.2,266.2,353z"/>
				<path class="st7" d="M311.2,240.1c-3,0.6-6.1-0.4-9.2-2.6v-16.4h13.8v16.6C314.4,238.9,312.8,239.8,311.2,240.1z"/>
				<path class="st8" d="M289.7,266.7c8.8,0,16,7.2,16,16v11.7v10l-7.2-1.5v-14c0-1.7-1.4-3.1-3.1-3.1h-4h-4c-1.7,0-3.1,1.4-3.1,3.1
					v11l-7.2-1.5v-31.6H289.7z"/>
				<circle class="st28" cx="304.5" cy="251.8" r="5.5"/>
				<path class="st29" d="M298.5,288.9v14l-7.2-1.5v-15.6h4C297.1,285.7,298.5,287.1,298.5,288.9z"/>
				<circle class="st28" cx="291.9" cy="240.9" r="2.8"/>
				<path class="st28" d="M291.4,285.7v15.6l-7.2-1.5v-11c0-1.7,1.4-3.1,3.1-3.1H291.4z"/>
				<path class="st39" d="M267.4,360.9c2.7,2.8,4.4,6.5,4.4,10.7h-6.9h-29.7h-6.9c0-4.7,2.2-9,5.6-11.8c2.6-2.1,6-3.4,9.6-3.4h13.3
					c3.6,0,7,1.3,9.6,3.4C266.6,360.2,267,360.5,267.4,360.9z"/>
				<path class="st6" d="M246.5,331.6c0.2,0,0.4,0,0.6,0h5.5c0.3,0,0.6,0,1,0l4.5,16.7c2.9,1.7,5.6,3.2,8.2,4.7v2.8v4.1
					c-2.6-2.1-6-3.4-9.6-3.4h-13.3c-3.6,0-7,1.3-9.6,3.4v-4.1V353c2.6-1.5,5.3-3,8.2-4.7L246.5,331.6z"/>
				<path class="st28" d="M265.8,182.1v9.1v0.7c0,4.6-3.8,8.4-8.4,8.4h-2.5v0v-27.1c0,0,0-0.1,0-0.1V173h2.5c4.6,0,8.4,3.8,8.4,8.4
					V182.1z"/>
				<path class="st9" d="M254.9,176.8v-3.7c0,0,0,0.1,0,0.1v27.1L254.9,176.8z"/>
				<path class="st29" d="M245.1,173c0.1-2.6,2.3-4.7,4.9-4.7c1.4,0,2.6,0.6,3.5,1.4c0.8,0.9,1.4,2,1.4,3.3v0.1v3.7l0,23.5v0h-9.8
					l0-18.3V173z"/>
				<path class="st28" d="M243.9,313c3.6,2.8,8.5,2.8,12.2,0.1l12.4-9.3l8.3,6.8l-23.2,21c-0.3,0-0.6,0-1,0h-5.5c-0.2,0-0.4,0-0.6,0
					l-23.2-21c-0.1,0-0.2-0.1-0.3-0.1l8.6-7.1L243.9,313z"/>
				<path class="st8" d="M242.5,173c-4.6,0-8.4,3.8-8.4,8.4v0.7v9.1v0.7c0,4.6,3.8,8.4,8.4,8.4h2.5h9.8h2.5c4.6,0,8.4-3.8,8.4-8.4
					v-0.7v-9.1v-0.7c0-4.6-3.8-8.4-8.4-8.4h-2.5c-0.1-1.3-0.6-2.4-1.4-3.3c-0.9-0.9-2.1-1.4-3.5-1.4c-2.6,0-4.8,2.1-4.9,4.7H242.5z
					 M264.5,161.9c4.6,8.5,9,14.6,12.5,18.8v11v6.5l-11.2,9.3v4.6v18.8c0,7.6-7.1,13.7-15.8,13.7c-4.4,0-8.3-1.5-11.2-4
					c-2.9-2.5-4.6-5.9-4.6-9.7v-20.7v-2.6l-11.5-9.4v-17.5c3.5-4.2,8-10.2,12.5-18.8c0.8,0.5,1.7,0.9,2.5,0.9
					c4.1,0,7.5-6.2,7.5-13.8c0-2.6-0.4-5.1-1.1-7.2c2.5-6.8,4.3-13.2,5.6-18.5l0.1-0.2l0.1,0.2c1.3,5.4,3.2,11.7,5.6,18.5
					c-0.7,2.1-1.1,4.5-1.1,7.2c0,7.6,3.3,13.8,7.4,13.8C262.8,162.8,263.7,162.4,264.5,161.9z"/>
				<path class="st9" d="M245.1,173v9l0,18.3v-27.1C245.1,173.2,245.1,173.1,245.1,173z"/>
				<path class="st28" d="M242.5,173h2.6c0,0.1,0,0.1,0,0.2v27.1h-2.5c-4.6,0-8.4-3.8-8.4-8.4v-0.7v-9.1v-0.7
					C234.2,176.8,237.9,173,242.5,173z"/>
				<path class="st8" d="M231.5,273c0-3.4,2.8-6.5,6.3-6.4c1.6,0,3.1,0.7,4.2,1.8c1.1,1.1,1.8,2.6,1.8,4.3v14.7
					c0,1.7,0.7,3.2,1.8,4.4c0.9,0.9,2.1,1.6,3.5,1.8c0,0,0,0,0,0c0.3,0,0.6,0.1,0.9,0.1s0.6,0,0.9,0c0,0,0,0,0,0
					c3.1-0.4,5.4-3,5.4-6.2v-14.4c0-3.5,2.8-6.5,6.3-6.4c1.6,0,3.1,0.7,4.2,1.8c1.1,1.1,1.8,2.6,1.8,4.3v31l-12.4,9.3
					c-3.6,2.7-8.6,2.7-12.2-0.1l-12.4-9.5V273z"/>
				<path class="st7" d="M277,199.9v26.1v1.8l8.3,21.5L277,262v0.8v3.9v31.6v5.5v3.4c0,1.2-0.1,2.3-0.2,3.4l-8.3-6.8v-31
					c0-1.7-0.7-3.2-1.8-4.3c-1.1-1.1-2.6-1.7-4.2-1.8c-3.4-0.1-6.3,2.9-6.3,6.4v14.4c0,3.2-2.4,5.8-5.4,6.2c0,0,0,0,0,0
					c-0.3,0-0.6,0.1-0.9,0s-0.6,0-0.9-0.1c0,0,0,0,0,0c-1.4-0.2-2.6-0.9-3.5-1.8c-1.1-1.1-1.8-2.7-1.8-4.4v-14.7
					c0-1.7-0.7-3.2-1.8-4.3c-1.1-1.1-2.6-1.8-4.2-1.8c-3.4-0.1-6.3,2.9-6.3,6.4v30.4l-8.6,7.1c-0.1-1.1-0.2-2.2-0.2-3.3v-3.4v-5.2
					v-31.6v-3.5v-1.9l-0.8-1.2l-7.2-11l7.5-19.4l0.5-1.3v-5.2v-22.6v-2.8l11.5,9.4v2.6v20.7c0,3.8,1.8,7.2,4.6,9.7
					c2.9,2.5,6.8,4,11.2,4c8.7,0,15.8-6.1,15.8-13.7v-18.8v-4.6l11.2-9.3V199.9z"/>
				<path class="st8" d="M194,294.2v-11.3c0-8.8,7.2-16,16-16h12.7v31.6l-7.2,1.5v-11c0-1.7-1.4-3.1-3.1-3.1h-4h-4.1
					c-1.7,0-3.1,1.4-3.1,3.1v14l-7.2,1.5V294.2z"/>
				<path class="st6" d="M195.4,257.3c3,0,5.5-2.5,5.5-5.5c0-3-2.5-5.5-5.5-5.5c-3,0-5.5,2.5-5.5,5.5
					C189.9,254.9,192.4,257.3,195.4,257.3z M205.4,240.9c0,1.5,1.3,2.8,2.8,2.8c1.5,0,2.8-1.3,2.8-2.8c0-1.5-1.3-2.8-2.8-2.8
					C206.6,238.1,205.4,239.3,205.4,240.9z M169.5,176c-0.5,25.6,4.9,53.3,14.7,61.7c1.4,1.2,2.9,2.1,4.6,2.4c3,0.6,6.1-0.4,9.2-2.6
					c11-7.7,21.3-29,24.2-35.1l0.5-1.5v22.6v5.2l-0.5,1.3l-7.5,19.4l7.2,11l0.8,1.2v1.9v3.5H210c-8.8,0-16,7.2-16,16v11.3
					c-29.1-13.7-42.2-43.9-44.3-49c-11.5-27.7-9.2-55-4.7-73c4.4,3.4,9.8,5.4,15.8,5.4C163.8,177.6,166.8,177,169.5,176z"/>
				<path class="st28" d="M212.4,285.9c1.7,0,3.1,1.4,3.1,3.1v11l-7.2,1.5v-15.6H212.4z"/>
				<path class="st8" d="M208.3,310.2c2.3-0.5,4.7-0.8,7.2-0.7c2.4,0,4.9,0.4,7.4,1c0.1,0,0.2,0.1,0.3,0.1l23.2,21l-4.5,16.7
					c-2.9,1.7-5.6,3.2-8.2,4.7c-12.6,7.2-22,12.6-34.7,19.9l-2.8-5.8l-14.1-4.8l-5.8,2.4l8.8-32.2c2.4-8.9,8.4-15.8,16.1-19.6
					C203.4,311.7,205.8,310.8,208.3,310.2z"/>
				<circle class="st28" cx="208.1" cy="240.9" r="2.8"/>
				<path class="st29" d="M208.3,285.9v15.6l-7.2,1.5v-14c0-1.7,1.4-3.1,3.1-3.1H208.3z"/>
				<path class="st29" d="M196.3,367.1l2.8,5.8c-2.3,1.3-4.7,2.7-7.3,4.2l-17.5-4.8l2.1-7.6l5.8-2.4L196.3,367.1z"/>
				<path class="st39" d="M195.5,214.8c1,1,1.5,1.5,2.5,2.5v3.8h-13.8v-3.8c1-1,1.5-1.5,2.5-2.5H195.5z"/>
				<circle class="st28" cx="195.4" cy="251.8" r="5.5"/>
				<path class="st7" d="M198,237.5c-3.1,2.2-6.2,3.2-9.2,2.6c-1.6-0.3-3.1-1.2-4.6-2.4v-16.6H198V237.5z"/>
				<path class="st29" d="M167,137.6c3.7-1.1,7.1-0.7,9.3-0.2c-2.6,7.2-5,16.1-6,26.4c-0.4,3.9-0.6,8-0.7,12.2
					c-2.7,1-5.7,1.5-8.8,1.5c-5.9,0-11.4-2-15.8-5.4c1.5-5.8,3.2-10.7,4.7-14.3C152.3,152,157.2,140.5,167,137.6z"/>
			</g>
			<g>
				<path class="st41" d="M222.7,298.5v5.2v3.4c0,1.1,0.1,2.2,0.2,3.3"/>
				<path class="st41" d="M277,226.1v-26.1v-1.8v-6.5v-11c-3.5-4.2-8-10.2-12.5-18.8c-0.8,0.5-1.7,0.9-2.6,0.9
					c-4.1,0-7.4-6.2-7.4-13.8c0-2.6,0.4-5.1,1.1-7.2c-2.5-6.8-4.3-13.2-5.6-18.5l-0.1-0.2l-0.1,0.2c-1.3,5.4-3.2,11.7-5.6,18.5
					c0.7,2.1,1.1,4.5,1.1,7.2c0,7.6-3.3,13.8-7.5,13.8c-0.9,0-1.8-0.3-2.5-0.9c-4.6,8.5-9,14.6-12.5,18.8v17.5v2.8v22.6"/>
				<line class="st41" x1="222.7" y1="266.9" x2="222.7" y2="263.4"/>
				<line class="st41" x1="277" y1="266.7" x2="277" y2="262.8"/>
				<path class="st41" d="M276.8,310.6c0.2-1.1,0.2-2.3,0.2-3.4v-3.4v-5.5"/>
				<path class="st41" d="M246.5,331.6c0.2,0,0.4,0,0.6,0h5.5c0.3,0,0.6,0,1,0"/>
				<path class="st41" d="M276.8,310.6c16.6-4.5,33.7,5.3,38.1,21.9l8.8,32.2l2.1,7.6l-17.5,4.8c-2.6-1.5-5-2.9-7.3-4.2
					c-12.7-7.3-22.1-12.7-34.7-19.9c-2.6-1.5-5.3-3-8.2-4.7l-4.5-16.7L276.8,310.6z"/>
				<path class="st41" d="M215.5,309.5c2.4,0,4.9,0.4,7.4,1c0.1,0,0.2,0.1,0.3,0.1l23.2,21l-4.5,16.7c-2.9,1.7-5.6,3.2-8.2,4.7
					c-12.6,7.2-22,12.6-34.7,19.9c-2.3,1.3-4.7,2.7-7.3,4.2l-17.5-4.8l2.1-7.6l8.8-32.2c2.4-8.9,8.4-15.8,16.1-19.6
					c2.3-1.1,4.7-2,7.2-2.6"/>
				<polyline class="st41" points="233.8,353 233.8,355.7 233.8,359.9 				"/>
				<polyline class="st41" points="266.2,353 266.2,353 266.2,355.7 266.2,359.9 				"/>
				<path class="st41" d="M266.2,359.9c-2.6-2.1-6-3.4-9.6-3.4h-13.3c-3.6,0-7,1.3-9.6,3.4c-3.4,2.8-5.6,7-5.6,11.8h6.9h29.7h6.9
					c0-4.2-1.7-8-4.4-10.7C267,360.5,266.6,360.2,266.2,359.9z"/>
				<line class="st41" x1="231.5" y1="303.4" x2="222.9" y2="310.5"/>
				<line class="st41" x1="276.8" y1="310.6" x2="268.5" y2="303.8"/>
				<path class="st41" d="M277,199.9l0.8,2.4c2.9,6.1,13.2,27.5,24.2,35.1c3.1,2.2,6.2,3.2,9.2,2.6c1.6-0.3,3.1-1.2,4.6-2.4
					c9.8-8.4,15.2-36.1,14.7-61.7c-0.1-4.1-0.3-8.2-0.7-12.2c-1-10.3-3.4-19.2-6-26.4c2.2-0.5,5.5-1,9.3,0.2
					c9.8,2.9,14.8,14.4,17.3,20.4c1.5,3.6,3.2,8.4,4.7,14.3c4.5,18,6.8,45.3-4.7,73c-2.1,5.1-15.2,35.5-44.6,49.2
					c-0.1,0-0.2,0.1-0.4,0.2"/>
				<path class="st41" d="M330.5,176c2.7,1,5.7,1.5,8.8,1.5c5.9,0,11.4-2,15.8-5.4"/>
				<line class="st41" x1="315.8" y1="221.1" x2="315.8" y2="237.7"/>
				<line class="st41" x1="302" y1="237.5" x2="302" y2="221.1"/>
				<path class="st41" d="M315.8,221.1v-3.8c-1-1-1.5-1.5-2.5-2.5h-8.8c-1,1-1.5,1.5-2.5,2.5v3.8H315.8z"/>
				<polyline class="st41" points="300.9,372.9 303.8,367.1 317.9,362.3 323.7,364.7 				"/>
				<polyline class="st41" points="199.1,372.9 199.1,372.8 196.3,367.1 182.1,362.3 176.3,364.7 				"/>
				<path class="st41" d="M268.5,303.8v-31c0-1.7-0.7-3.2-1.8-4.3c-1.1-1.1-2.6-1.7-4.2-1.8c-3.4-0.1-6.3,2.9-6.3,6.4v14.4
					c0,3.2-2.4,5.8-5.4,6.2c0,0,0,0,0,0c-0.3,0-0.6,0.1-0.9,0s-0.6,0-0.9-0.1c0,0,0,0,0,0c-1.4-0.2-2.6-0.9-3.5-1.8
					c-1.1-1.1-1.8-2.7-1.8-4.4v-14.7c0-1.7-0.7-3.2-1.8-4.3c-1.1-1.1-2.6-1.8-4.2-1.8c-3.4-0.1-6.3,2.9-6.3,6.4v30.4l12.4,9.5
					c3.6,2.8,8.5,2.8,12.2,0.1L268.5,303.8z"/>
				<circle class="st41" cx="304.5" cy="251.8" r="5.5"/>
				<circle class="st41" cx="291.9" cy="240.9" r="2.8"/>
				<path class="st41" d="M305.7,294.4v-11.7c0-8.8-7.2-16-16-16H277v31.6l7.2,1.5l7.2,1.5l7.2,1.5l7.2,1.5V294.4z"/>
				<path class="st41" d="M291.4,285.7h-4c-1.7,0-3.1,1.4-3.1,3.1v11"/>
				<path class="st41" d="M291.4,301.3v-15.6h4c1.7,0,3.1,1.4,3.1,3.1v14"/>
				<path class="st41" d="M194.6,294.5c-0.2-0.1-0.5-0.2-0.7-0.3c-29.1-13.7-42.2-43.9-44.3-49c-11.5-27.7-9.2-55-4.7-73
					c1.5-5.8,3.2-10.7,4.7-14.3c2.6-5.9,7.5-17.4,17.3-20.4c3.7-1.1,7.1-0.7,9.3-0.2c-2.6,7.2-5,16.1-6,26.4
					c-0.4,3.9-0.6,8-0.7,12.2c-0.5,25.6,4.9,53.3,14.7,61.7c1.4,1.2,2.9,2.1,4.6,2.4c3,0.6,6.1-0.4,9.2-2.6
					c11-7.7,21.3-29,24.2-35.1l0.5-1.5l0.3-1"/>
				<path class="st41" d="M145,172.2c4.4,3.4,9.8,5.4,15.8,5.4c3.1,0,6-0.5,8.8-1.5"/>
				<line class="st41" x1="198" y1="221.1" x2="198" y2="237.5"/>
				<line class="st41" x1="184.2" y1="237.7" x2="184.2" y2="221.1"/>
				<path class="st41" d="M184.2,221.1v-3.8c1-1,1.5-1.5,2.5-2.5h8.8c1,1,1.5,1.5,2.5,2.5v3.8H184.2z"/>
				<circle class="st41" cx="195.4" cy="251.8" r="5.5"/>
				<circle class="st41" cx="208.1" cy="240.9" r="2.8"/>
				<path class="st41" d="M208.3,301.5l-7.2,1.5l-7.2,1.5v-10.3v-11.3c0-8.8,7.2-16,16-16h12.7v31.6l-7.2,1.5"/>
				<path class="st41" d="M208.3,285.9h4c1.7,0,3.1,1.4,3.1,3.1v11l-7.2,1.5"/>
				<path class="st41" d="M208.3,310.2c2.3-0.5,4.7-0.8,7.2-0.7"/>
				<path class="st41" d="M208.3,301.5v-15.6h-4.1c-1.7,0-3.1,1.4-3.1,3.1v14"/>
				<path class="st41" d="M277,198.2l-11.2,9.3v4.6v18.8c0,7.6-7.1,13.7-15.8,13.7c-4.4,0-8.3-1.5-11.2-4c-2.9-2.5-4.6-5.9-4.6-9.7
					v-20.7v-2.6l-11.5-9.4"/>
				<polyline class="st41" points="277,226.1 277,227.8 285.3,249.3 277,262 277,262.8 				"/>
				<polyline class="st41" points="222.7,263.4 222.7,261.5 221.9,260.3 214.7,249.3 222.2,229.9 222.7,228.7 222.7,223.5 				"/>
				<path class="st41" d="M254.9,200.3h2.5c4.6,0,8.4-3.8,8.4-8.4v-0.7v-9.1v-0.7c0-4.6-3.8-8.4-8.4-8.4h-2.5
					c-0.1-1.3-0.6-2.4-1.4-3.3c-0.9-0.9-2.1-1.4-3.5-1.4c-2.6,0-4.8,2.1-4.9,4.7h-2.6c-4.6,0-8.4,3.8-8.4,8.4v0.7v9.1v0.7
					c0,4.6,3.8,8.4,8.4,8.4h2.5H254.9z"/>
				<polyline class="st41" points="245.1,200.3 245.1,182 245.1,173 				"/>
				<polyline class="st41" points="254.9,176.8 254.9,173.1 254.9,173 				"/>
				<line class="st41" x1="254.9" y1="200.3" x2="254.9" y2="200.3"/>
				<line class="st41" x1="254.9" y1="200.3" x2="254.9" y2="176.8"/>
			</g>
		</g>
	</g>
</g>
<g id="Spaceship4">
	<g id="XMLID_26_">
		<g>
			<path class="st6" d="M270.6,103.4l8.6,5.2c3.7,3.8,6.1,8.9,6.1,14.6v1.6h-7.1v-3.8c0-1.7-1.4-3-3-3h-0.4c-1.7,0-3,1.3-3,3v3.8
				h-7.1v-16.2C267.7,108.7,270.2,106.4,270.6,103.4z"/>
			<rect x="264.6" y="124.8" class="st7" width="7.1" height="8.8"/>
			<path class="st28" d="M308.6,322.5c1.4,0,2.5,1.1,2.5,2.5c0,1.4-1.1,2.5-2.5,2.5c-1.4,0-2.5-1.1-2.5-2.5
				C306.1,323.7,307.2,322.5,308.6,322.5z"/>
			<path class="st5" d="M128,191.1l-23,23c0-2.4,0-5,0-8.1l16.8-16.8l6.2-6.2l4.1,4L128,191.1z"/>
			<path class="st28" d="M238,179.4v7.9c0,1.4-1.2,2.6-2.6,2.6c-1.5,0-2.6-1.2-2.6-2.6v-16.5c0-1.4,1.2-2.6,2.6-2.6
				c0.7,0,1.4,0.3,1.9,0.8c0.4,0.4,0.7,1,0.8,1.6v0.1L238,179.4z"/>
			<path class="st7" d="M268.5,253.6v54.9v11.7c-1.4-21.2-10.8-39-15.6-46.9c-1.3-2.1-4.4-2.1-5.7,0c-4.8,7.9-14.2,25.7-15.6,46.9
				v-11.7v-54.9h11.1h14.6H268.5z M239.8,264.9h20.4c1.1,0,2.1-0.4,2.8-1.1c0.7-0.7,1.1-1.7,1.1-2.8c0-2.2-1.8-3.9-3.9-3.9h-20.4
				c-1.1,0-2.1,0.4-2.8,1.2c-0.7,0.7-1.1,1.7-1.1,2.8C235.9,263.2,237.6,264.9,239.8,264.9z"/>
			<path class="st29" d="M254.1,168.6c1.5,0,2.6,1.2,2.6,2.6v5.8c0,1.4-1.2,2.6-2.6,2.6h-1.5c-1.4,0-2.6-1.2-2.6-2.6v-5.8
				c0-1.5,1.2-2.6,2.6-2.6H254.1z"/>
			<path class="st28" d="M262,168.8v10.6c0,1.4-1.2,2.6-2.6,2.6c-1.4,0-2.6-1.2-2.6-2.6V177v-5.8v-2.4c0-1.4,1.2-2.6,2.6-2.6
				c0.7,0,1.4,0.3,1.9,0.8C261.7,167.4,262,168.1,262,168.8z"/>
			<rect x="228.2" y="124.8" class="st7" width="7.2" height="8.8"/>
			<path class="st39" d="M239.1,381v2.4h-31.1V381c0-4,3.3-7.3,7.3-7.3h16.5C235.9,373.7,239.1,377,239.1,381z"/>
			<path class="st29" d="M249.8,171.2v5.8c0,1.4-1.2,2.6-2.6,2.6h-1.3c-1.4,0-2.6-1.1-2.6-2.6c0,0,0,0,0-0.1l0-6c0,0,0,0,0-0.1
				c0.1-1.3,1.3-2.4,2.6-2.4h1.3C248.7,168.6,249.8,169.8,249.8,171.2z"/>
			<path class="st5" d="M168,266c1.6,1.6,1.6,4.3,0,6l-7.8,7.8L124,243l5.9-5.9l1.7-1.7c1.6-1.6,4.3-1.6,6,0L168,266z"/>
			<polygon class="st7" points="290.1,212.7 290.1,234.5 284.7,229.2 284.7,212.7 			"/>
			<path class="st7" d="M268.5,335.5v6.9h-5.3h-3.4c0-0.5,0-1,0-1.5c0-1.8,0-3.6-0.1-5.4c-1-28.7-9.6-51.2-9.6-51.2
				s-8.6,22.5-9.6,51.2c-0.1,1.8-0.1,3.6-0.1,5.4c0,0.5,0,1,0,1.5h-3.4h-5.3v-6.9v-8.8v-6.6c1.4-21.2,10.8-39,15.6-46.9
				c1.3-2.1,4.4-2.1,5.7,0c4.8,7.9,14.2,25.7,15.6,46.9v6.6V335.5z"/>
			<path class="st6" d="M308.9,279.2v-16.1l56.9-56.9l3.9-12.8l2.3-2.3l23,23c0,3.1,0,6,0,9.9l-6,6l-8.8-2.3l2.3,8.8L376,243
				l-5.9-5.9l-1.7-1.7c-1.6-1.6-4.3-1.6-6,0L332,266c-1.6,1.6-1.6,4.3,0,6l7.8,7.8l-13.3,13.5L308.9,279.2z"/>
			<rect x="278.2" y="124.8" class="st7" width="7.1" height="8.8"/>
			<path class="st8" d="M250,284.4c0,0,8.6,22.5,9.6,51.2c0.1,1.8,0.1,3.6,0.1,5.4c0,0.5,0,1,0,1.5c-0.1,9.6-1.1,18.7-2.4,26.6
				c-0.6,3.4-1.2,6.5-1.9,9.4c-0.9,4-1.8,7.5-2.6,10.4h-5.6c-0.8-2.9-1.7-6.4-2.6-10.4c-0.7-2.9-1.3-6.1-1.9-9.4
				c-1.3-7.9-2.3-16.9-2.4-26.6c0-0.5,0-1,0-1.5c0-1.8,0-3.6,0.1-5.4C241.4,306.8,250,284.4,250,284.4z"/>
			<polygon class="st7" points="200.2,212.7 200.2,243.6 200.8,243.6 194.9,249.6 194.9,212.7 			"/>
			<path class="st29" d="M248.5,196.1h3h0.7c1.7,0,2.5,1.9,1.3,3l-2.2,2.1c-0.7,0.7-1.9,0.7-2.7,0l-2.2-2.1c-1.2-1.1-0.3-3,1.3-3
				H248.5z"/>
			<path class="st6" d="M191.1,263.1v16.1l-17.5,14l-13.3-13.5l7.8-7.8c1.6-1.6,1.6-4.3,0-6l-30.5-30.5c-1.7-1.6-4.3-1.6-6,0
				l-1.7,1.7L124,243l-6.6-6.6l2.3-8.8L111,230l-6-6c0-3.9,0-6.8,0-9.9l23-23l2.3,2.3l3.9,12.8L191.1,263.1z"/>
			<path class="st28" d="M267.3,170.8v16.5c0,1.4-1.2,2.6-2.6,2.6c-1.4,0-2.6-1.2-2.6-2.6v-16.5c0-1.4,1.2-2.6,2.6-2.6
				c0.7,0,1.4,0.3,1.9,0.8C267,169.4,267.3,170.1,267.3,170.8z"/>
			<path class="st28" d="M242.5,167c0.5,0.5,0.8,1.1,0.8,1.9v2.1c0,0,0,0,0,0.1c0,0.1,0,0.1,0,0.2v5.8c0,0,0,0,0,0.1v2.3
				c0,1.4-1.2,2.6-2.6,2.6c-1.5,0-2.6-1.2-2.6-2.6v-8.6c0-0.1,0-0.2,0-0.2v-0.1v-1.7c0-1.4,1.2-2.6,2.6-2.6
				C241.4,166.2,242,166.5,242.5,167z"/>
			<path class="st5" d="M268.5,335.5v-8.8l39.8,39.8l12.1,20.2h-7.6c-9.1-9.1-16.1-16.1-23.1-23.1c-6.4-6.4-12.9-12.9-21.2-21.2
				V335.5z"/>
			<path class="st29" d="M331.5,308.9c-0.3,0.5-0.6,1-1.1,1.5c-1.3,1.3-3.1,2.2-5.1,2.2l-16.5-2.6v-0.1v-3.3
				c1.9-0.9,5.1-1.8,9.2-1.9C325.4,304.6,329.8,307.5,331.5,308.9z"/>
			<path class="st28" d="M242.7,210.1v43.5h-11.1v-36.2c0-1.8,0.9-3.4,2.4-4.3l6.6-4.1c0.2-0.1,0.5-0.2,0.8-0.2
				C242,208.7,242.7,209.3,242.7,210.1z"/>
			<path class="st28" d="M268.5,253.6h-11.1v-43.5c0-0.8,0.7-1.4,1.4-1.4c0.3,0,0.5,0.1,0.8,0.2l6.6,4.1c1.5,0.9,2.4,2.6,2.4,4.3
				V253.6z"/>
			<path class="st39" d="M305.1,211v1.7h-20.4V211c2.2-2.2,3.4-3.4,5.6-5.6h9.2C301.7,207.5,303,208.8,305.1,211z"/>
			<path class="st29" d="M278.2,137.3c0,1.7-1.4,3-3,3h-0.4c-1.7,0-3-1.3-3-3v-3.8v-8.8v-3.8c0-1.7,1.3-3,3-3h0.4c1.6,0,3,1.3,3,3
				v3.8v8.8V137.3z"/>
			<path class="st5" d="M258.1,114.7v43.4c0,3.7-2.4,6.7-5.7,7.8c3.2-1,5.6-4.1,5.6-7.7c0-4.4-3.6-8-8-8s-8,3.6-8,8
				c0,3.6,2.4,6.6,5.6,7.7c-3.3-1-5.7-4.1-5.7-7.8v-43.4c0.7,3.8,4.1,6.7,8.1,6.7S257.4,118.5,258.1,114.7z"/>
			<path class="st29" d="M303.4,269.4v6.8c0,1.1-0.9,1.9-1.9,1.9s-1.9-0.9-1.9-1.9v-6.8c0-1.1,0.9-1.9,1.9-1.9c0.5,0,1,0.2,1.4,0.6
				C303.2,268.4,303.4,268.9,303.4,269.4z"/>
			<path class="st29" d="M257.3,210.1v43.5h-14.6v-43.5c0-0.8-0.7-1.4-1.4-1.4h17.5C258,208.7,257.3,209.3,257.3,210.1z"/>
			<path class="st29" d="M191.1,310l-16.5,2.6c-2,0-3.8-0.8-5.1-2.2c-0.4-0.4-0.8-0.9-1.1-1.5c1.8-1.3,6.1-4.3,13.4-4.2
				c4.1,0.1,7.3,1,9.2,1.9v3.3V310z"/>
			<rect x="214.7" y="124.8" class="st7" width="7.1" height="8.8"/>
			<polygon class="st7" points="215.3,212.7 215.3,229.2 209.9,234.5 209.9,212.7 			"/>
			<path class="st29" d="M224.8,140.3c-1.6,0-3-1.3-3-3v-3.8v-8.8v-3.8c0-1.7,1.4-3,3-3h0.4c1.7,0,3,1.3,3,3v3.8v8.8v3.8
				c0,1.7-1.3,3-3,3H224.8z"/>
			<path class="st28" d="M311.1,335.9c0-2.6,2.1-4.7,4.7-4.7c2.6,0,4.7,2.1,4.7,4.7c0,2.6-2.1,4.7-4.7,4.7
				C313.2,340.6,311.1,338.5,311.1,335.9z"/>
			<path class="st28" d="M250,150.2c4.4,0,8,3.6,8,8c0,3.6-2.4,6.6-5.6,7.7c-0.8,0.2-1.6,0.4-2.4,0.4s-1.6-0.1-2.4-0.4
				c-3.2-1-5.6-4.1-5.6-7.7C242,153.8,245.6,150.2,250,150.2z"/>
			<path class="st29" d="M252.7,193.5c1,1,0.3,2.6-1.1,2.6h-3c-1.4,0-2.2-1.6-1.1-2.6l1.5-1.4c0.6-0.6,1.7-0.6,2.3,0L252.7,193.5z"
				/>
			<path class="st6" d="M268.5,342.4c8.2,8.2,14.7,14.7,21.2,21.2v6.3c0,2.1-1.7,3.9-3.9,3.9h-1.1h-16.5H267c-2.1,0-3.8-1.7-3.8-3.9
				v-27.5H268.5z"/>
			<polygon class="st5" points="299.8,212.7 299.8,243.6 299.2,243.6 290.1,234.5 290.1,212.7 			"/>
			<path class="st8" d="M191.1,263.1h0.2h8.7c2.2,0,3.9,1.8,3.9,3.9v41.4l0,0.1c-4.3,0.2-8.3,1.1-12.2,2.5c-0.2-0.2-0.5-0.5-0.7-0.7
				V310v-0.1v-3.3v-13.4v-14V263.1z M200.4,276.2v-6.8c0-1.1-0.9-1.9-1.9-1.9c-0.5,0-1,0.2-1.4,0.6c-0.3,0.4-0.6,0.8-0.6,1.4v6.8
				c0,1.1,0.9,1.9,1.9,1.9S200.4,277.3,200.4,276.2z"/>
			<path class="st8" d="M173.6,293.2l17.5-14v14v13.4c-1.9-0.9-5.1-1.8-9.2-1.9c-7.3-0.1-11.7,2.8-13.4,4.2c-0.6-1-0.9-2.1-0.9-3.4
				L173.6,293.2z"/>
			<path class="st10" d="M238,170.8v8.6l0-8.8C238,170.7,238,170.8,238,170.8z"/>
			<path class="st29" d="M372,183l-4,4h0l-2.1-2.1c-1.1-1.1-1.1-2.9,0-4.1s2.9-1.1,4.1,0L372,183z"/>
			<path class="st7" d="M247.3,193.5c-1,1-0.3,2.6,1.1,2.6h-0.7c-1.7,0-2.5,1.9-1.3,3l2.2,2.1c0.7,0.7,1.9,0.7,2.7,0l2.2-2.1
				c1.2-1.1,0.3-3-1.3-3h-0.7c1.4,0,2.2-1.6,1.1-2.6l-1.5-1.4c-0.6-0.6-1.7-0.6-2.3,0L247.3,193.5z M273.1,256.6l14.9,51.8h-19.6
				v-54.9v-36.2c0-1.8-0.9-3.4-2.4-4.3l-6.6-4.1c-0.2-0.1-0.5-0.2-0.8-0.2h-17.5c-0.3,0-0.5,0.1-0.8,0.2l-6.6,4.1
				c-1.5,0.9-2.4,2.6-2.4,4.3v36.2v54.9h-19.6l14.9-51.8c0.5-1.8,0.8-3.8,0.8-5.7v-19.9v-15c0-1.1,0.3-2.1,1-2.9l8.2-11.2l0.4-0.6
				l11.6-17.6c0.6-0.9,1.8-0.9,2.4,0l11.6,17.6l0.4,0.6l8.2,11.2c0.6,0.9,1,1.9,1,2.9v15V251C272.4,252.9,272.6,254.8,273.1,256.6z"
				/>
			<path class="st8" d="M308.9,293.2v-14l17.5,14l6,12.3c0,1.2-0.3,2.4-0.9,3.4c-1.8-1.3-6.1-4.3-13.4-4.2c-4.1,0.1-7.3,1-9.2,1.9
				V293.2z"/>
			<polygon class="st29" points="172.1,386.7 162.3,386.7 162.3,376.9 			"/>
			<path class="st8" d="M179.4,335.9c0,2.6,2.1,4.7,4.7,4.7s4.7-2.1,4.7-4.7c0-2.6-2.1-4.7-4.7-4.7S179.4,333.2,179.4,335.9z
				 M191.8,311c3.9-1.4,7.9-2.2,12.2-2.5c0.9,0,1.7-0.1,2.6-0.1h5.3h19.6v11.7v6.6l-39.7,39.7l-12.1,20.2h-7.6l-9.8-9.8v-24.2
				C162.3,333.4,174.6,317,191.8,311z M191.4,322.5c-1.4,0-2.5,1.1-2.5,2.5c0,1.4,1.1,2.5,2.5,2.5c1.4,0,2.5-1.1,2.5-2.5
				C193.9,323.7,192.8,322.5,191.4,322.5z"/>
			<path class="st29" d="M200.4,269.4v6.8c0,1.1-0.9,1.9-1.9,1.9s-1.9-0.9-1.9-1.9v-6.8c0-0.5,0.2-1,0.6-1.4
				c0.4-0.3,0.8-0.6,1.4-0.6C199.6,267.5,200.4,268.3,200.4,269.4z"/>
			<path class="st28" d="M184.2,331.1c2.6,0,4.7,2.1,4.7,4.7c0,2.6-2.1,4.7-4.7,4.7s-4.7-2.1-4.7-4.7
				C179.4,333.2,181.6,331.1,184.2,331.1z"/>
			<polygon class="st5" points="191.1,254.2 191.1,263.1 134.2,206.2 130.3,193.4 			"/>
			<polygon class="st7" points="305.1,212.7 305.1,249.6 299.2,243.6 299.8,243.6 299.8,212.7 			"/>
			<path class="st28" d="M191.4,327.6c-1.4,0-2.5-1.1-2.5-2.5c0-1.4,1.1-2.5,2.5-2.5c1.4,0,2.5,1.1,2.5,2.5
				C193.9,326.4,192.8,327.6,191.4,327.6z"/>
			<path class="st8" d="M308.9,309.8v0.1v0.3c-0.2,0.2-0.5,0.5-0.7,0.7c-3.9-1.4-7.9-2.2-12.2-2.5l0-0.1V267c0-2.2,1.8-3.9,3.9-3.9
				h8.7h0.2v16.1v14v13.4V309.8z M303.4,276.2v-6.8c0-0.5-0.2-1-0.6-1.4c-0.3-0.3-0.8-0.6-1.4-0.6c-1.1,0-1.9,0.9-1.9,1.9v6.8
				c0,1.1,0.9,1.9,1.9,1.9S303.4,277.3,303.4,276.2z"/>
			<path class="st29" d="M235.4,102.6v6.1c-3.1,0-5.6-2.3-6-5.2C231.3,102.9,233.3,102.6,235.4,102.6L235.4,102.6z"/>
			<path class="st39" d="M291.9,381v2.4h-31V381c0-4,3.3-7.3,7.3-7.3h16.5C288.7,373.7,291.9,377,291.9,381z"/>
			<path class="st6" d="M236.8,342.4v27.5c0,2.1-1.7,3.9-3.9,3.9h-1.1h-16.5h-1.1c-2.1,0-3.9-1.7-3.9-3.9v-6.3
				c6.4-6.4,12.9-12.9,21.2-21.2H236.8z"/>
			<path class="st29" d="M264.6,108.7v-6.1l6,0.9C270.2,106.4,267.7,108.7,264.6,108.7z"/>
			<path class="st6" d="M235.4,133.6v27.3h-3.6c-3.4-3.4-6.1-6.1-8.8-8.8c-2.5-2.5-5.1-5.1-8.3-8.3v-10.2h7.1v3.8c0,1.7,1.4,3,3,3
				h0.4c1.7,0,3-1.3,3-3v-3.8H235.4z"/>
			<polygon class="st6" points="264.6,102.6 264.6,102.6 264.6,108.7 264.6,108.7 			"/>
			<path class="st6" d="M247.2,179.6c1.4,0,2.6-1.2,2.6-2.6v-5.8c0-1.5-1.2-2.6-2.6-2.6h-1.3c-1.4,0-2.5,1-2.6,2.4v-2.1
				c0-0.7-0.3-1.4-0.8-1.9c-0.5-0.5-1.1-0.8-1.9-0.8c-1.5,0-2.6,1.2-2.6,2.6v1.7c-0.1-0.6-0.3-1.2-0.8-1.6c-0.5-0.5-1.1-0.8-1.9-0.8
				c-1.5,0-2.6,1.2-2.6,2.6v16.5c0,1.4,1.2,2.6,2.6,2.6c1.4,0,2.6-1.2,2.6-2.6v-7.9c0,1.4,1.2,2.6,2.6,2.6c1.4,0,2.6-1.2,2.6-2.6
				v-2.3c0,1.4,1.2,2.6,2.6,2.6H247.2z M252.4,165.8c3.3-1,5.7-4.1,5.7-7.8v-43.4h3.4h3.1v-6h0v16.2h0v8.8h0v27.3h3.6
				c3.4-3.4,6.1-6.1,8.8-8.8v67.4v2l1,1l6.7,6.7l5.3,5.3l9.1,9.1l6,6l3.7,3.7l-0.2,0.2h0.2v0.6v8.9h-0.2h-8.7
				c-2.2,0-3.9,1.8-3.9,3.9v41.4l0,0.1c-0.9,0-1.7-0.1-2.6-0.1h-5.3l-14.9-51.8c-0.5-1.8-0.8-3.8-0.8-5.7v-19.9v-15
				c0-1.1-0.3-2.1-1-2.9l-8.2-11.2l-0.4-0.6l-11.6-17.6c-0.6-0.9-1.8-0.9-2.4,0l-11.6,17.6l-0.4,0.6l-8.2,11.2c-0.6,0.9-1,1.9-1,2.9
				v15V251c0,1.9-0.3,3.8-0.8,5.7l-14.9,51.8h-5.3c-0.9,0-1.8,0-2.6,0.1l0-0.1V267c0-2.2-1.8-3.9-3.9-3.9h-8.7h-0.2v-8.9v-0.6v-0.2
				l3.7-3.7l6-6l9.1-9.1l5.4-5.3l6.4-6.4l1.3-1.3v-2v-67.4c2.7,2.7,5.4,5.3,8.8,8.8h3.6v-27.3v-8.8v-10.1h4.3h2.1v43.4
				c0,3.7,2.4,6.7,5.7,7.8c0.8,0.2,1.6,0.4,2.4,0.4S251.6,166.1,252.4,165.8z M264.6,168.2c-1.4,0-2.6,1.2-2.6,2.6v16.5
				c0,1.4,1.2,2.6,2.6,2.6c1.5,0,2.6-1.2,2.6-2.6v-16.5c0-0.7-0.3-1.4-0.8-1.9C266,168.5,265.3,168.2,264.6,168.2z M254.1,168.6
				h-1.5c-1.4,0-2.6,1.2-2.6,2.6v5.8c0,1.4,1.2,2.6,2.6,2.6h1.5c1.5,0,2.6-1.2,2.6-2.6v2.4c0,1.4,1.2,2.6,2.6,2.6
				c1.5,0,2.6-1.2,2.6-2.6v-10.6c0-0.7-0.3-1.4-0.8-1.9c-0.5-0.5-1.1-0.8-1.9-0.8c-1.4,0-2.6,1.2-2.6,2.6v2.4
				C256.8,169.8,255.6,168.6,254.1,168.6z"/>
			<path class="st8" d="M315.8,331.1c-2.6,0-4.7,2.1-4.7,4.7c0,2.6,2.1,4.7,4.7,4.7c2.6,0,4.7-2.1,4.7-4.7
				C320.6,333.2,318.5,331.1,315.8,331.1z M268.5,308.4h19.6h5.3c0.9,0,1.8,0,2.6,0.1c4.3,0.2,8.4,1.1,12.2,2.5
				c17.2,6.1,29.5,22.5,29.5,41.8v24.2l-9.8,9.8h-7.6l-12.1-20.2l-39.8-39.8v-6.6V308.4z M311.1,325.1c0-1.4-1.1-2.5-2.5-2.5
				c-1.4,0-2.5,1.1-2.5,2.5c0,1.4,1.1,2.5,2.5,2.5C310,327.6,311.1,326.4,311.1,325.1z"/>
			<path class="st6" d="M235.4,114.7v10.1h-7.2v-3.8c0-1.7-1.3-3-3-3h-0.4c-1.6,0-3,1.3-3,3v3.8h-7.1v-1.6c0-9.3,6.2-17.2,14.7-19.8
				c0.4,2.9,3,5.2,6,5.2V114.7z"/>
			<path class="st29" d="M134.2,180.9c1.1,1.1,1.1,2.9,0,4.1l-2.1,2.1h0l-4.1-4l2.1-2.1C131.2,179.7,133,179.7,134.2,180.9z"/>
			<path class="st5" d="M231.5,335.5v6.9c-8.2,8.2-14.7,14.7-21.2,21.2c-7.1,7.1-14.1,14.1-23.1,23.1h-7.6l12.1-20.2l39.7-39.7
				V335.5z"/>
			<path class="st5" d="M378.2,189.1L395,206c0,3.1,0,5.7,0,8.1l-23-23l-4-4.1l4-4L378.2,189.1z"/>
			<path class="st29" d="M247.2,388.8h5.6c-1.6,5.5-2.8,8.7-2.8,8.7S248.8,394.3,247.2,388.8z"/>
			<polygon class="st5" points="200.2,243.6 200.2,212.7 209.9,212.7 209.9,234.5 200.8,243.6 			"/>
			<path class="st39" d="M215.3,211v1.7h-20.4V211c2.2-2.2,3.4-3.4,5.6-5.6h9.2C211.8,207.5,213.1,208.8,215.3,211z"/>
			<rect x="264.6" y="124.8" class="st7" width="0" height="8.8"/>
			<path class="st6" d="M264.6,160.9v-27.3h7.1v3.8c0,1.7,1.3,3,3,3h0.4c1.6,0,3-1.3,3-3v-3.8h7.1v10.2c-3.3,3.2-5.8,5.8-8.3,8.3
				c-2.7,2.7-5.4,5.3-8.8,8.8H264.6z"/>
			<path class="st5" d="M376,243l-36.3,36.7L332,272c-1.6-1.6-1.6-4.3,0-6l30.5-30.5c1.6-1.6,4.3-1.6,6,0l1.7,1.7L376,243z"/>
			<path class="st29" d="M239.8,257.1h20.4c2.2,0,3.9,1.8,3.9,3.9c0,1.1-0.4,2.1-1.1,2.8c-0.7,0.7-1.7,1.1-2.8,1.1h-20.4
				c-2.2,0-3.9-1.8-3.9-3.9c0-1.1,0.4-2.1,1.1-2.8C237.7,257.5,238.7,257.1,239.8,257.1z"/>
			<polygon class="st5" points="308.9,263.1 308.9,254.2 369.7,193.4 365.8,206.2 			"/>
			<polygon class="st29" points="337.7,376.9 337.7,386.7 327.9,386.7 			"/>
		</g>
		<g>
			<path class="st41" d="M308.9,310v0.3c-0.2,0.2-0.5,0.5-0.7,0.7"/>
			<path class="st41" d="M191.1,310v0.3c0.2,0.2,0.5,0.5,0.7,0.7"/>
			<line class="st41" x1="191.1" y1="253.6" x2="191.1" y2="254.2"/>
			<polyline class="st41" points="308.7,253.6 308.9,253.6 308.9,254.2 			"/>
			<line class="st41" x1="223" y1="219.4" x2="223" y2="152.1"/>
			<line class="st41" x1="277" y1="219.4" x2="277" y2="152.1"/>
			<path class="st41" d="M285.3,133.6v10.2c-3.3,3.2-5.8,5.8-8.3,8.3c-2.7,2.7-5.4,5.3-8.8,8.8h-3.6v-27.3v-8.8v-16.2v-6.1l6,0.9
				l8.6,5.2c3.7,3.8,6.1,8.9,6.1,14.6v1.6"/>
			<polyline class="st41" points="264.6,102.6 264.6,108.7 264.6,114.7 261.5,114.7 			"/>
			<line class="st41" x1="264.6" y1="102.6" x2="264.6" y2="102.6"/>
			<line class="st41" x1="235.4" y1="102.6" x2="235.4" y2="102.6"/>
			<line class="st41" x1="239.7" y1="114.7" x2="235.4" y2="114.7"/>
			<path class="st41" d="M261.5,114.7h-3.4c-0.7,3.8-4.1,6.7-8.1,6.7s-7.4-2.9-8.1-6.7h-2.1"/>
			<path class="st41" d="M247.6,165.8c-3.3-1-5.7-4.1-5.7-7.8v-43.4"/>
			<path class="st41" d="M258.1,114.7v43.4c0,3.7-2.4,6.7-5.7,7.8"/>
			<path class="st41" d="M252.4,165.8c3.2-1,5.6-4.1,5.6-7.7c0-4.4-3.6-8-8-8s-8,3.6-8,8c0,3.6,2.4,6.6,5.6,7.7
				c0.8,0.2,1.6,0.4,2.4,0.4S251.6,166.1,252.4,165.8z"/>
			<path class="st41" d="M242.7,253.6v-43.5c0-0.8-0.7-1.4-1.4-1.4c-0.3,0-0.5,0.1-0.8,0.2l-6.6,4.1c-1.5,0.9-2.4,2.6-2.4,4.3v36.2"
				/>
			<path class="st41" d="M257.3,253.6v-43.5c0-0.8,0.7-1.4,1.4-1.4c0.3,0,0.5,0.1,0.8,0.2l6.6,4.1c1.5,0.9,2.4,2.6,2.4,4.3v36.2"/>
			<polyline class="st41" points="278,222.5 284.7,229.2 290.1,234.5 299.2,243.6 305.1,249.6 308.9,253.3 			"/>
			<line class="st41" x1="276.7" y1="221.1" x2="277" y2="221.5"/>
			<polyline class="st41" points="277,219.4 277,221.5 278,222.5 			"/>
			<line class="st41" x1="223" y1="221.5" x2="223.3" y2="221.1"/>
			<polyline class="st41" points="191.1,253.3 194.9,249.6 200.8,243.6 209.9,234.5 215.3,229.2 221.7,222.8 			"/>
			<path class="st41" d="M240.4,335.5c1-28.7,9.6-51.2,9.6-51.2s8.6,22.5,9.6,51.2"/>
			<path class="st41" d="M231.5,320.1c1.4-21.2,10.8-39,15.6-46.9c1.3-2.1,4.4-2.1,5.7,0c4.8,7.9,14.2,25.7,15.6,46.9"/>
			<polyline class="st41" points="268.5,308.4 268.5,253.6 257.3,253.6 242.7,253.6 231.5,253.6 231.5,308.4 			"/>
			<path class="st41" d="M240.4,335.5c-0.1,1.8-0.1,3.6-0.1,5.4c0,0.5,0,1,0,1.5c0.1,9.6,1.1,18.7,2.4,26.6c0.6,3.4,1.2,6.5,1.9,9.4
				c0.9,4,1.8,7.5,2.6,10.4c1.6,5.5,2.8,8.7,2.8,8.7s1.2-3.2,2.8-8.7c0.8-2.9,1.7-6.4,2.6-10.4c0.7-2.9,1.3-6.1,1.9-9.4
				c1.3-7.9,2.3-16.9,2.4-26.6c0-0.5,0-1,0-1.5c0-1.8,0-3.6-0.1-5.4"/>
			<path class="st41" d="M337.7,376.9v9.8h-9.8h-7.6h-7.6c-9.1-9.1-16.1-16.1-23.1-23.1c-6.4-6.4-12.9-12.9-21.2-21.2v-6.9v-8.8
				v-6.6v-11.7h19.6h5.3c0.9,0,1.8,0,2.6,0.1c4.3,0.2,8.4,1.1,12.2,2.5c17.2,6.1,29.5,22.5,29.5,41.8V376.9z"/>
			<line class="st41" x1="263.2" y1="342.4" x2="259.7" y2="342.4"/>
			<line class="st41" x1="240.3" y1="342.4" x2="236.8" y2="342.4"/>
			<path class="st41" d="M215.4,373.7h-1.1c-2.1,0-3.9-1.7-3.9-3.9v-6.3"/>
			<path class="st41" d="M231.5,342.4h5.3v27.5c0,2.1-1.7,3.9-3.9,3.9h-1.1"/>
			<path class="st41" d="M231.9,373.7c4,0,7.3,3.3,7.3,7.3v2.4h-31.1V381c0-4,3.3-7.3,7.3-7.3H231.9z"/>
			<path class="st41" d="M284.6,373.7h1.1c2.1,0,3.9-1.7,3.9-3.9v-6.3"/>
			<path class="st41" d="M268.5,342.4h-5.3v27.5c0,2.1,1.7,3.9,3.8,3.9h1.1"/>
			<path class="st41" d="M284.6,373.7c4,0,7.3,3.3,7.3,7.3v2.4h-31V381c0-4,3.3-7.3,7.3-7.3H284.6z"/>
			<polyline class="st41" points="223,219.4 223,221.5 221.7,222.8 			"/>
			<polyline class="st41" points="240.9,208.7 241.3,208.7 258.8,208.7 258.9,208.7 			"/>
			<path class="st41" d="M263.2,202.1l-0.1-0.1l-0.4-0.6l-11.6-17.6c-0.6-0.9-1.8-0.9-2.4,0l-11.6,17.6l-0.4,0.6l-0.1,0.2"/>
			<path class="st41" d="M236.8,202l-8.2,11.2c-0.6,0.9-1,1.9-1,2.9v15V251c0,1.9-0.3,3.8-0.8,5.7l-14.9,51.8"/>
			<path class="st41" d="M263.2,202l8.2,11.2c0.6,0.9,1,1.9,1,2.9v15V251c0,1.9,0.3,3.8,0.8,5.7l14.9,51.8"/>
			<path class="st41" d="M367.9,187l4,4.1l-2.3,2.3l-60.8,60.8v8.9v16.1v14v13.4v3.3v0.1l16.5,2.6c2,0,3.8-0.8,5.1-2.2
				c0.4-0.4,0.8-0.9,1.1-1.5c0.5-1,0.9-2.1,0.9-3.4l-6-12.3l13.3-13.5L376,243l6.6-6.6l-2.3-8.8l8.8,2.3l6-6c0-3.9,0-6.8,0-9.9
				c0-2.4,0-5,0-8.1l-16.8-16.8L372,183l-2.1-2.1c-1.1-1.1-2.9-1.1-4.1,0s-1.1,2.9,0,4.1L367.9,187"/>
			<line class="st41" x1="308.9" y1="279.2" x2="326.4" y2="293.2"/>
			<line class="st41" x1="191.1" y1="279.2" x2="173.6" y2="293.2"/>
			<path class="st41" d="M376,243l-5.9-5.9l-1.7-1.7c-1.6-1.6-4.3-1.6-6,0L332,266c-1.6,1.6-1.6,4.3,0,6l7.8,7.8"/>
			<line class="st41" x1="337.7" y1="376.9" x2="327.9" y2="386.7"/>
			<path class="st41" d="M162.3,376.9v9.8h9.8h7.6h7.6c9.1-9.1,16-16.1,23.1-23.1c6.4-6.4,12.9-12.9,21.2-21.2v-6.9v-8.8v-6.6v-11.7
				h-19.6h-5.3c-0.9,0-1.8,0-2.6,0.1c-4.3,0.2-8.3,1.1-12.2,2.5c-17.2,6.1-29.5,22.5-29.5,41.8V376.9z"/>
			<line class="st41" x1="172.1" y1="386.7" x2="162.3" y2="376.9"/>
			<line class="st41" x1="252.8" y1="388.8" x2="247.2" y2="388.8"/>
			<path class="st41" d="M264.6,189.9c-1.4,0-2.6-1.2-2.6-2.6v-16.5c0-1.4,1.2-2.6,2.6-2.6c0.7,0,1.4,0.3,1.9,0.8
				c0.5,0.5,0.8,1.1,0.8,1.9v16.5C267.3,188.8,266.1,189.9,264.6,189.9z"/>
			<path class="st41" d="M256.8,171.2v-2.4c0-1.4,1.2-2.6,2.6-2.6c0.7,0,1.4,0.3,1.9,0.8c0.5,0.5,0.8,1.1,0.8,1.9v10.6
				c0,1.4-1.2,2.6-2.6,2.6c-1.4,0-2.6-1.2-2.6-2.6V177"/>
			<path class="st41" d="M256.8,177c0,1.4-1.2,2.6-2.6,2.6h-1.5c-1.4,0-2.6-1.2-2.6-2.6v-5.8c0-1.5,1.2-2.6,2.6-2.6h1.5
				c1.5,0,2.6,1.2,2.6,2.6V177z"/>
			<path class="st41" d="M238,170.6c0,0.1,0,0.1,0,0.2v8.6v7.9c0,1.4-1.2,2.6-2.6,2.6c-1.5,0-2.6-1.2-2.6-2.6v-16.5
				c0-1.4,1.2-2.6,2.6-2.6c0.7,0,1.4,0.3,1.9,0.8C237.7,169.4,237.9,169.9,238,170.6"/>
			<line class="st41" x1="243.3" y1="171" x2="243.3" y2="177"/>
			<path class="st41" d="M238,170.6L238,170.6v-1.8c0-1.4,1.2-2.6,2.6-2.6c0.7,0,1.4,0.3,1.9,0.8c0.5,0.5,0.8,1.1,0.8,1.9v2.1"/>
			<path class="st41" d="M243.3,177.1v2.3c0,1.4-1.2,2.6-2.6,2.6c-1.5,0-2.6-1.2-2.6-2.6"/>
			<path class="st41" d="M243.3,170.9c0.1-1.3,1.3-2.4,2.6-2.4h1.3c1.4,0,2.6,1.2,2.6,2.6v5.8c0,1.4-1.2,2.6-2.6,2.6h-1.3
				c-1.4,0-2.6-1.1-2.6-2.6c0,0,0,0,0-0.1v-5.8C243.3,171.1,243.3,171.1,243.3,170.9C243.3,171,243.3,171,243.3,170.9z"/>
			<path class="st41" d="M296,308.4V267c0-2.2,1.8-3.9,3.9-3.9h8.7"/>
			<path class="st41" d="M301.5,278.1c-1.1,0-1.9-0.9-1.9-1.9v-6.8c0-1.1,0.9-1.9,1.9-1.9c0.5,0,1,0.2,1.4,0.6
				c0.3,0.4,0.6,0.8,0.6,1.4v6.8C303.4,277.3,302.6,278.1,301.5,278.1z"/>
			<path class="st41" d="M191.3,263.1h8.7c2.2,0,3.9,1.8,3.9,3.9v41.4"/>
			<path class="st41" d="M198.5,278.1c1.1,0,1.9-0.9,1.9-1.9v-6.8c0-1.1-0.9-1.9-1.9-1.9c-0.5,0-1,0.2-1.4,0.6
				c-0.3,0.4-0.6,0.8-0.6,1.4v6.8C196.6,277.3,197.4,278.1,198.5,278.1z"/>
			<line class="st41" x1="284.7" y1="212.7" x2="284.7" y2="229.2"/>
			<line class="st41" x1="305.1" y1="212.7" x2="284.7" y2="212.7"/>
			<line class="st41" x1="305.1" y1="249.6" x2="305.1" y2="212.7"/>
			<path class="st41" d="M290.1,212.7h-5.3v0V211c2.2-2.2,3.4-3.4,5.6-5.6h9.2c2.2,2.2,3.4,3.4,5.6,5.6v1.7v0h-5.4"/>
			<polyline class="st41" points="299.2,243.6 299.8,243.6 299.8,212.7 290.1,212.7 290.1,234.5 			"/>
			<line class="st41" x1="194.9" y1="212.7" x2="194.9" y2="249.6"/>
			<line class="st41" x1="215.3" y1="212.7" x2="194.9" y2="212.7"/>
			<line class="st41" x1="215.3" y1="229.2" x2="215.3" y2="212.7"/>
			<path class="st41" d="M209.9,212.7h5.4v0V211c-2.2-2.2-3.4-3.4-5.6-5.6h-9.2c-2.2,2.2-3.4,3.4-5.6,5.6v1.7v0h5.3"/>
			<polyline class="st41" points="209.9,234.5 209.9,212.7 200.2,212.7 200.2,243.6 200.8,243.6 			"/>
			<polyline class="st41" points="179.7,386.7 191.8,366.5 231.5,326.8 231.6,326.7 			"/>
			<polyline class="st41" points="320.4,386.7 308.2,366.5 268.5,326.7 			"/>
			<path class="st41" d="M311.1,325.1c0,1.4-1.1,2.5-2.5,2.5c-1.4,0-2.5-1.1-2.5-2.5c0-1.4,1.1-2.5,2.5-2.5
				C310,322.5,311.1,323.7,311.1,325.1z"/>
			<path class="st41" d="M320.6,335.9c0,2.6-2.1,4.7-4.7,4.7c-2.6,0-4.7-2.1-4.7-4.7c0-2.6,2.1-4.7,4.7-4.7
				C318.5,331.1,320.6,333.2,320.6,335.9z"/>
			<path class="st41" d="M188.9,325.1c0,1.4,1.1,2.5,2.5,2.5c1.4,0,2.5-1.1,2.5-2.5c0-1.4-1.1-2.5-2.5-2.5
				C190,322.5,188.9,323.7,188.9,325.1z"/>
			<path class="st41" d="M179.4,335.9c0,2.6,2.1,4.7,4.7,4.7s4.7-2.1,4.7-4.7c0-2.6-2.1-4.7-4.7-4.7S179.4,333.2,179.4,335.9z"/>
			<polyline class="st41" points="308.9,263.1 365.8,206.2 369.7,193.4 			"/>
			<polyline class="st41" points="372,191.1 395,214.1 395,214.1 			"/>
			<polyline class="st41" points="372,183 367.9,187 367.9,187 			"/>
			<path class="st41" d="M331.5,308.9c-1.8-1.3-6.1-4.3-13.4-4.2c-4.1,0.1-7.3,1-9.2,1.9"/>
			<path class="st41" d="M132.1,187l-4.1,4.1l2.3,2.3l60.8,60.8v8.9v16.1v14v13.4v3.3v0.1l-16.5,2.6c-2,0-3.8-0.8-5.1-2.2
				c-0.4-0.4-0.8-0.9-1.1-1.5c-0.6-1-0.9-2.1-0.9-3.4l6-12.3l-13.3-13.5L124,243l-6.6-6.6l2.3-8.8L111,230l-6-6c0-3.9,0-6.8,0-9.9
				c0-2.4,0-5,0-8.1l16.8-16.8l6.2-6.2l2.1-2.1c1.1-1.1,2.9-1.1,4.1,0c1.1,1.1,1.1,2.9,0,4.1L132.1,187"/>
			<path class="st41" d="M124,243l5.9-5.9l1.7-1.7c1.6-1.6,4.3-1.6,6,0L168,266c1.6,1.6,1.6,4.3,0,6l-7.8,7.8"/>
			<polyline class="st41" points="191.1,263.1 134.2,206.2 130.3,193.4 			"/>
			<polyline class="st41" points="128,191.1 105,214.1 105,214.1 			"/>
			<polyline class="st41" points="128,183 132.1,187 132.1,187 			"/>
			<path class="st41" d="M168.5,308.9c1.8-1.3,6.1-4.3,13.4-4.2c4.1,0.1,7.3,1,9.2,1.9"/>
			<path class="st41" d="M248.5,196.1c-1.4,0-2.2-1.6-1.1-2.6l1.5-1.4c0.6-0.6,1.7-0.6,2.3,0l1.5,1.4c1,1,0.3,2.6-1.1,2.6"/>
			<path class="st41" d="M251.5,196.1h0.7c1.7,0,2.5,1.9,1.3,3l-2.2,2.1c-0.7,0.7-1.9,0.7-2.7,0l-2.2-2.1c-1.2-1.1-0.3-3,1.3-3h0.7
				H251.5z"/>
			<path class="st41" d="M264.6,108.7L264.6,108.7c3.1,0,5.6-2.3,6-5.2"/>
			<polyline class="st41" points="278.2,124.8 285.3,124.8 285.3,133.6 278.2,133.6 			"/>
			<polyline class="st41" points="271.8,133.6 264.6,133.6 264.6,133.6 264.6,124.8 264.6,124.8 271.8,124.8 			"/>
			<path class="st41" d="M278.2,133.6v3.8c0,1.7-1.4,3-3,3h-0.4c-1.7,0-3-1.3-3-3v-3.8v-8.8v-3.8c0-1.7,1.3-3,3-3h0.4
				c1.6,0,3,1.3,3,3v3.8V133.6z"/>
			<path class="st41" d="M214.7,133.6v10.2c3.3,3.2,5.8,5.8,8.3,8.3c2.7,2.7,5.4,5.3,8.8,8.8h3.6v-27.3"/>
			<path class="st41" d="M235.4,124.8v-10.1v-6v-6.1v0h0c-2.1,0-4.1,0.3-6,0.9c-8.5,2.6-14.7,10.5-14.7,19.8v1.6"/>
			<path class="st41" d="M229.4,103.4c0.4,2.9,3,5.2,6,5.2"/>
			<polyline class="st41" points="221.8,133.6 214.7,133.6 214.7,124.8 221.8,124.8 			"/>
			<polyline class="st41" points="228.2,124.8 235.4,124.8 235.4,133.6 228.2,133.6 			"/>
			<path class="st41" d="M221.8,133.6v3.8c0,1.7,1.4,3,3,3h0.4c1.7,0,3-1.3,3-3v-3.8v-8.8v-3.8c0-1.7-1.3-3-3-3h-0.4
				c-1.6,0-3,1.3-3,3v3.8V133.6z"/>
			<path class="st41" d="M260.2,264.9h-20.4c-2.2,0-3.9-1.8-3.9-3.9c0-1.1,0.4-2.1,1.1-2.8c0.7-0.7,1.7-1.2,2.8-1.2h20.4
				c2.2,0,3.9,1.8,3.9,3.9c0,1.1-0.4,2.1-1.1,2.8C262.3,264.5,261.3,264.9,260.2,264.9z"/>
		</g>
	</g>
</g>
</svg>
