<?xml version="1.0" encoding="utf-8"?>
<!-- Generator: Adobe Illustrator 22.0.1, SVG Export Plug-In . SVG Version: 6.00 Build 0)  -->
<svg version="1.1" xmlns="http://www.w3.org/2000/svg" xmlns:xlink="http://www.w3.org/1999/xlink" x="0px" y="0px"
	 viewBox="0 0 500 500" style="enable-background:new 0 0 500 500;" xml:space="preserve">
<style type="text/css">
	.st0{display:none;}
	.st1{display:inline;fill:url(#SVGID_1_);}
	.st2{fill:#FFFFFF;}
	.st3{fill:#420102;}
	.st4{fill:#130000;}
	.st5{fill:#212121;}
	.st6{fill:#292929;}
	.st7{fill:#363636;}
	.st8{fill:#404040;}
	.st9{fill:#BF1533;}
	.st10{fill:#9A0419;}
	.st11{fill:#590000;}
	.st12{fill:#EE8900;}
	.st13{fill:#FCA600;}
	.st14{fill:#D23600;}
	.st15{fill:#D95100;}
	.st16{fill:#DE6D00;}
	.st17{fill:#FFBB00;}
	.st18{fill:#FFE554;}
	.st19{fill:#D19419;}
	.st20{fill:#FFCA01;}
	.st21{fill:#45BF55;}
	.st22{fill:#97ED8A;}
	.st23{fill:#00261C;}
	.st24{fill:#044D29;}
	.st25{fill:#168039;}
	.st26{fill:#B4DCED;}
	.st27{fill:#E8F8FF;}
	.st28{fill:#3399CC;}
	.st29{fill:#91C9E8;}
	.st30{fill:#446E9E;}
	.st31{fill:#335377;}
	.st32{fill:#233951;}
	.st33{fill:#5F9ADD;}
	.st34{fill:#3E6591;}
	.st35{fill:#7B52AB;}
	.st36{fill:#9768D1;}
	.st37{fill:#25064C;}
	.st38{fill:#36175E;}
	.st39{fill:#1C1C1C;}
	.st40{fill:none;stroke:#000000;stroke-width:2;stroke-miterlimit:10;}
	.st41{fill:#7B52AB;stroke:#000000;stroke-miterlimit:10;}
	.st42{fill:#212121;stroke:#000000;stroke-miterlimit:10;}
	.st43{fill:#363636;stroke:#000000;stroke-miterlimit:10;}
	.st44{fill:#404040;stroke:#000000;stroke-miterlimit:10;}
	.st45{fill:#1C1C1C;stroke:#000000;stroke-miterlimit:10;}
	.st46{fill:#36175E;stroke:#000000;stroke-miterlimit:10;}
	.st47{fill:#FFFFFF;stroke:#000000;stroke-miterlimit:10;}
	.st48{display:inline;}
	.st49{fill:none;stroke:#212121;stroke-width:2;stroke-miterlimit:10;}
</style>
<g id="BG" class="st0">
	<linearGradient id="SVGID_1_" gradientUnits="userSpaceOnUse" x1="153.0388" y1="160.7842" x2="491.0388" y2="471.7842">
		<stop  offset="0" style="stop-color:#080219"/>
		<stop  offset="1" style="stop-color:#140426"/>
	</linearGradient>
	<rect class="st1" width="500" height="500"/>
</g>
<g id="Ideas">
</g>
<g id="Tools">
</g>
<g id="Spaceship1">
	<g>
		<g id="XMLID_1_">
			<g>
				<path class="st9" d="M439.6,265l6.7,1.8c-2.3,1.5-4.6,2.9-6.7,4.3L439.6,265z"/>
				<polygon class="st5" points="439.6,265 439.6,271 437.9,272.1 437.4,272.5 435.5,273.6 434.7,271.8 357,253.8 333.5,248.4 
					332.4,248.1 300.8,240.8 290.3,238.4 290.3,226 300.8,228.8 332.5,237.1 333.5,237.3 357,243.4 434.7,263.7 				"/>
				<path class="st9" d="M434.7,271.8l0.8,1.8c-10.5,6.7-19,12.2-27.6,17.7c-9.4,6-18.8,12.1-30.7,19.7l-23-4.1l0-0.2l36-27.7
					l-43.8-17.9l-13-5.3l-43.1-17.6l10.4,2.4l31.6,7.3l1.1,0.3l23.5,5.5L434.7,271.8z"/>
				<polygon class="st7" points="390.3,279.1 354.3,306.8 354.2,307 301,297.6 290.3,297.6 290.3,238.4 333.5,256 346.5,261.3 				
					"/>
				<polygon class="st5" points="377.2,311 369.5,316 366.7,315.5 367.1,312.7 362.5,311.9 362.1,314.8 357.5,314 358,311.1 
					353.4,310.3 352.9,313.3 348.3,312.5 348.8,309.5 344.1,308.8 343.6,311.7 339,311 339.5,308 335,307.2 334.4,310.2 
					329.8,309.5 330.4,306.4 325.8,305.6 325.2,308.7 320.6,307.9 321.1,304.9 316.5,304.1 316,307.2 311.4,306.4 312,303.3 
					307.4,302.5 306.8,305.6 302.2,304.9 301.1,304.7 290.3,304.7 290.3,304 290.3,297.6 301,297.6 354.2,307 				"/>
				<polygon class="st8" points="357,216.9 357,243.4 333.5,237.3 333.5,216.9 				"/>
				<path class="st39" d="M357,214.3v2.6h-23.5v-2.6c1.9-0.9,3-1.4,4.8-2.3h13.8C354,212.9,355.1,213.4,357,214.3z"/>
				<polygon class="st7" points="341.3,339.4 332.6,345 315.9,345 290.3,359.3 286.6,361.4 272.3,369.4 272.3,361.4 272.3,353.2 
					272.3,333 272.3,322 273.4,322.3 274.2,322.5 290.3,326.6 				"/>
				<polygon class="st5" points="332.6,345 272.3,384 272.3,371.4 272.3,369.4 286.6,361.4 290.3,359.3 315.9,345 				"/>
				<polygon class="st10" points="290.3,315.5 290.3,326.6 274.2,322.5 273.4,322.3 272.3,322 272.3,316.6 290.2,304.7 290.3,304.7 
									"/>
				<polygon class="st5" points="290.3,297.6 290.3,304 290.2,304.7 277.4,304.7 277.4,282.7 276,230 275.9,226 290.3,226 
					290.3,238.4 				"/>
				<path class="st5" d="M290.3,204.4V226h-14.5l-0.6-14.1l-0.8-21.2l-1.3-32l-0.5-11.5l-0.2-9.2l3.4,10.9l11,35.6l0,0.1l0,0v0
					l1.9,6.1l0,0.1l0,0.1C289.8,195.2,290.3,199.7,290.3,204.4z"/>
				<polygon class="st5" points="290.2,304.7 272.3,316.6 272.3,311.3 272.3,304.7 277.4,304.7 				"/>
				<path class="st2" d="M288.8,190.8l-1.9-6.1v0l0,0l0-0.4C287.6,186.4,288.3,188.6,288.8,190.8z"/>
				<polygon class="st7" points="286.9,184.3 286.9,184.6 275.9,149 275.9,120.9 286.9,120.9 				"/>
				<path class="st39" d="M286.9,120.1v0.7h-11v-0.7c1.3-1.3,2-2,3.3-3.3h4.5C284.9,118.2,285.6,118.9,286.9,120.1z"/>
				<polygon class="st7" points="277.4,282.7 277.4,304.7 272.3,304.7 256.6,304.7 250,304.7 243.4,304.7 227.7,304.7 222.6,304.7 
					222.6,282.7 230.7,273.5 250,273.5 262.1,273.5 269.3,273.5 				"/>
				<polygon class="st7" points="276,230 277.4,282.7 269.3,273.5 262.1,273.5 250,273.5 250,272.6 250,226 275.3,212 275.9,226 
									"/>
				<polygon class="st7" points="274.6,194.5 275.3,212 250,226 224.7,212 225.4,194.5 230.4,190.2 230.4,190.2 240.4,181.7 
					259.6,181.7 270.2,190.7 				"/>
				<polygon class="st10" points="273.2,158.8 274.6,194.5 270.2,190.7 259.6,181.7 259.6,137.4 272.8,147.3 				"/>
				<polygon class="st5" points="272.5,138.1 272.8,147.3 272.4,137.6 				"/>
				<path class="st7" d="M272.4,137.6l0.4,9.7l-13.1-9.9h-19.3l-13.1,9.9l0-0.3l0.4-9.7v-8h0.1c0.5-6.4,5.7-11.7,12.6-13.4v13.4
					h19.3V116c6.9,1.7,12.1,7,12.6,13.4v8L272.4,137.6z"/>
				<polygon class="st2" points="272.4,137.4 272.4,137.6 272.3,137.4 				"/>
				<path class="st39" d="M272.3,369.4v2c0,3.9-3.1,7-7,7h-30.7c-3.3,0-6.1-2.3-6.8-5.4v-3.6H272.3z"/>
				<polygon class="st5" points="272.3,361.4 272.3,369.4 227.9,369.4 227.9,369.3 227.7,369.2 227.7,361.4 				"/>
				<rect x="227.7" y="353.2" class="st5" width="44.7" height="8.2"/>
				<polygon class="st5" points="272.3,333 272.3,353.2 227.7,353.2 227.7,333 272,333 				"/>
				<polygon class="st9" points="272.3,322 272.3,333 272,333 227.7,333 227.7,322 227.7,316.6 246.4,312.1 250,311.3 253.6,312.1 
					272.3,316.6 				"/>
				<polygon class="st7" points="272.3,311.3 272.3,316.6 253.6,312.1 250,311.3 246.4,312.1 227.7,316.6 227.7,311.3 227.7,304.7 
					243.4,304.7 250,304.7 256.6,304.7 272.3,304.7 				"/>
				<rect x="240.4" y="137.4" class="st9" width="19.3" height="44.3"/>
				<polygon class="st7" points="250,272.6 250,273.5 230.7,273.5 222.6,282.7 224,230 224.1,226 224.7,212 250,226 				"/>
				<polygon class="st10" points="240.4,137.4 240.4,181.7 230.4,190.2 230.4,190.2 225.4,194.5 225.6,190.2 225.6,190.2 
					227.3,147.3 				"/>
				<path class="st2" d="M227.9,373v11l-0.2-0.1v-12.5C227.7,371.9,227.7,372.5,227.9,373z"/>
				<path class="st2" d="M227.9,369.4v3.6c-0.1-0.5-0.2-1-0.2-1.6v-2H227.9z"/>
				<polygon class="st2" points="227.9,369.3 227.9,369.4 227.7,369.4 227.7,369.2 				"/>
				<polygon class="st5" points="227.7,371.4 227.7,383.9 208.4,371.4 167.6,345 184.2,344.9 209.7,359.1 227.6,369.2 227.7,369.4 
									"/>
				<polygon class="st2" points="227.7,369.2 227.7,369.4 227.6,369.2 				"/>
				<polygon class="st7" points="227.7,361.4 227.7,369.2 227.6,369.2 209.7,359.1 184.2,344.9 167.6,345 158.7,339.4 209.7,326.6 
					215.5,325.1 227.7,322 227.7,333 227.7,353.2 				"/>
				<polygon class="st10" points="227.7,316.6 227.7,322 215.5,325.1 209.7,326.6 209.7,304.7 209.9,304.9 				"/>
				<polygon class="st5" points="227.7,311.3 227.7,316.6 209.9,304.9 209.8,304.7 222.6,304.7 227.7,304.7 				"/>
				<polygon class="st5" points="227.6,137.4 227.3,147 227.5,138 				"/>
				<path class="st5" d="M227.5,138l-0.2,9.1l0,0.3l-1.7,42.9v0l-0.2,4.4l-0.7,17.4l-0.6,14.1h-14.5v-21.7c0-5,0.6-9.8,1.7-14.4
					l1.7-5.5l0-0.1l0,0l11-35.6L227.5,138z"/>
				<polygon class="st7" points="224.1,120.9 224.1,148.8 213.1,184.4 213.1,184.3 213.1,120.9 				"/>
				<path class="st39" d="M224.1,120.1v0.7h-11v-0.7c1.3-1.3,2-2,3.3-3.3h4.5C222.1,118.2,222.8,118.9,224.1,120.1z"/>
				<polygon class="st5" points="224.1,226 224,230 222.6,282.7 222.6,304.7 209.8,304.7 209.7,304 209.7,297.6 209.7,238.4 
					209.7,226 				"/>
				<path class="st2" d="M213.1,184.3l0,0.1l0,0.1l-1.7,5.5C211.9,188.1,212.4,186.1,213.1,184.3z"/>
				<polygon class="st7" points="209.8,304.7 209.9,304.9 209.7,304.7 				"/>
				<polygon class="st2" points="209.7,304 209.8,304.7 209.7,304.7 				"/>
				<polygon class="st5" points="209.7,304 209.7,304.7 198.9,304.7 197.8,304.9 193.2,305.6 192.6,302.5 188.1,303.3 188.6,306.4 
					184,307.2 183.4,304.1 178.9,304.9 179.4,307.9 174.8,308.7 174.3,305.6 169.6,306.4 170.2,309.5 165.6,310.2 165.1,307.2 
					160.4,308 161,311 156.4,311.7 155.9,308.8 151.3,309.5 151.8,312.5 147.1,313.3 146.6,310.3 142.1,311.1 142.5,314 
					137.9,314.8 137.4,311.9 132.9,312.7 133.3,315.5 130.5,316 122.8,311 145.8,307 199,297.6 209.7,297.6 				"/>
				<polygon class="st7" points="209.7,238.4 209.7,297.6 199,297.6 145.8,307 145.8,306.8 109.8,279.1 153.5,261.3 166.5,256 				
					"/>
				<polygon class="st5" points="209.7,226 209.7,238.4 199.3,240.8 167.6,248.1 166.5,248.4 143,253.8 65.3,271.8 64.5,273.6 
					62.6,272.5 62.1,272.1 60.4,271 60.4,265 65.3,263.7 143,243.4 166.5,237.3 167.4,237.1 199.3,228.8 				"/>
				<path class="st9" d="M209.7,238.4L166.5,256l-13,5.3l-43.8,17.9l36,27.7l0,0.2l-23,4.1c-11.9-7.6-21.3-13.6-30.7-19.7
					c-8.6-5.5-17.2-11-27.6-17.7l0.8-1.8l77.7-18l23.5-5.5l1.1-0.3l31.6-7.3L209.7,238.4z"/>
				<polygon class="st8" points="166.5,216.9 166.5,237.3 143,243.4 143,216.9 				"/>
				<path class="st39" d="M166.5,214.3v2.6H143v-2.6c1.9-0.9,3-1.4,4.8-2.3h13.8C163.6,212.9,164.6,213.4,166.5,214.3z"/>
				<path class="st9" d="M60.4,265l0,6.1c-2.2-1.4-4.4-2.8-6.7-4.3L60.4,265z"/>
			</g>
			<g>
				<polyline class="st40" points="272.3,369.4 286.6,361.4 290.3,359.3 315.9,345 332.6,345 272.3,384 272.3,371.4 				"/>
				<line class="st40" x1="272.3" y1="369.4" x2="272.3" y2="371.4"/>
				<polyline class="st40" points="272.3,353.2 272.3,361.4 227.7,361.4 				"/>
				<polyline class="st40" points="272.3,333 272.3,353.2 227.7,353.2 				"/>
				<polyline class="st40" points="227.7,333 227.7,353.2 227.7,361.4 				"/>
				<path class="st40" d="M272.3,371.4c0,3.9-3.1,7-7,7h-30.7c-3.3,0-6.1-2.3-6.8-5.4"/>
				<polyline class="st40" points="286.9,120.9 286.9,184.3 286.9,184.6 				"/>
				<line class="st40" x1="275.9" y1="149" x2="275.9" y2="120.9"/>
				<line class="st40" x1="224.1" y1="120.9" x2="224.1" y2="148.8"/>
				<polyline class="st40" points="213.1,184.4 213.1,184.3 213.1,120.9 				"/>
				<path class="st40" d="M288.8,190.9c1,4.3,1.5,8.8,1.5,13.4V226"/>
				<path class="st40" d="M286.9,184.3c0.8,2.1,1.4,4.3,1.9,6.6"/>
				<polyline class="st40" points="272.4,137.6 272.5,138.1 275.9,149 286.9,184.6 286.9,184.7 286.9,184.7 286.9,184.7 
					288.8,190.8 288.8,190.9 288.8,190.9 				"/>
				<polyline class="st40" points="213.1,184.4 213.1,184.4 224.1,148.8 227.5,138 				"/>
				<path class="st40" d="M209.7,226v-21.7c0-5,0.6-9.8,1.7-14.4c0.5-1.9,1.1-3.9,1.7-5.7"/>
				<polyline class="st40" points="290.3,326.6 290.3,315.5 290.3,304.7 				"/>
				<line class="st40" x1="209.7" y1="326.6" x2="209.7" y2="304.7"/>
				<line class="st40" x1="290.3" y1="304.7" x2="290.2" y2="304.7"/>
				<line class="st40" x1="209.8" y1="304.7" x2="209.7" y2="304.7"/>
				<line class="st40" x1="224.1" y1="226" x2="209.7" y2="226"/>
				<line class="st40" x1="290.3" y1="226" x2="275.9" y2="226"/>
				<polyline class="st40" points="272.4,137.6 272.4,137.4 272.3,137.4 				"/>
				<polyline class="st40" points="275.9,226 275.3,212 274.5,190.8 273.2,158.8 272.8,147.3 				"/>
				<polyline class="st40" points="227.7,322 215.5,325.1 209.7,326.6 158.7,339.4 227.7,384 227.7,383.9 				"/>
				<line class="st40" x1="227.7" y1="369.2" x2="227.7" y2="361.4"/>
				<line class="st40" x1="250" y1="272.6" x2="250" y2="226"/>
				<polyline class="st40" points="290.3,326.6 341.3,339.4 332.6,345 				"/>
				<line class="st40" x1="272.3" y1="369.4" x2="272.3" y2="361.4"/>
				<path class="st40" d="M224.1,120.9v-0.7c-1.3-1.3-2-2-3.3-3.3h-4.5c-1.3,1.3-2,2-3.3,3.3v0.7H224.1z"/>
				<path class="st40" d="M286.9,120.9v-0.7c-1.3-1.3-2-2-3.3-3.3h-4.5c-1.3,1.3-2,2-3.3,3.3v0.7H286.9z"/>
				<polyline class="st40" points="272.3,322 273.4,322.3 274.2,322.5 290.3,326.6 				"/>
				<polyline class="st40" points="272.3,333 272.3,322 272.3,316.6 				"/>
				<polyline class="st40" points="227.7,316.6 227.7,322 227.7,333 				"/>
				<polyline class="st40" points="227.7,304.7 227.7,311.3 227.7,316.6 				"/>
				<polyline class="st40" points="272.3,316.6 272.3,311.3 272.3,304.7 				"/>
				<line class="st40" x1="272" y1="333" x2="227.7" y2="333"/>
				<line class="st40" x1="227.9" y1="369.4" x2="272.3" y2="369.4"/>
				<polygon class="st40" points="227.7,383.9 208.4,371.4 167.6,345 184.2,344.9 209.7,359.1 227.6,369.2 227.7,369.2 227.9,369.3 
					227.9,369.4 227.9,373 227.9,384 				"/>
				<polyline class="st40" points="209.7,304 209.8,304.7 222.6,304.7 				"/>
				<polyline class="st40" points="277.4,304.7 277.4,282.7 269.3,273.5 262.1,273.5 250,273.5 230.7,273.5 222.6,282.7 
					222.6,304.7 227.7,304.7 243.4,304.7 250,304.7 256.6,304.7 				"/>
				<polyline class="st40" points="290.3,304 290.2,304.7 277.4,304.7 272.3,304.7 256.6,304.7 				"/>
				<line class="st40" x1="259.6" y1="137.4" x2="259.6" y2="181.7"/>
				<line class="st40" x1="240.4" y1="137.4" x2="240.4" y2="181.7"/>
				<polyline class="st40" points="227.3,147.3 225.6,190.2 225.6,190.2 225.4,194.5 				"/>
				<polyline class="st40" points="224.7,212 225.4,194.5 230.4,190.2 230.4,190.2 240.4,181.7 259.6,181.7 270.2,190.7 
					274.6,194.5 275.3,212 				"/>
				<polyline class="st40" points="277.4,282.7 276,230 275.9,226 				"/>
				<polyline class="st40" points="222.6,282.7 224,230 224.1,226 224.7,212 250,226 275.3,212 				"/>
				<polyline class="st40" points="290.2,304.7 272.3,316.6 253.6,312.1 250,311.3 246.4,312.1 227.7,316.6 209.9,304.9 
					209.7,304.7 				"/>
				<path class="st40" d="M272.8,147.3l-0.2-9.2l-0.2-8.7c-0.6-6.4-5.7-11.7-12.6-13.4v13.4h-19.3V116c-6.9,1.7-12.1,7-12.6,13.4
					h-0.1l-0.2,8.6l-0.2,9.1l0,0.3l13.1-9.9h19.3L272.8,147.3z"/>
				<line class="st40" x1="143" y1="243.4" x2="143" y2="216.9"/>
				<line class="st40" x1="166.5" y1="216.9" x2="166.5" y2="237.3"/>
				<path class="st40" d="M143,216.9v-2.6c1.9-0.9,3-1.4,4.8-2.3h13.8c1.9,0.9,3,1.4,4.8,2.3v2.6H143z"/>
				<path class="st40" d="M60.4,271c-2.2-1.4-4.4-2.8-6.7-4.3l6.7-1.8"/>
				<path class="st40" d="M122.8,311c-11.9-7.6-21.3-13.6-30.7-19.7c-8.6-5.5-17.2-11-27.6-17.7"/>
				<polyline class="st40" points="209.7,304.7 198.9,304.7 197.8,304.9 193.2,305.6 192.6,302.5 188.1,303.3 188.6,306.4 
					184,307.2 183.4,304.1 178.9,304.9 179.4,307.9 174.8,308.7 174.3,305.6 169.6,306.4 170.2,309.5 165.6,310.2 165.1,307.2 
					160.4,308 161,311 156.4,311.7 155.9,308.8 151.3,309.5 151.8,312.5 147.1,313.3 146.6,310.3 142.1,311.1 142.5,314 
					137.9,314.8 137.4,311.9 132.9,312.7 133.3,315.5 130.5,316 122.8,311 145.8,307 199,297.6 209.7,297.6 209.7,304 				"/>
				<polygon class="st40" points="60.4,265 65.3,263.7 143,243.4 166.5,237.3 167.4,237.1 199.3,228.8 209.7,226 209.7,238.4 
					199.3,240.8 167.6,248.1 166.5,248.4 143,253.8 65.3,271.8 64.5,273.6 62.6,272.5 62.1,272.1 60.4,271 				"/>
				<polyline class="st40" points="145.8,306.8 109.8,279.1 153.5,261.3 166.5,256 209.7,238.4 209.7,297.6 				"/>
				<line class="st40" x1="357" y1="243.4" x2="357" y2="216.9"/>
				<line class="st40" x1="333.5" y1="216.9" x2="333.5" y2="237.3"/>
				<path class="st40" d="M357,216.9v-2.6c-1.9-0.9-3-1.4-4.8-2.3h-13.8c-1.9,0.9-3,1.4-4.8,2.3v2.6H357z"/>
				<path class="st40" d="M439.6,271c2.1-1.4,4.4-2.8,6.7-4.3l-6.7-1.8"/>
				<path class="st40" d="M377.2,311c11.9-7.6,21.3-13.6,30.7-19.7c8.6-5.5,17.2-11,27.6-17.7"/>
				<polyline class="st40" points="290.3,304.7 301.1,304.7 302.2,304.9 306.8,305.6 307.4,302.5 312,303.3 311.4,306.4 316,307.2 
					316.5,304.1 321.1,304.9 320.6,307.9 325.2,308.7 325.8,305.6 330.4,306.4 329.8,309.5 334.4,310.2 335,307.2 339.5,308 
					339,311 343.6,311.7 344.1,308.8 348.8,309.5 348.3,312.5 352.9,313.3 353.4,310.3 358,311.1 357.5,314 362.1,314.8 
					362.5,311.9 367.1,312.7 366.7,315.5 369.5,316 377.2,311 354.2,307 301,297.6 290.3,297.6 290.3,304 				"/>
				<polygon class="st40" points="439.6,265 434.7,263.7 357,243.4 333.5,237.3 332.5,237.1 300.8,228.8 290.3,226 290.3,238.4 
					300.8,240.8 332.4,248.1 333.5,248.4 357,253.8 434.7,271.8 435.5,273.6 437.4,272.5 437.9,272.1 439.6,271 				"/>
				<polyline class="st40" points="354.3,306.8 390.3,279.1 346.5,261.3 333.5,256 290.3,238.4 290.3,297.6 				"/>
			</g>
		</g>
	</g>
</g>
<g id="Spaceship2" class="st0">
	<g class="st48">
		<g id="XMLID_8_">
			<g>
				<path class="st8" d="M237.7,300.3c0,2.3,1.8,4.1,4.1,4.1h0c2.3,0,4.1-1.8,4.1-4.1c0,2.3,1.8,4.1,4.1,4.1s4.1-1.8,4.1-4.1
					c0,2.3,1.8,4.1,4.1,4.1h0c2.3,0,4.1-1.8,4.1-4.1V282c0-1.1-0.5-2.2-1.2-2.9c-0.8-0.7-1.8-1.2-2.9-1.2c-2.3,0-4.1,1.8-4.1,4.1
					c0-1.1-0.5-2.2-1.2-2.9c-0.8-0.7-1.8-1.2-2.9-1.2c-2.3,0-4.1,1.8-4.1,4.1c0-2.3-1.8-4.1-4.1-4.1h0c-2.3,0-4.1,1.8-4.1,4.1V300.3
					z M270.1,223.3v92.1h-40.2v-92.1l20.1,39L270.1,223.3z"/>
				<path class="st9" d="M363.5,168.8c3.9,0,7.7,0.3,11.5,0.9c34.3,5.6,60.5,36,60.5,72.7v44.8c0,15.5-12.5,28.1-28,28.1h-1.1
					c6-5.8,9.5-11.6,11.6-16.6c11.8-27.7,0.1-67.1-27.5-86.8c-28.2-20.1-69.8-17.4-99.3,8.3l-1.3,1.1c-0.8-19.2-3-37.1-6.3-52.6
					h32.1h15.8H355H363.5z"/>
				<path class="st9" d="M250.9,149.1c11.9,0,21.5,9.6,21.5,21.5V186c0,3.6-0.9,7.1-2.5,10.1L250,169.2v-20H250.9z"/>
				<path class="st9" d="M109.5,212.1c-27.7,19.7-39.3,59-27.5,86.8c2.1,5,5.6,10.8,11.6,16.6h-1.1c-15.5,0-28-12.6-28-28.1v-44.8
					c0-36.7,26.2-67.1,60.5-72.7c3.7-0.6,7.6-0.9,11.5-0.9h8.5h23.4h15.8h32.1c-3.3,15.5-5.5,33.3-6.3,52.6l-1.3-1.1
					C179.3,194.6,137.7,192,109.5,212.1z"/>
				<path class="st5" d="M375,142.6h-20v-1.1c2.5-2.5,3.9-3.9,6.5-6.5h7.1c2.5,2.5,3.9,3.9,6.5,6.5V142.6z"/>
				<path class="st6" d="M241.8,304.4c-2.3,0-4.1-1.8-4.1-4.1V282c0-2.3,1.8-4.1,4.1-4.1h0c2.3,0,4.1,1.8,4.1,4.1v18.3
					C245.9,302.6,244.1,304.4,241.8,304.4L241.8,304.4z"/>
				<path class="st6" d="M291.3,220.3c29.5-25.7,71-28.3,99.3-8.3c27.6,19.7,39.3,59,27.5,86.8c-2.1,5-5.6,10.8-11.6,16.6
					c1.5-4.6,2.4-9.6,2.4-14.8c0-25.5-20.2-46.2-45.2-46.2s-45.2,20.7-45.2,46.2c0,5.2,0.9,10.2,2.4,14.8h-38.7
					c5.1-21.3,8.2-47.8,8.2-76.6c0-5.9-0.1-11.7-0.4-17.4L291.3,220.3z"/>
				<rect x="315.8" y="150.1" class="st7" width="15.8" height="18.7"/>
				<path class="st5" d="M184.2,150h-15.8v-2.5c1.9-1.9,3-3,4.9-4.9h5.9c1.9,1.9,3,3,4.9,4.9V150z"/>
				<polygon class="st10" points="179.1,315.4 170.8,340.4 126.7,366.5 				"/>
				<path class="st5" d="M194.8,382.5h29.8v1.8c0,2.2-1.8,3.9-3.9,3.9h-21.9c-2.2,0-3.9-1.8-3.9-3.9V382.5z"/>
				<path class="st7" d="M228.5,131.3c5.3,5.8,13,9.5,21.5,9.5c8.5,0,16.2-3.7,21.5-9.5c4.9,9.6,9,22.5,12.2,37.6
					c3.3,15.5,5.5,33.3,6.3,52.6c0.3,5.7,0.4,11.5,0.4,17.4c0,28.7-3,55.3-8.2,76.6h-12.1v-92.1c0-5.5-2.3-10.6-5.9-14.2
					c-3.6-3.6-8.7-5.9-14.2-5.9c-11.1,0-20.1,9-20.1,20.1v92.1h-12.1c-5.1-21.3-8.2-47.8-8.2-76.6c0-5.9,0.1-11.7,0.4-17.4
					c0.8-19.2,3-37.1,6.3-52.6C219.5,153.7,223.7,140.9,228.5,131.3z M227.6,186c0,3.6,0.9,7.1,2.5,10.1l19.9-26.9l19.9,26.9
					c1.6-3,2.5-6.4,2.5-10.1v-15.4c0-11.9-9.6-21.5-21.5-21.5H250h-0.9c-11.9,0-21.5,9.6-21.5,21.5V186z"/>
				<path class="st6" d="M258.2,304.4c-2.3,0-4.1-1.8-4.1-4.1V282c0-2.3,1.8-4.1,4.1-4.1c1.1,0,2.2,0.5,2.9,1.2
					c0.7,0.8,1.2,1.8,1.2,2.9v18.3C262.3,302.6,260.5,304.4,258.2,304.4L258.2,304.4z"/>
				<path class="st9" d="M249.1,149.1h0.9v20l-19.9,26.9c-1.6-3-2.5-6.4-2.5-10.1v-15.4C227.6,158.8,237.2,149.1,249.1,149.1z"/>
				<path class="st6" d="M270.6,339.3c0,2.3-1.8,4.1-4.1,4.1h-33c-2.3,0-4.1-1.8-4.1-4.1V338c0-2.3,1.8-4.1,4.1-4.1h5.4h22.2h5.4
					c2.3,0,4.1,1.8,4.1,4.1V339.3z"/>
				<path class="st6" d="M245.9,282c0-2.3,1.8-4.1,4.1-4.1c1.1,0,2.2,0.5,2.9,1.2c0.7,0.8,1.2,1.8,1.2,2.9v18.3
					c0,2.3-1.8,4.1-4.1,4.1s-4.1-1.8-4.1-4.1V282z"/>
				<path class="st8" d="M229.4,338v1.3c0,2.3,1.8,4.1,4.1,4.1h33c2.3,0,4.1-1.8,4.1-4.1V338c0-2.3-1.8-4.1-4.1-4.1h-5.4
					c2.3,0,4.1-1.8,4.1-4.1v-1.9c0-2.3-1.8-4.1-4.1-4.1h-22.2c-2.3,0-4.1,1.8-4.1,4.1v1.9c0,2.3,1.8,4.1,4.1,4.1h-5.4
					C231.2,333.9,229.4,335.7,229.4,338z M320.9,315.4l8.4,25L250,358.2l-79.3-17.8l8.4-25h38.7h12.1h40.2h12.1H320.9z"/>
				<path class="st9" d="M229.9,223.3c0-11.1,9-20.1,20.1-20.1c5.5,0,10.6,2.2,14.2,5.9c3.6,3.6,5.9,8.7,5.9,14.2l-20.1,39
					L229.9,223.3z"/>
				<path class="st8" d="M250,140.8c-8.5,0-16.2-3.7-21.5-9.5c6.2-12.3,13.6-19.5,21.5-19.5c7.9,0,15.3,7.1,21.5,19.5
					C266.2,137.1,258.5,140.8,250,140.8z"/>
				<polygon class="st9" points="329.3,340.4 305.2,351.7 275.4,365.8 251,377.3 249,377.3 224.6,365.8 194.8,351.7 170.8,340.4 
					250,358.2 				"/>
				<path class="st7" d="M125,169.7v-27.2h20v26.3h-8.5C132.6,168.8,128.8,169.1,125,169.7z"/>
				<rect x="168.4" y="150.1" class="st7" width="15.8" height="18.7"/>
				<path class="st5" d="M145,142.6h-20v-1.1c2.5-2.5,3.9-3.9,6.5-6.5h7c2.5,2.5,3.9,3.9,6.5,6.5V142.6z"/>
				<path class="st5" d="M275.4,382.5h29.8v1.8c0,2.2-1.8,3.9-3.9,3.9h-21.9c-2.2,0-3.9-1.8-3.9-3.9V382.5z"/>
				<polygon class="st5" points="373.3,366.5 358.9,374.8 305.2,351.7 329.3,340.4 				"/>
				<path class="st6" d="M261.1,323.8c2.3,0,4.1,1.8,4.1,4.1v1.9c0,2.3-1.8,4.1-4.1,4.1h-22.2c-2.3,0-4.1-1.8-4.1-4.1v-1.9
					c0-2.3,1.8-4.1,4.1-4.1H261.1z"/>
				<polygon class="st5" points="194.8,351.7 141.1,374.8 126.7,366.5 170.8,340.4 				"/>
				<polygon class="st7" points="224.6,365.8 224.6,382.5 194.8,382.5 194.8,351.7 				"/>
				<polygon class="st7" points="305.2,351.7 305.2,382.5 275.4,382.5 275.4,365.8 				"/>
				<path class="st7" d="M375,169.7c-3.7-0.6-7.6-0.9-11.5-0.9H355v-26.3h20V169.7z"/>
				<path class="st5" d="M331.6,147.5v2.5h-15.8v-2.5c1.9-1.9,3-3,5-4.9h5.9C328.6,144.5,329.7,145.6,331.6,147.5z"/>
				<path class="st6" d="M91.2,300.6c0,5.2,0.8,10.2,2.4,14.8c-6-5.8-9.5-11.6-11.6-16.6c-11.8-27.7-0.2-67.1,27.5-86.8
					c28.2-20.1,69.8-17.4,99.3,8.3l1.3,1.1c-0.3,5.7-0.4,11.5-0.4,17.4c0,28.7,3,55.3,8.2,76.6h-38.7c1.5-4.6,2.4-9.6,2.4-14.8
					c0-25.5-20.2-46.2-45.2-46.2S91.2,275.1,91.2,300.6z"/>
				<polygon class="st10" points="373.3,366.5 329.3,340.4 320.9,315.4 				"/>
			</g>
			<g>
				<path class="st49" d="M282.2,315.4c5.1-21.3,8.2-47.8,8.2-76.6c0-5.9-0.1-11.7-0.4-17.4c-0.8-19.2-3-37.1-6.3-52.6
					c-3.2-15.1-7.3-27.9-12.2-37.6c-6.2-12.3-13.6-19.5-21.5-19.5c-7.9,0-15.3,7.1-21.5,19.5c-4.9,9.6-9,22.5-12.2,37.6
					c-3.3,15.5-5.5,33.3-6.3,52.6c-0.3,5.7-0.4,11.5-0.4,17.4c0,28.7,3,55.3,8.2,76.6"/>
				<path class="st49" d="M270.1,315.4h12.1h38.7c-1.5-4.6-2.4-9.6-2.4-14.8c0-25.5,20.2-46.2,45.2-46.2s45.2,20.7,45.2,46.2
					c0,5.2-0.9,10.2-2.4,14.8h1.1c15.5,0,28-12.6,28-28.1v-44.8c0-36.7-26.2-67.1-60.5-72.7c-3.7-0.6-7.6-0.9-11.5-0.9H355h-23.4
					h-15.8h-32.1"/>
				<path class="st49" d="M216.3,168.8h-32.1h-15.8H145h-8.5c-3.9,0-7.7,0.3-11.5,0.9c-34.3,5.6-60.5,36-60.5,72.7v44.8
					c0,15.5,12.5,28.1,28,28.1h1.1c-1.5-4.6-2.4-9.6-2.4-14.8c0-25.5,20.2-46.2,45.2-46.2s45.2,20.7,45.2,46.2
					c0,5.2-0.9,10.2-2.4,14.8h38.7h12.1"/>
				<polyline class="st49" points="194.8,351.7 170.8,340.4 179.1,315.4 				"/>
				<polyline class="st49" points="320.9,315.4 329.3,340.4 305.2,351.7 275.4,365.8 251,377.3 249,377.3 224.6,365.8 194.8,351.7 
									"/>
				<line class="st49" x1="194.8" y1="382.5" x2="194.8" y2="351.7"/>
				<line class="st49" x1="224.6" y1="365.8" x2="224.6" y2="382.5"/>
				<line class="st49" x1="275.4" y1="382.5" x2="275.4" y2="365.8"/>
				<line class="st49" x1="305.2" y1="351.7" x2="305.2" y2="382.5"/>
				<polyline class="st49" points="320.9,315.4 373.3,366.5 358.9,374.8 305.2,351.7 				"/>
				<polyline class="st49" points="179.1,315.4 126.7,366.5 141.1,374.8 194.8,351.7 				"/>
				<path class="st49" d="M93.6,315.4c-6-5.8-9.5-11.6-11.6-16.6c-11.8-27.7-0.2-67.1,27.5-86.8c28.2-20.1,69.8-17.4,99.3,8.3
					l1.3,1.1"/>
				<path class="st49" d="M406.4,315.4c6-5.8,9.5-11.6,11.6-16.6c11.8-27.7,0.1-67.1-27.5-86.8c-28.2-20.1-69.8-17.4-99.3,8.3
					l-1.3,1.1"/>
				<path class="st49" d="M228.5,131.3c5.3,5.8,13,9.5,21.5,9.5c8.5,0,16.2-3.7,21.5-9.5"/>
				<path class="st49" d="M250,169.2l19.9,26.9c1.6-3,2.5-6.4,2.5-10.1v-15.4c0-11.9-9.6-21.5-21.5-21.5H250h-0.9
					c-11.9,0-21.5,9.6-21.5,21.5V186c0,3.6,0.9,7.1,2.5,10.1L250,169.2z"/>
				<line class="st49" x1="250" y1="169.2" x2="250" y2="149.1"/>
				<path class="st49" d="M270.1,315.4h-40.2v-92.1c0-11.1,9-20.1,20.1-20.1c5.5,0,10.6,2.2,14.2,5.9c3.6,3.6,5.9,8.7,5.9,14.2
					V315.4z"/>
				<polyline class="st49" points="229.9,223.3 250,262.3 270.1,223.3 				"/>
				<path class="st49" d="M245.9,282c0-2.3,1.8-4.1,4.1-4.1c1.1,0,2.2,0.5,2.9,1.2c0.7,0.8,1.2,1.8,1.2,2.9"/>
				<path class="st49" d="M254.1,300.3c0,2.3-1.8,4.1-4.1,4.1s-4.1-1.8-4.1-4.1"/>
				<path class="st49" d="M254.1,282c0-2.3,1.8-4.1,4.1-4.1c1.1,0,2.2,0.5,2.9,1.2c0.7,0.8,1.2,1.8,1.2,2.9v18.3
					c0,2.3-1.8,4.1-4.1,4.1h0c-2.3,0-4.1-1.8-4.1-4.1V282z"/>
				<path class="st49" d="M245.9,300.3c0,2.3-1.8,4.1-4.1,4.1h0c-2.3,0-4.1-1.8-4.1-4.1V282c0-2.3,1.8-4.1,4.1-4.1h0
					c2.3,0,4.1,1.8,4.1,4.1V300.3z"/>
				<line class="st49" x1="145" y1="142.6" x2="145" y2="168.8"/>
				<line class="st49" x1="125" y1="169.7" x2="125" y2="142.6"/>
				<line class="st49" x1="184.2" y1="150.1" x2="184.2" y2="168.8"/>
				<line class="st49" x1="168.4" y1="150" x2="184.2" y2="150"/>
				<line class="st49" x1="168.4" y1="168.8" x2="168.4" y2="150.1"/>
				<path class="st49" d="M145,142.6v-1.1c-2.5-2.5-3.9-3.9-6.5-6.5h-7c-2.5,2.5-3.9,3.9-6.5,6.5v1.1H145z"/>
				<path class="st49" d="M184.2,150v-2.5c-1.9-1.9-3-3-4.9-4.9h-5.9c-1.9,1.9-3,3-4.9,4.9v2.5v0.1L184.2,150L184.2,150z"/>
				<line class="st49" x1="375" y1="142.6" x2="375" y2="169.7"/>
				<line class="st49" x1="355" y1="168.8" x2="355" y2="142.6"/>
				<line class="st49" x1="331.6" y1="150.1" x2="331.6" y2="168.8"/>
				<line class="st49" x1="315.8" y1="150" x2="331.6" y2="150"/>
				<line class="st49" x1="315.8" y1="168.8" x2="315.8" y2="150.1"/>
				<path class="st49" d="M355,142.6v-1.1c2.5-2.5,3.9-3.9,6.5-6.5h7.1c2.5,2.5,3.9,3.9,6.5,6.5v1.1H355z"/>
				<path class="st49" d="M315.8,150v-2.5c1.9-1.9,3-3,5-4.9h5.9c1.9,1.9,3,3,4.9,4.9v2.5v0.1L315.8,150L315.8,150z"/>
				<path class="st49" d="M305.2,382.5v1.8c0,2.2-1.8,3.9-3.9,3.9h-21.9c-2.2,0-3.9-1.8-3.9-3.9v-1.8H305.2z"/>
				<path class="st49" d="M224.6,382.5v1.8c0,2.2-1.8,3.9-3.9,3.9h-21.9c-2.2,0-3.9-1.8-3.9-3.9v-1.8H224.6z"/>
				<polyline class="st49" points="126.7,366.5 170.8,340.4 250,358.2 329.3,340.4 373.3,366.5 				"/>
				<path class="st49" d="M238.9,333.9c-2.3,0-4.1-1.8-4.1-4.1v-1.9c0-2.3,1.8-4.1,4.1-4.1h22.2c2.3,0,4.1,1.8,4.1,4.1v1.9
					c0,2.3-1.8,4.1-4.1,4.1"/>
				<path class="st49" d="M261.1,333.9h5.4c2.3,0,4.1,1.8,4.1,4.1v1.3c0,2.3-1.8,4.1-4.1,4.1h-33c-2.3,0-4.1-1.8-4.1-4.1V338
					c0-2.3,1.8-4.1,4.1-4.1h5.4H261.1z"/>
			</g>
		</g>
	</g>
</g>
</svg>
