<?xml version="1.0" encoding="utf-8"?>
<!-- Generator: Adobe Illustrator 22.0.1, SVG Export Plug-In . SVG Version: 6.00 Build 0)  -->
<svg version="1.1" xmlns="http://www.w3.org/2000/svg" xmlns:xlink="http://www.w3.org/1999/xlink" x="0px" y="0px"
	 viewBox="0 0 500 500" style="enable-background:new 0 0 500 500;" xml:space="preserve">
<style type="text/css">
	.st0{display:none;}
	.st1{display:inline;fill:url(#SVGID_1_);}
	.st2{fill:#FFFFFF;}
	.st3{fill:#420102;}
	.st4{fill:#130000;}
	.st5{fill:#212121;}
	.st6{fill:#292929;}
	.st7{fill:#363636;}
	.st8{fill:#404040;}
	.st9{fill:#BF1533;}
	.st10{fill:#9A0419;}
	.st11{fill:#590000;}
	.st12{fill:#EE8900;}
	.st13{fill:#FCA600;}
	.st14{fill:#D23600;}
	.st15{fill:#D95100;}
	.st16{fill:#DE6D00;}
	.st17{fill:#FFBB00;}
	.st18{fill:#FFE554;}
	.st19{fill:#D19419;}
	.st20{fill:#FFCA01;}
	.st21{fill:#45BF55;}
	.st22{fill:#97ED8A;}
	.st23{fill:#00261C;}
	.st24{fill:#044D29;}
	.st25{fill:#168039;}
	.st26{fill:#B4DCED;}
	.st27{fill:#E8F8FF;}
	.st28{fill:#3399CC;}
	.st29{fill:#91C9E8;}
	.st30{fill:#446E9E;}
	.st31{fill:#335377;}
	.st32{fill:#233951;}
	.st33{fill:#5F9ADD;}
	.st34{fill:#3E6591;}
	.st35{fill:#7B52AB;}
	.st36{fill:#9768D1;}
	.st37{fill:#25064C;}
	.st38{fill:#36175E;}
	.st39{fill:#1C1C1C;}
	.st40{display:inline;}
	.st41{fill:none;stroke:#000000;stroke-width:2;stroke-miterlimit:10;}
	.st42{fill:#7B52AB;stroke:#000000;stroke-miterlimit:10;}
	.st43{fill:#212121;stroke:#000000;stroke-miterlimit:10;}
	.st44{fill:#363636;stroke:#000000;stroke-miterlimit:10;}
	.st45{fill:#404040;stroke:#000000;stroke-miterlimit:10;}
	.st46{fill:#1C1C1C;stroke:#000000;stroke-miterlimit:10;}
	.st47{fill:#36175E;stroke:#000000;stroke-miterlimit:10;}
	.st48{fill:#FFFFFF;stroke:#000000;stroke-miterlimit:10;}
	.st49{display:inline;opacity:0.15;}
	.st50{display:inline;fill:none;stroke:#000000;stroke-width:2;stroke-miterlimit:10;}
</style>
<g id="BG" class="st0">
	<linearGradient id="SVGID_1_" gradientUnits="userSpaceOnUse" x1="153.0388" y1="160.7842" x2="491.0388" y2="471.7842">
		<stop  offset="0" style="stop-color:#080219"/>
		<stop  offset="1" style="stop-color:#140426"/>
	</linearGradient>
	<rect class="st1" width="500" height="500"/>
</g>
<g id="Ideas">
</g>
<g id="Tools">
</g>
<g id="Spaceship1" class="st0">
	<g class="st40">
		<g id="XMLID_1_">
			<g>
				<path class="st9" d="M439.6,265l6.7,1.8c-2.3,1.5-4.6,2.9-6.7,4.3L439.6,265z"/>
				<polygon class="st5" points="439.6,265 439.6,271 437.9,272.1 437.4,272.5 435.5,273.6 434.7,271.8 357,253.8 333.5,248.4 
					332.4,248.1 300.8,240.8 290.3,238.4 290.3,226 300.8,228.8 332.5,237.1 333.5,237.3 357,243.4 434.7,263.7 				"/>
				<path class="st9" d="M434.7,271.8l0.8,1.8c-10.5,6.7-19,12.2-27.6,17.7c-9.4,6-18.8,12.1-30.7,19.7l-23-4.1l0-0.2l36-27.7
					l-43.8-17.9l-13-5.3l-43.1-17.6l10.4,2.4l31.6,7.3l1.1,0.3l23.5,5.5L434.7,271.8z"/>
				<polygon class="st7" points="390.3,279.1 354.3,306.8 354.2,307 301,297.6 290.3,297.6 290.3,238.4 333.5,256 346.5,261.3 				
					"/>
				<polygon class="st5" points="377.2,311 369.5,316 366.7,315.5 367.1,312.7 362.5,311.9 362.1,314.8 357.5,314 358,311.1 
					353.4,310.3 352.9,313.3 348.3,312.5 348.8,309.5 344.1,308.8 343.6,311.7 339,311 339.5,308 335,307.2 334.4,310.2 
					329.8,309.5 330.4,306.4 325.8,305.6 325.2,308.7 320.6,307.9 321.1,304.9 316.5,304.1 316,307.2 311.4,306.4 312,303.3 
					307.4,302.5 306.8,305.6 302.2,304.9 301.1,304.7 290.3,304.7 290.3,304 290.3,297.6 301,297.6 354.2,307 				"/>
				<polygon class="st8" points="357,216.9 357,243.4 333.5,237.3 333.5,216.9 				"/>
				<path class="st39" d="M357,214.3v2.6h-23.5v-2.6c1.9-0.9,3-1.4,4.8-2.3h13.8C354,212.9,355.1,213.4,357,214.3z"/>
				<polygon class="st7" points="341.3,339.4 332.6,345 315.9,345 290.3,359.3 286.6,361.4 272.3,369.4 272.3,361.4 272.3,353.2 
					272.3,333 272.3,322 273.4,322.3 274.2,322.5 290.3,326.6 				"/>
				<polygon class="st5" points="332.6,345 272.3,384 272.3,371.4 272.3,369.4 286.6,361.4 290.3,359.3 315.9,345 				"/>
				<polygon class="st10" points="290.3,315.5 290.3,326.6 274.2,322.5 273.4,322.3 272.3,322 272.3,316.6 290.2,304.7 290.3,304.7 
									"/>
				<polygon class="st5" points="290.3,297.6 290.3,304 290.2,304.7 277.4,304.7 277.4,282.7 276,230 275.9,226 290.3,226 
					290.3,238.4 				"/>
				<path class="st5" d="M290.3,204.4V226h-14.5l-0.6-14.1l-0.8-21.2l-1.3-32l-0.5-11.5l-0.2-9.2l3.4,10.9l11,35.6l0,0.1l0,0v0
					l1.9,6.1l0,0.1l0,0.1C289.8,195.2,290.3,199.7,290.3,204.4z"/>
				<polygon class="st5" points="290.2,304.7 272.3,316.6 272.3,311.3 272.3,304.7 277.4,304.7 				"/>
				<path class="st2" d="M288.8,190.8l-1.9-6.1v0l0,0l0-0.4C287.6,186.4,288.3,188.6,288.8,190.8z"/>
				<polygon class="st7" points="286.9,184.3 286.9,184.6 275.9,149 275.9,120.9 286.9,120.9 				"/>
				<path class="st39" d="M286.9,120.1v0.7h-11v-0.7c1.3-1.3,2-2,3.3-3.3h4.5C284.9,118.2,285.6,118.9,286.9,120.1z"/>
				<polygon class="st7" points="277.4,282.7 277.4,304.7 272.3,304.7 256.6,304.7 250,304.7 243.4,304.7 227.7,304.7 222.6,304.7 
					222.6,282.7 230.7,273.5 250,273.5 262.1,273.5 269.3,273.5 				"/>
				<polygon class="st7" points="276,230 277.4,282.7 269.3,273.5 262.1,273.5 250,273.5 250,272.6 250,226 275.3,212 275.9,226 
									"/>
				<polygon class="st7" points="274.6,194.5 275.3,212 250,226 224.7,212 225.4,194.5 230.4,190.2 230.4,190.2 240.4,181.7 
					259.6,181.7 270.2,190.7 				"/>
				<polygon class="st10" points="273.2,158.8 274.6,194.5 270.2,190.7 259.6,181.7 259.6,137.4 272.8,147.3 				"/>
				<polygon class="st5" points="272.5,138.1 272.8,147.3 272.4,137.6 				"/>
				<path class="st7" d="M272.4,137.6l0.4,9.7l-13.1-9.9h-19.3l-13.1,9.9l0-0.3l0.4-9.7v-8h0.1c0.5-6.4,5.7-11.7,12.6-13.4v13.4
					h19.3V116c6.9,1.7,12.1,7,12.6,13.4v8L272.4,137.6z"/>
				<polygon class="st2" points="272.4,137.4 272.4,137.6 272.3,137.4 				"/>
				<path class="st39" d="M272.3,369.4v2c0,3.9-3.1,7-7,7h-30.7c-3.3,0-6.1-2.3-6.8-5.4v-3.6H272.3z"/>
				<polygon class="st5" points="272.3,361.4 272.3,369.4 227.9,369.4 227.9,369.3 227.7,369.2 227.7,361.4 				"/>
				<rect x="227.7" y="353.2" class="st5" width="44.7" height="8.2"/>
				<polygon class="st5" points="272.3,333 272.3,353.2 227.7,353.2 227.7,333 272,333 				"/>
				<polygon class="st9" points="272.3,322 272.3,333 272,333 227.7,333 227.7,322 227.7,316.6 246.4,312.1 250,311.3 253.6,312.1 
					272.3,316.6 				"/>
				<polygon class="st7" points="272.3,311.3 272.3,316.6 253.6,312.1 250,311.3 246.4,312.1 227.7,316.6 227.7,311.3 227.7,304.7 
					243.4,304.7 250,304.7 256.6,304.7 272.3,304.7 				"/>
				<rect x="240.4" y="137.4" class="st9" width="19.3" height="44.3"/>
				<polygon class="st7" points="250,272.6 250,273.5 230.7,273.5 222.6,282.7 224,230 224.1,226 224.7,212 250,226 				"/>
				<polygon class="st10" points="240.4,137.4 240.4,181.7 230.4,190.2 230.4,190.2 225.4,194.5 225.6,190.2 225.6,190.2 
					227.3,147.3 				"/>
				<path class="st2" d="M227.9,373v11l-0.2-0.1v-12.5C227.7,371.9,227.7,372.5,227.9,373z"/>
				<path class="st2" d="M227.9,369.4v3.6c-0.1-0.5-0.2-1-0.2-1.6v-2H227.9z"/>
				<polygon class="st2" points="227.9,369.3 227.9,369.4 227.7,369.4 227.7,369.2 				"/>
				<polygon class="st5" points="227.7,371.4 227.7,383.9 208.4,371.4 167.6,345 184.2,344.9 209.7,359.1 227.6,369.2 227.7,369.4 
									"/>
				<polygon class="st2" points="227.7,369.2 227.7,369.4 227.6,369.2 				"/>
				<polygon class="st7" points="227.7,361.4 227.7,369.2 227.6,369.2 209.7,359.1 184.2,344.9 167.6,345 158.7,339.4 209.7,326.6 
					215.5,325.1 227.7,322 227.7,333 227.7,353.2 				"/>
				<polygon class="st10" points="227.7,316.6 227.7,322 215.5,325.1 209.7,326.6 209.7,304.7 209.9,304.9 				"/>
				<polygon class="st5" points="227.7,311.3 227.7,316.6 209.9,304.9 209.8,304.7 222.6,304.7 227.7,304.7 				"/>
				<polygon class="st5" points="227.6,137.4 227.3,147 227.5,138 				"/>
				<path class="st5" d="M227.5,138l-0.2,9.1l0,0.3l-1.7,42.9v0l-0.2,4.4l-0.7,17.4l-0.6,14.1h-14.5v-21.7c0-5,0.6-9.8,1.7-14.4
					l1.7-5.5l0-0.1l0,0l11-35.6L227.5,138z"/>
				<polygon class="st7" points="224.1,120.9 224.1,148.8 213.1,184.4 213.1,184.3 213.1,120.9 				"/>
				<path class="st39" d="M224.1,120.1v0.7h-11v-0.7c1.3-1.3,2-2,3.3-3.3h4.5C222.1,118.2,222.8,118.9,224.1,120.1z"/>
				<polygon class="st5" points="224.1,226 224,230 222.6,282.7 222.6,304.7 209.8,304.7 209.7,304 209.7,297.6 209.7,238.4 
					209.7,226 				"/>
				<path class="st2" d="M213.1,184.3l0,0.1l0,0.1l-1.7,5.5C211.9,188.1,212.4,186.1,213.1,184.3z"/>
				<polygon class="st7" points="209.8,304.7 209.9,304.9 209.7,304.7 				"/>
				<polygon class="st2" points="209.7,304 209.8,304.7 209.7,304.7 				"/>
				<polygon class="st5" points="209.7,304 209.7,304.7 198.9,304.7 197.8,304.9 193.2,305.6 192.6,302.5 188.1,303.3 188.6,306.4 
					184,307.2 183.4,304.1 178.9,304.9 179.4,307.9 174.8,308.7 174.3,305.6 169.6,306.4 170.2,309.5 165.6,310.2 165.1,307.2 
					160.4,308 161,311 156.4,311.7 155.9,308.8 151.3,309.5 151.8,312.5 147.1,313.3 146.6,310.3 142.1,311.1 142.5,314 
					137.9,314.8 137.4,311.9 132.9,312.7 133.3,315.5 130.5,316 122.8,311 145.8,307 199,297.6 209.7,297.6 				"/>
				<polygon class="st7" points="209.7,238.4 209.7,297.6 199,297.6 145.8,307 145.8,306.8 109.8,279.1 153.5,261.3 166.5,256 				
					"/>
				<polygon class="st5" points="209.7,226 209.7,238.4 199.3,240.8 167.6,248.1 166.5,248.4 143,253.8 65.3,271.8 64.5,273.6 
					62.6,272.5 62.1,272.1 60.4,271 60.4,265 65.3,263.7 143,243.4 166.5,237.3 167.4,237.1 199.3,228.8 				"/>
				<path class="st9" d="M209.7,238.4L166.5,256l-13,5.3l-43.8,17.9l36,27.7l0,0.2l-23,4.1c-11.9-7.6-21.3-13.6-30.7-19.7
					c-8.6-5.5-17.2-11-27.6-17.7l0.8-1.8l77.7-18l23.5-5.5l1.1-0.3l31.6-7.3L209.7,238.4z"/>
				<polygon class="st8" points="166.5,216.9 166.5,237.3 143,243.4 143,216.9 				"/>
				<path class="st39" d="M166.5,214.3v2.6H143v-2.6c1.9-0.9,3-1.4,4.8-2.3h13.8C163.6,212.9,164.6,213.4,166.5,214.3z"/>
				<path class="st9" d="M60.4,265l0,6.1c-2.2-1.4-4.4-2.8-6.7-4.3L60.4,265z"/>
			</g>
			<g>
				<polyline class="st41" points="272.3,369.4 286.6,361.4 290.3,359.3 315.9,345 332.6,345 272.3,384 272.3,371.4 				"/>
				<line class="st41" x1="272.3" y1="369.4" x2="272.3" y2="371.4"/>
				<polyline class="st41" points="272.3,353.2 272.3,361.4 227.7,361.4 				"/>
				<polyline class="st41" points="272.3,333 272.3,353.2 227.7,353.2 				"/>
				<polyline class="st41" points="227.7,333 227.7,353.2 227.7,361.4 				"/>
				<path class="st41" d="M272.3,371.4c0,3.9-3.1,7-7,7h-30.7c-3.3,0-6.1-2.3-6.8-5.4"/>
				<polyline class="st41" points="286.9,120.9 286.9,184.3 286.9,184.6 				"/>
				<line class="st41" x1="275.9" y1="149" x2="275.9" y2="120.9"/>
				<line class="st41" x1="224.1" y1="120.9" x2="224.1" y2="148.8"/>
				<polyline class="st41" points="213.1,184.4 213.1,184.3 213.1,120.9 				"/>
				<path class="st41" d="M288.8,190.9c1,4.3,1.5,8.8,1.5,13.4V226"/>
				<path class="st41" d="M286.9,184.3c0.8,2.1,1.4,4.3,1.9,6.6"/>
				<polyline class="st41" points="272.4,137.6 272.5,138.1 275.9,149 286.9,184.6 286.9,184.7 286.9,184.7 286.9,184.7 
					288.8,190.8 288.8,190.9 288.8,190.9 				"/>
				<polyline class="st41" points="213.1,184.4 213.1,184.4 224.1,148.8 227.5,138 				"/>
				<path class="st41" d="M209.7,226v-21.7c0-5,0.6-9.8,1.7-14.4c0.5-1.9,1.1-3.9,1.7-5.7"/>
				<polyline class="st41" points="290.3,326.6 290.3,315.5 290.3,304.7 				"/>
				<line class="st41" x1="209.7" y1="326.6" x2="209.7" y2="304.7"/>
				<line class="st41" x1="290.3" y1="304.7" x2="290.2" y2="304.7"/>
				<line class="st41" x1="209.8" y1="304.7" x2="209.7" y2="304.7"/>
				<line class="st41" x1="224.1" y1="226" x2="209.7" y2="226"/>
				<line class="st41" x1="290.3" y1="226" x2="275.9" y2="226"/>
				<polyline class="st41" points="272.4,137.6 272.4,137.4 272.3,137.4 				"/>
				<polyline class="st41" points="275.9,226 275.3,212 274.5,190.8 273.2,158.8 272.8,147.3 				"/>
				<polyline class="st41" points="227.7,322 215.5,325.1 209.7,326.6 158.7,339.4 227.7,384 227.7,383.9 				"/>
				<line class="st41" x1="227.7" y1="369.2" x2="227.7" y2="361.4"/>
				<line class="st41" x1="250" y1="272.6" x2="250" y2="226"/>
				<polyline class="st41" points="290.3,326.6 341.3,339.4 332.6,345 				"/>
				<line class="st41" x1="272.3" y1="369.4" x2="272.3" y2="361.4"/>
				<path class="st41" d="M224.1,120.9v-0.7c-1.3-1.3-2-2-3.3-3.3h-4.5c-1.3,1.3-2,2-3.3,3.3v0.7H224.1z"/>
				<path class="st41" d="M286.9,120.9v-0.7c-1.3-1.3-2-2-3.3-3.3h-4.5c-1.3,1.3-2,2-3.3,3.3v0.7H286.9z"/>
				<polyline class="st41" points="272.3,322 273.4,322.3 274.2,322.5 290.3,326.6 				"/>
				<polyline class="st41" points="272.3,333 272.3,322 272.3,316.6 				"/>
				<polyline class="st41" points="227.7,316.6 227.7,322 227.7,333 				"/>
				<polyline class="st41" points="227.7,304.7 227.7,311.3 227.7,316.6 				"/>
				<polyline class="st41" points="272.3,316.6 272.3,311.3 272.3,304.7 				"/>
				<line class="st41" x1="272" y1="333" x2="227.7" y2="333"/>
				<line class="st41" x1="227.9" y1="369.4" x2="272.3" y2="369.4"/>
				<polygon class="st41" points="227.7,383.9 208.4,371.4 167.6,345 184.2,344.9 209.7,359.1 227.6,369.2 227.7,369.2 227.9,369.3 
					227.9,369.4 227.9,373 227.9,384 				"/>
				<polyline class="st41" points="209.7,304 209.8,304.7 222.6,304.7 				"/>
				<polyline class="st41" points="277.4,304.7 277.4,282.7 269.3,273.5 262.1,273.5 250,273.5 230.7,273.5 222.6,282.7 
					222.6,304.7 227.7,304.7 243.4,304.7 250,304.7 256.6,304.7 				"/>
				<polyline class="st41" points="290.3,304 290.2,304.7 277.4,304.7 272.3,304.7 256.6,304.7 				"/>
				<line class="st41" x1="259.6" y1="137.4" x2="259.6" y2="181.7"/>
				<line class="st41" x1="240.4" y1="137.4" x2="240.4" y2="181.7"/>
				<polyline class="st41" points="227.3,147.3 225.6,190.2 225.6,190.2 225.4,194.5 				"/>
				<polyline class="st41" points="224.7,212 225.4,194.5 230.4,190.2 230.4,190.2 240.4,181.7 259.6,181.7 270.2,190.7 
					274.6,194.5 275.3,212 				"/>
				<polyline class="st41" points="277.4,282.7 276,230 275.9,226 				"/>
				<polyline class="st41" points="222.6,282.7 224,230 224.1,226 224.7,212 250,226 275.3,212 				"/>
				<polyline class="st41" points="290.2,304.7 272.3,316.6 253.6,312.1 250,311.3 246.4,312.1 227.7,316.6 209.9,304.9 
					209.7,304.7 				"/>
				<path class="st41" d="M272.8,147.3l-0.2-9.2l-0.2-8.7c-0.6-6.4-5.7-11.7-12.6-13.4v13.4h-19.3V116c-6.9,1.7-12.1,7-12.6,13.4
					h-0.1l-0.2,8.6l-0.2,9.1l0,0.3l13.1-9.9h19.3L272.8,147.3z"/>
				<line class="st41" x1="143" y1="243.4" x2="143" y2="216.9"/>
				<line class="st41" x1="166.5" y1="216.9" x2="166.5" y2="237.3"/>
				<path class="st41" d="M143,216.9v-2.6c1.9-0.9,3-1.4,4.8-2.3h13.8c1.9,0.9,3,1.4,4.8,2.3v2.6H143z"/>
				<path class="st41" d="M60.4,271c-2.2-1.4-4.4-2.8-6.7-4.3l6.7-1.8"/>
				<path class="st41" d="M122.8,311c-11.9-7.6-21.3-13.6-30.7-19.7c-8.6-5.5-17.2-11-27.6-17.7"/>
				<polyline class="st41" points="209.7,304.7 198.9,304.7 197.8,304.9 193.2,305.6 192.6,302.5 188.1,303.3 188.6,306.4 
					184,307.2 183.4,304.1 178.9,304.9 179.4,307.9 174.8,308.7 174.3,305.6 169.6,306.4 170.2,309.5 165.6,310.2 165.1,307.2 
					160.4,308 161,311 156.4,311.7 155.9,308.8 151.3,309.5 151.8,312.5 147.1,313.3 146.6,310.3 142.1,311.1 142.5,314 
					137.9,314.8 137.4,311.9 132.9,312.7 133.3,315.5 130.5,316 122.8,311 145.8,307 199,297.6 209.7,297.6 209.7,304 				"/>
				<polygon class="st41" points="60.4,265 65.3,263.7 143,243.4 166.5,237.3 167.4,237.1 199.3,228.8 209.7,226 209.7,238.4 
					199.3,240.8 167.6,248.1 166.5,248.4 143,253.8 65.3,271.8 64.5,273.6 62.6,272.5 62.1,272.1 60.4,271 				"/>
				<polyline class="st41" points="145.8,306.8 109.8,279.1 153.5,261.3 166.5,256 209.7,238.4 209.7,297.6 				"/>
				<line class="st41" x1="357" y1="243.4" x2="357" y2="216.9"/>
				<line class="st41" x1="333.5" y1="216.9" x2="333.5" y2="237.3"/>
				<path class="st41" d="M357,216.9v-2.6c-1.9-0.9-3-1.4-4.8-2.3h-13.8c-1.9,0.9-3,1.4-4.8,2.3v2.6H357z"/>
				<path class="st41" d="M439.6,271c2.1-1.4,4.4-2.8,6.7-4.3l-6.7-1.8"/>
				<path class="st41" d="M377.2,311c11.9-7.6,21.3-13.6,30.7-19.7c8.6-5.5,17.2-11,27.6-17.7"/>
				<polyline class="st41" points="290.3,304.7 301.1,304.7 302.2,304.9 306.8,305.6 307.4,302.5 312,303.3 311.4,306.4 316,307.2 
					316.5,304.1 321.1,304.9 320.6,307.9 325.2,308.7 325.8,305.6 330.4,306.4 329.8,309.5 334.4,310.2 335,307.2 339.5,308 
					339,311 343.6,311.7 344.1,308.8 348.8,309.5 348.3,312.5 352.9,313.3 353.4,310.3 358,311.1 357.5,314 362.1,314.8 
					362.5,311.9 367.1,312.7 366.7,315.5 369.5,316 377.2,311 354.2,307 301,297.6 290.3,297.6 290.3,304 				"/>
				<polygon class="st41" points="439.6,265 434.7,263.7 357,243.4 333.5,237.3 332.5,237.1 300.8,228.8 290.3,226 290.3,238.4 
					300.8,240.8 332.4,248.1 333.5,248.4 357,253.8 434.7,271.8 435.5,273.6 437.4,272.5 437.9,272.1 439.6,271 				"/>
				<polyline class="st41" points="354.3,306.8 390.3,279.1 346.5,261.3 333.5,256 290.3,238.4 290.3,297.6 				"/>
			</g>
		</g>
	</g>
</g>
<g id="Spaceship2" class="st0">
	<g id="XMLID_22_" class="st40">
		<g>
			<path class="st9" d="M435.5,242.5v44.8c0,15.5-12.5,28.1-28,28.1h-1.1c6-5.8,9.5-11.6,11.6-16.6c11.8-27.7,0.1-67.1-27.5-86.8
				c-28.2-20.1-69.8-17.4-99.3,8.3l-1.3,1.1c-0.8-19.2-3-37.1-6.3-52.6h32.1h15.8H355h8.5c3.9,0,7.7,0.3,11.5,0.9
				C409.3,175.4,435.5,205.8,435.5,242.5z"/>
			<path class="st6" d="M390.5,212.1c27.6,19.7,39.3,59,27.5,86.8c-2.1,5-5.6,10.8-11.6,16.6c1.5-4.6,2.4-9.6,2.4-14.8
				c0-25.5-20.2-46.2-45.2-46.2s-45.2,20.7-45.2,46.2c0,5.2,0.9,10.2,2.4,14.8h-15.6c1.8-7.5-19.7-15.6-18.5-24.2
				c2.3-16,3.6-33.7,3.6-52.4c0-5.9-0.1-11.7-0.4-17.4l1.3-1.1C320.7,194.6,362.3,192,390.5,212.1z"/>
			<path class="st7" d="M375,142.6v27.2c-3.7-0.6-7.6-0.9-11.5-0.9H355v-26.3H375z"/>
			<path class="st39" d="M375,141.5v1.1h-20v-1.1c2.5-2.5,3.9-3.9,6.5-6.5h7.1C371,137.5,372.5,138.9,375,141.5z"/>
			<polygon class="st5" points="373.3,366.5 358.9,374.8 305.2,351.7 329.3,340.4 			"/>
			<polygon class="st10" points="373.3,366.5 329.3,340.4 320.9,315.4 			"/>
			<rect x="315.8" y="150.1" class="st7" width="15.8" height="18.7"/>
			<path class="st39" d="M331.6,147.5v2.5h-15.8v-2.5c1.9-1.9,3-3,5-4.9h5.9C328.6,144.5,329.7,145.6,331.6,147.5z"/>
			<path class="st8" d="M320.9,315.4l8.4,25L250,358.2l-79.3-17.8l8.4-25h15.6h23.1h12.1h40.2h12.1h23.1H320.9z M270.6,339.3V338
				c0-2.3-1.8-4.1-4.1-4.1h-5.4c2.3,0,4.1-1.8,4.1-4.1v-1.9c0-2.3-1.8-4.1-4.1-4.1h-22.2c-2.3,0-4.1,1.8-4.1,4.1v1.9
				c0,2.3,1.8,4.1,4.1,4.1h-5.4c-2.3,0-4.1,1.8-4.1,4.1v1.3c0,2.3,1.8,4.1,4.1,4.1h33C268.8,343.4,270.6,341.5,270.6,339.3z"/>
			<polygon class="st9" points="329.3,340.4 305.2,351.7 275.4,365.8 251,377.3 249,377.3 224.6,365.8 194.8,351.7 170.8,340.4 
				250,358.2 			"/>
			<path class="st7" d="M286.8,291.2c-1.2,8.6,20.3,16.7,18.5,24.2h-23.1h-12.1v-92.1c0-5.5-2.3-10.6-5.9-14.2
				c-3.6-3.6-8.7-5.9-14.2-5.9c-11.1,0-20.1,9-20.1,20.1v92.1h-12.1h-23.1c-1.8-7.5,19.7-15.6,18.5-24.2c-2.3-16-3.6-33.7-3.6-52.4
				c0-5.9,0.1-11.7,0.4-17.4c0.8-19.2,3-37.1,6.3-52.6c3.2-15.1,7.3-27.9,12.2-37.6c5.3,5.8,13,9.5,21.5,9.5
				c8.5,0,16.2-3.7,21.5-9.5c4.9,9.6,9,22.5,12.2,37.6c3.3,15.5,5.5,33.3,6.3,52.6c0.3,5.7,0.4,11.5,0.4,17.4
				C290.3,257.5,289.1,275.2,286.8,291.2z M272.4,186v-15.4c0-11.9-9.6-21.5-21.5-21.5H250h-0.9c-11.9,0-21.5,9.6-21.5,21.5V186
				c0,3.6,0.9,7.1,2.5,10.1l19.9-26.9l19.9,26.9C271.5,193.1,272.4,189.7,272.4,186z"/>
			<path class="st39" d="M305.2,382.5v1.8c0,2.2-1.8,3.9-3.9,3.9h-21.9c-2.2,0-3.9-1.8-3.9-3.9v-1.8H305.2z"/>
			<polygon class="st7" points="305.2,351.7 305.2,382.5 275.4,382.5 275.4,365.8 			"/>
			<path class="st9" d="M272.4,170.6V186c0,3.6-0.9,7.1-2.5,10.1L250,169.2v-20h0.9C262.8,149.1,272.4,158.8,272.4,170.6z"/>
			<path class="st6" d="M270.6,338v1.3c0,2.3-1.8,4.1-4.1,4.1h-33c-2.3,0-4.1-1.8-4.1-4.1V338c0-2.3,1.8-4.1,4.1-4.1h5.4h22.2h5.4
				C268.8,333.9,270.6,335.7,270.6,338z"/>
			<path class="st8" d="M270.1,223.3v92.1h-40.2v-92.1l20.1,39L270.1,223.3z M262.3,300.3V282c0-1.1-0.5-2.2-1.2-2.9
				c-0.8-0.7-1.8-1.2-2.9-1.2c-2.3,0-4.1,1.8-4.1,4.1c0-1.1-0.5-2.2-1.2-2.9c-0.8-0.7-1.8-1.2-2.9-1.2c-2.3,0-4.1,1.8-4.1,4.1
				c0-2.3-1.8-4.1-4.1-4.1h0c-2.3,0-4.1,1.8-4.1,4.1v18.3c0,2.3,1.8,4.1,4.1,4.1h0c2.3,0,4.1-1.8,4.1-4.1c0,2.3,1.8,4.1,4.1,4.1
				s4.1-1.8,4.1-4.1c0,2.3,1.8,4.1,4.1,4.1h0C260.5,304.4,262.3,302.6,262.3,300.3z"/>
			<path class="st9" d="M270.1,223.3l-20.1,39l-20.1-39c0-11.1,9-20.1,20.1-20.1c5.5,0,10.6,2.2,14.2,5.9
				C267.8,212.8,270.1,217.8,270.1,223.3z"/>
			<path class="st6" d="M265.2,327.9v1.9c0,2.3-1.8,4.1-4.1,4.1h-22.2c-2.3,0-4.1-1.8-4.1-4.1v-1.9c0-2.3,1.8-4.1,4.1-4.1h22.2
				C263.4,323.8,265.2,325.6,265.2,327.9z"/>
			<path class="st8" d="M271.5,131.3c-5.3,5.8-13,9.5-21.5,9.5c-8.5,0-16.2-3.7-21.5-9.5c6.2-12.3,13.6-19.5,21.5-19.5
				C257.9,111.8,265.3,118.9,271.5,131.3z"/>
			<path class="st6" d="M262.3,282v18.3c0,2.3-1.8,4.1-4.1,4.1h0c-2.3,0-4.1-1.8-4.1-4.1V282c0-2.3,1.8-4.1,4.1-4.1
				c1.1,0,2.2,0.5,2.9,1.2C261.9,279.9,262.3,280.9,262.3,282z"/>
			<path class="st6" d="M254.1,282v18.3c0,2.3-1.8,4.1-4.1,4.1s-4.1-1.8-4.1-4.1V282c0-2.3,1.8-4.1,4.1-4.1c1.1,0,2.2,0.5,2.9,1.2
				C253.6,279.9,254.1,280.9,254.1,282z"/>
			<path class="st9" d="M250,149.1v20l-19.9,26.9c-1.6-3-2.5-6.4-2.5-10.1v-15.4c0-11.9,9.6-21.5,21.5-21.5H250z"/>
			<path class="st6" d="M245.9,282v18.3c0,2.3-1.8,4.1-4.1,4.1h0c-2.3,0-4.1-1.8-4.1-4.1V282c0-2.3,1.8-4.1,4.1-4.1h0
				C244.1,277.9,245.9,279.7,245.9,282z"/>
			<path class="st39" d="M224.6,382.5v1.8c0,2.2-1.8,3.9-3.9,3.9h-21.9c-2.2,0-3.9-1.8-3.9-3.9v-1.8H224.6z"/>
			<polygon class="st7" points="224.6,365.8 224.6,382.5 194.8,382.5 194.8,351.7 			"/>
			<path class="st9" d="M184.2,168.8h32.1c-3.3,15.5-5.5,33.3-6.3,52.6l-1.3-1.1c-29.5-25.7-71-28.3-99.3-8.3
				c-27.7,19.7-39.3,59-27.5,86.8c2.1,5,5.6,10.8,11.6,16.6h-1.1c-15.5,0-28-12.6-28-28.1v-44.8c0-36.7,26.2-67.1,60.5-72.7
				c3.7-0.6,7.6-0.9,11.5-0.9h8.5h23.4H184.2z"/>
			<path class="st6" d="M213.2,291.2c1.2,8.6-20.3,16.7-18.5,24.2h-15.6c1.5-4.6,2.4-9.6,2.4-14.8c0-25.5-20.2-46.2-45.2-46.2
				s-45.2,20.7-45.2,46.2c0,5.2,0.8,10.2,2.4,14.8c-6-5.8-9.5-11.6-11.6-16.6c-11.8-27.7-0.2-67.1,27.5-86.8
				c28.2-20.1,69.8-17.4,99.3,8.3l1.3,1.1c-0.3,5.7-0.4,11.5-0.4,17.4C209.7,257.5,210.9,275.2,213.2,291.2z"/>
			<polygon class="st5" points="194.8,351.7 141.1,374.8 126.7,366.5 170.8,340.4 			"/>
			<rect x="168.4" y="150.1" class="st7" width="15.8" height="18.7"/>
			<path class="st39" d="M184.2,147.5v2.5h-15.8v-2.5c1.9-1.9,3-3,4.9-4.9h5.9C181.2,144.5,182.3,145.6,184.2,147.5z"/>
			<polygon class="st10" points="179.1,315.4 170.8,340.4 126.7,366.5 			"/>
			<path class="st7" d="M145,142.6v26.3h-8.5c-3.9,0-7.7,0.3-11.5,0.9v-27.2H145z"/>
			<path class="st39" d="M145,141.5v1.1h-20v-1.1c2.5-2.5,3.9-3.9,6.5-6.5h7C141.1,137.5,142.5,138.9,145,141.5z"/>
		</g>
		<g>
			<path class="st41" d="M305.2,315.4c1.8-7.5-19.7-15.6-18.5-24.2c2.3-16,3.6-33.7,3.6-52.4c0-5.9-0.1-11.7-0.4-17.4
				c-0.8-19.2-3-37.1-6.3-52.6c-3.2-15.1-7.3-27.9-12.2-37.6c-6.2-12.3-13.6-19.5-21.5-19.5c-7.9,0-15.3,7.1-21.5,19.5
				c-4.9,9.6-9,22.5-12.2,37.6c-3.3,15.5-5.5,33.3-6.3,52.6c-0.3,5.7-0.4,11.5-0.4,17.4c0,18.7,1.3,36.4,3.6,52.4
				c1.2,8.6-20.3,16.7-18.5,24.2"/>
			<path class="st41" d="M270.1,315.4h12.1h23.1h15.6c-1.5-4.6-2.4-9.6-2.4-14.8c0-25.5,20.2-46.2,45.2-46.2s45.2,20.7,45.2,46.2
				c0,5.2-0.9,10.2-2.4,14.8h1.1c15.5,0,28-12.6,28-28.1v-44.8c0-36.7-26.2-67.1-60.5-72.7c-3.7-0.6-7.6-0.9-11.5-0.9H355h-23.4
				h-15.8h-32.1"/>
			<path class="st41" d="M216.3,168.8h-32.1h-15.8H145h-8.5c-3.9,0-7.7,0.3-11.5,0.9c-34.3,5.6-60.5,36-60.5,72.7v44.8
				c0,15.5,12.5,28.1,28,28.1h1.1c-1.5-4.6-2.4-9.6-2.4-14.8c0-25.5,20.2-46.2,45.2-46.2s45.2,20.7,45.2,46.2
				c0,5.2-0.9,10.2-2.4,14.8h15.6h23.1h12.1"/>
			<polyline class="st41" points="194.8,351.7 170.8,340.4 179.1,315.4 			"/>
			<polyline class="st41" points="320.9,315.4 329.3,340.4 305.2,351.7 275.4,365.8 251,377.3 249,377.3 224.6,365.8 194.8,351.7 
							"/>
			<line class="st41" x1="194.8" y1="382.5" x2="194.8" y2="351.7"/>
			<line class="st41" x1="224.6" y1="365.8" x2="224.6" y2="382.5"/>
			<line class="st41" x1="275.4" y1="382.5" x2="275.4" y2="365.8"/>
			<line class="st41" x1="305.2" y1="351.7" x2="305.2" y2="382.5"/>
			<polyline class="st41" points="320.9,315.4 373.3,366.5 358.9,374.8 305.2,351.7 			"/>
			<polyline class="st41" points="179.1,315.4 126.7,366.5 141.1,374.8 194.8,351.7 			"/>
			<path class="st41" d="M93.6,315.4c-6-5.8-9.5-11.6-11.6-16.6c-11.8-27.7-0.2-67.1,27.5-86.8c28.2-20.1,69.8-17.4,99.3,8.3
				l1.3,1.1"/>
			<path class="st41" d="M406.4,315.4c6-5.8,9.5-11.6,11.6-16.6c11.8-27.7,0.1-67.1-27.5-86.8c-28.2-20.1-69.8-17.4-99.3,8.3
				l-1.3,1.1"/>
			<path class="st41" d="M228.5,131.3c5.3,5.8,13,9.5,21.5,9.5c8.5,0,16.2-3.7,21.5-9.5"/>
			<path class="st41" d="M250,169.2l19.9,26.9c1.6-3,2.5-6.4,2.5-10.1v-15.4c0-11.9-9.6-21.5-21.5-21.5H250h-0.9
				c-11.9,0-21.5,9.6-21.5,21.5V186c0,3.6,0.9,7.1,2.5,10.1L250,169.2z"/>
			<line class="st41" x1="250" y1="169.2" x2="250" y2="149.1"/>
			<path class="st41" d="M270.1,315.4h-40.2v-92.1c0-11.1,9-20.1,20.1-20.1c5.5,0,10.6,2.2,14.2,5.9c3.6,3.6,5.9,8.7,5.9,14.2V315.4
				z"/>
			<polyline class="st41" points="229.9,223.3 250,262.3 270.1,223.3 			"/>
			<path class="st41" d="M245.9,282c0-2.3,1.8-4.1,4.1-4.1c1.1,0,2.2,0.5,2.9,1.2c0.7,0.8,1.2,1.8,1.2,2.9"/>
			<path class="st41" d="M254.1,300.3c0,2.3-1.8,4.1-4.1,4.1s-4.1-1.8-4.1-4.1"/>
			<path class="st41" d="M254.1,282c0-2.3,1.8-4.1,4.1-4.1c1.1,0,2.2,0.5,2.9,1.2c0.7,0.8,1.2,1.8,1.2,2.9v18.3
				c0,2.3-1.8,4.1-4.1,4.1h0c-2.3,0-4.1-1.8-4.1-4.1V282z"/>
			<path class="st41" d="M245.9,300.3c0,2.3-1.8,4.1-4.1,4.1h0c-2.3,0-4.1-1.8-4.1-4.1V282c0-2.3,1.8-4.1,4.1-4.1h0
				c2.3,0,4.1,1.8,4.1,4.1V300.3z"/>
			<line class="st41" x1="145" y1="142.6" x2="145" y2="168.8"/>
			<line class="st41" x1="125" y1="169.7" x2="125" y2="142.6"/>
			<line class="st41" x1="184.2" y1="150.1" x2="184.2" y2="168.8"/>
			<line class="st41" x1="168.4" y1="150" x2="184.2" y2="150"/>
			<line class="st41" x1="168.4" y1="168.8" x2="168.4" y2="150.1"/>
			<path class="st41" d="M145,142.6v-1.1c-2.5-2.5-3.9-3.9-6.5-6.5h-7c-2.5,2.5-3.9,3.9-6.5,6.5v1.1H145z"/>
			<path class="st41" d="M184.2,150v-2.5c-1.9-1.9-3-3-4.9-4.9h-5.9c-1.9,1.9-3,3-4.9,4.9v2.5v0.1L184.2,150L184.2,150z"/>
			<line class="st41" x1="375" y1="142.6" x2="375" y2="169.7"/>
			<line class="st41" x1="355" y1="168.8" x2="355" y2="142.6"/>
			<line class="st41" x1="331.6" y1="150.1" x2="331.6" y2="168.8"/>
			<line class="st41" x1="315.8" y1="150" x2="331.6" y2="150"/>
			<line class="st41" x1="315.8" y1="168.8" x2="315.8" y2="150.1"/>
			<path class="st41" d="M355,142.6v-1.1c2.5-2.5,3.9-3.9,6.5-6.5h7.1c2.5,2.5,3.9,3.9,6.5,6.5v1.1H355z"/>
			<path class="st41" d="M315.8,150v-2.5c1.9-1.9,3-3,5-4.9h5.9c1.9,1.9,3,3,4.9,4.9v2.5v0.1L315.8,150L315.8,150z"/>
			<path class="st41" d="M305.2,382.5v1.8c0,2.2-1.8,3.9-3.9,3.9h-21.9c-2.2,0-3.9-1.8-3.9-3.9v-1.8H305.2z"/>
			<path class="st41" d="M224.6,382.5v1.8c0,2.2-1.8,3.9-3.9,3.9h-21.9c-2.2,0-3.9-1.8-3.9-3.9v-1.8H224.6z"/>
			<polyline class="st41" points="126.7,366.5 170.8,340.4 250,358.2 329.3,340.4 373.3,366.5 			"/>
			<path class="st41" d="M238.9,333.9c-2.3,0-4.1-1.8-4.1-4.1v-1.9c0-2.3,1.8-4.1,4.1-4.1h22.2c2.3,0,4.1,1.8,4.1,4.1v1.9
				c0,2.3-1.8,4.1-4.1,4.1"/>
			<path class="st41" d="M261.1,333.9h5.4c2.3,0,4.1,1.8,4.1,4.1v1.3c0,2.3-1.8,4.1-4.1,4.1h-33c-2.3,0-4.1-1.8-4.1-4.1V338
				c0-2.3,1.8-4.1,4.1-4.1h5.4H261.1z"/>
		</g>
	</g>
</g>
<g id="Spaceship3" class="st0">
	<g class="st40">
		<g id="XMLID_8_">
			<g>
				<path class="st6" d="M291.9,243.7c1.5,0,2.8-1.3,2.8-2.8c0-1.5-1.3-2.8-2.8-2.8s-2.8,1.3-2.8,2.8
					C289.1,242.4,290.3,243.7,291.9,243.7z M304.5,257.3c3,0,5.5-2.5,5.5-5.5c0-3-2.5-5.5-5.5-5.5c-3,0-5.5,2.5-5.5,5.5
					C299,254.9,301.5,257.3,304.5,257.3z M302,237.5c3.1,2.2,6.2,3.2,9.2,2.6c1.6-0.3,3.1-1.2,4.6-2.4c9.8-8.4,15.2-36.1,14.7-61.7
					c2.7,1,5.7,1.5,8.8,1.5c5.9,0,11.4-2,15.8-5.4c4.5,18,6.8,45.3-4.7,73c-2.1,5.1-15.2,35.5-44.6,49.2v-11.7c0-8.8-7.2-16-16-16
					H277v-3.9V262l8.3-12.7l-8.3-21.5v-1.8v-26.1l0.8,2.4C280.7,208.5,291,229.8,302,237.5z"/>
				<path class="st9" d="M350.3,157.9c1.5,3.6,3.2,8.4,4.7,14.3c-4.3,3.4-9.8,5.4-15.8,5.4c-3.1,0-6-0.5-8.8-1.5
					c-0.1-4.1-0.3-8.2-0.7-12.2c-1-10.3-3.4-19.2-6-26.4c2.2-0.5,5.5-1,9.3,0.2C342.8,140.5,347.7,152,350.3,157.9z"/>
				<path class="st9" d="M323.7,364.7l2.1,7.6l-17.5,4.8c-2.6-1.5-5-2.9-7.3-4.2l2.8-5.8l14.1-4.8L323.7,364.7z"/>
				<path class="st39" d="M313.3,214.8c1,1,1.5,1.5,2.5,2.5v3.8H302v-3.8c1-1,1.5-1.5,2.5-2.5H313.3z"/>
				<path class="st8" d="M276.8,310.6c16.6-4.5,33.7,5.3,38.1,21.9l8.8,32.2l-5.8-2.4l-14.1,4.8l-2.8,5.8
					c-12.7-7.3-22.1-12.7-34.7-19.9c-2.6-1.5-5.3-3-8.2-4.7l-4.5-16.7L276.8,310.6z"/>
				<path class="st7" d="M311.2,240.1c-3,0.6-6.1-0.4-9.2-2.6v-16.4h13.8v16.6C314.4,238.9,312.8,239.8,311.2,240.1z"/>
				<path class="st8" d="M305.7,294.4v10l-7.2-1.5v-14c0-1.7-1.4-3.1-3.1-3.1h-4h-4c-1.7,0-3.1,1.4-3.1,3.1v11l-7.2-1.5v-31.6h12.7
					c8.8,0,16,7.2,16,16V294.4z"/>
				<circle class="st10" cx="304.5" cy="251.8" r="5.5"/>
				<path class="st9" d="M295.4,285.7c1.7,0,3.1,1.4,3.1,3.1v14l-7.2-1.5v-15.6H295.4z"/>
				<circle class="st10" cx="291.9" cy="240.9" r="2.8"/>
				<path class="st10" d="M291.4,285.7v15.6l-7.2-1.5v-11c0-1.7,1.4-3.1,3.1-3.1H291.4z"/>
				<path class="st39" d="M267.4,360.9c2.7,2.8,4.4,6.5,4.4,10.7h-6.9h-29.7h-6.9c0-4.7,2.2-9,5.6-11.8c2.6-2.1,6-3.4,9.6-3.4h13.3
					c3.6,0,7,1.3,9.6,3.4C266.6,360.2,267,360.5,267.4,360.9z"/>
				<path class="st6" d="M258.1,348.3c2.9,1.7,5.6,3.2,8.2,4.7v2.8v4.1c-2.6-2.1-6-3.4-9.6-3.4h-13.3c-3.6,0-7,1.3-9.6,3.4v-4.1V353
					c2.6-1.5,5.3-3,8.2-4.7l4.5-16.7c0.2,0,0.4,0,0.6,0h5.5c0.3,0,0.6,0,1,0L258.1,348.3z"/>
				<path class="st10" d="M265.8,192c0,4.6-3.8,8.4-8.4,8.4h-2.5v0v-27.1c0,0,0-0.1,0-0.1V173h2.5c4.6,0,8.4,3.8,8.4,8.4v0.7v9.1
					V192z"/>
				<path class="st9" d="M254.9,173.1c0,0,0,0.1,0,0.1v27.1l0-23.5V173.1z"/>
				<path class="st9" d="M250,168.3c1.4,0,2.6,0.6,3.5,1.4c0.8,0.9,1.4,2,1.4,3.3v0.1v3.7l0,23.5v0h-9.8l0-18.3v-9
					C245.2,170.4,247.4,168.3,250,168.3z"/>
				<path class="st10" d="M243.9,313c3.6,2.8,8.5,2.8,12.2,0.1l12.4-9.3l8.3,6.8l-23.2,21c-0.3,0-0.6,0-1,0h-5.5c-0.2,0-0.4,0-0.6,0
					l-23.2-21c-0.1,0-0.2-0.1-0.3-0.1l8.6-7.1L243.9,313z"/>
				<path class="st8" d="M234.2,192c0,4.6,3.8,8.4,8.4,8.4h2.5h9.8h2.5c4.6,0,8.4-3.8,8.4-8.4v-0.7v-9.1v-0.7c0-4.6-3.8-8.4-8.4-8.4
					h-2.5c-0.1-1.3-0.6-2.4-1.4-3.3c-0.9-0.9-2.1-1.4-3.5-1.4c-2.6,0-4.8,2.1-4.9,4.7h-2.6c-4.6,0-8.4,3.8-8.4,8.4v0.7v9.1V192z
					 M264.5,161.9c4.6,8.5,9,14.6,12.5,18.8v11v6.5l-11.2,9.3v4.6v18.8c0,7.6-7.1,13.7-15.8,13.7c-4.4,0-8.3-1.5-11.2-4
					c-2.9-2.5-4.6-5.9-4.6-9.7v-20.7v-2.6l-11.5-9.4v-17.5c3.5-4.2,8-10.2,12.5-18.8c0.8,0.5,1.7,0.9,2.5,0.9
					c4.1,0,7.5-6.2,7.5-13.8c0-2.6-0.4-5.1-1.1-7.2c2.5-6.8,4.3-13.2,5.6-18.5l0.1-0.2l0.1,0.2c1.3,5.4,3.2,11.7,5.6,18.5
					c-0.7,2.1-1.1,4.5-1.1,7.2c0,7.6,3.3,13.8,7.4,13.8C262.8,162.8,263.7,162.4,264.5,161.9z"/>
				<path class="st9" d="M245.1,173.3c0-0.1,0-0.2,0-0.2v9l0,18.3V173.3z"/>
				<path class="st10" d="M245.1,173.3v27.1h-2.5c-4.6,0-8.4-3.8-8.4-8.4v-0.7v-9.1v-0.7c0-4.6,3.8-8.4,8.4-8.4h2.6
					C245.1,173.1,245.1,173.2,245.1,173.3z"/>
				<path class="st8" d="M256.2,273.1c0-3.5,2.8-6.5,6.3-6.4c1.6,0,3.1,0.7,4.2,1.8c1.1,1.1,1.8,2.6,1.8,4.3v31l-12.4,9.3
					c-3.6,2.7-8.6,2.7-12.2-0.1l-12.4-9.5V273c0-3.4,2.8-6.5,6.3-6.4c1.6,0,3.1,0.7,4.2,1.8c1.1,1.1,1.8,2.6,1.8,4.3v14.7
					c0,1.7,0.7,3.2,1.8,4.4c0.9,0.9,2.1,1.6,3.5,1.8c0,0,0,0,0,0c0.3,0,0.6,0.1,0.9,0.1s0.6,0,0.9,0c0,0,0,0,0,0
					c3.1-0.4,5.4-3,5.4-6.2V273.1z"/>
				<path class="st7" d="M277,226.1v1.8l8.3,21.5L277,262v0.8v3.9v31.6v5.5v3.4c0,1.2-0.1,2.3-0.2,3.4l-8.3-6.8v-31
					c0-1.7-0.7-3.2-1.8-4.3c-1.1-1.1-2.6-1.7-4.2-1.8c-3.4-0.1-6.3,2.9-6.3,6.4v14.4c0,3.2-2.4,5.8-5.4,6.2c0,0,0,0,0,0
					c-0.3,0-0.6,0.1-0.9,0s-0.6,0-0.9-0.1c0,0,0,0,0,0c-1.4-0.2-2.6-0.9-3.5-1.8c-1.1-1.1-1.8-2.7-1.8-4.4v-14.7
					c0-1.7-0.7-3.2-1.8-4.3c-1.1-1.1-2.6-1.8-4.2-1.8c-3.4-0.1-6.3,2.9-6.3,6.4v30.4l-8.6,7.1c-0.1-1.1-0.2-2.2-0.2-3.3v-3.4v-5.2
					v-31.6v-3.5v-1.9l-0.8-1.2l-7.2-11l7.5-19.4l0.5-1.3v-5.2v-22.6v-2.8l11.5,9.4v2.6v20.7c0,3.8,1.8,7.2,4.6,9.7
					c2.9,2.5,6.8,4,11.2,4c8.7,0,15.8-6.1,15.8-13.7v-18.8v-4.6l11.2-9.3v1.8V226.1z"/>
				<path class="st8" d="M194,294.2v-11.3c0-8.8,7.2-16,16-16h12.7v31.6l-7.2,1.5v-11c0-1.7-1.4-3.1-3.1-3.1h-4h-4.1
					c-1.7,0-3.1,1.4-3.1,3.1v14l-7.2,1.5V294.2z"/>
				<path class="st6" d="M205.4,240.9c0,1.5,1.3,2.8,2.8,2.8c1.5,0,2.8-1.3,2.8-2.8c0-1.5-1.3-2.8-2.8-2.8
					C206.6,238.1,205.4,239.3,205.4,240.9z M189.9,251.8c0,3,2.5,5.5,5.5,5.5c3,0,5.5-2.5,5.5-5.5c0-3-2.5-5.5-5.5-5.5
					C192.4,246.3,189.9,248.8,189.9,251.8z M184.2,237.7c1.4,1.2,2.9,2.1,4.6,2.4c3,0.6,6.1-0.4,9.2-2.6c11-7.7,21.3-29,24.2-35.1
					l0.5-1.5v22.6v5.2l-0.5,1.3l-7.5,19.4l7.2,11l0.8,1.2v1.9v3.5H210c-8.8,0-16,7.2-16,16v11.3c-29.1-13.7-42.2-43.9-44.3-49
					c-11.5-27.7-9.2-55-4.7-73c4.4,3.4,9.8,5.4,15.8,5.4c3.1,0,6-0.5,8.8-1.5C169,201.6,174.4,229.3,184.2,237.7z"/>
				<path class="st10" d="M212.4,285.9c1.7,0,3.1,1.4,3.1,3.1v11l-7.2,1.5v-15.6H212.4z"/>
				<path class="st8" d="M215.5,309.5c2.4,0,4.9,0.4,7.4,1c0.1,0,0.2,0.1,0.3,0.1l23.2,21l-4.5,16.7c-2.9,1.7-5.6,3.2-8.2,4.7
					c-12.6,7.2-22,12.6-34.7,19.9l-2.8-5.8l-14.1-4.8l-5.8,2.4l8.8-32.2c2.4-8.9,8.4-15.8,16.1-19.6c2.3-1.1,4.7-2,7.2-2.6
					C210.6,309.7,213.1,309.5,215.5,309.5z"/>
				<circle class="st10" cx="208.1" cy="240.9" r="2.8"/>
				<path class="st9" d="M208.3,285.9v15.6l-7.2,1.5v-14c0-1.7,1.4-3.1,3.1-3.1H208.3z"/>
				<path class="st9" d="M196.3,367.1l2.8,5.8c-2.3,1.3-4.7,2.7-7.3,4.2l-17.5-4.8l2.1-7.6l5.8-2.4L196.3,367.1z"/>
				<path class="st39" d="M195.5,214.8c1,1,1.5,1.5,2.5,2.5v3.8h-13.8v-3.8c1-1,1.5-1.5,2.5-2.5H195.5z"/>
				<circle class="st10" cx="195.4" cy="251.8" r="5.5"/>
				<path class="st7" d="M198,237.5c-3.1,2.2-6.2,3.2-9.2,2.6c-1.6-0.3-3.1-1.2-4.6-2.4v-16.6H198V237.5z"/>
				<path class="st9" d="M167,137.6c3.7-1.1,7.1-0.7,9.3-0.2c-2.6,7.2-5,16.1-6,26.4c-0.4,3.9-0.6,8-0.7,12.2
					c-2.7,1-5.7,1.5-8.8,1.5c-5.9,0-11.4-2-15.8-5.4c1.5-5.8,3.2-10.7,4.7-14.3C152.3,152,157.2,140.5,167,137.6z"/>
			</g>
			<g>
				<path class="st41" d="M222.7,298.5v5.2v3.4c0,1.1,0.1,2.2,0.2,3.3"/>
				<path class="st41" d="M277,226.1v-26.1v-1.8v-6.5v-11c-3.5-4.2-8-10.2-12.5-18.8c-0.8,0.5-1.7,0.9-2.6,0.9
					c-4.1,0-7.4-6.2-7.4-13.8c0-2.6,0.4-5.1,1.1-7.2c-2.5-6.8-4.3-13.2-5.6-18.5l-0.1-0.2l-0.1,0.2c-1.3,5.4-3.2,11.7-5.6,18.5
					c0.7,2.1,1.1,4.5,1.1,7.2c0,7.6-3.3,13.8-7.5,13.8c-0.9,0-1.8-0.3-2.5-0.9c-4.6,8.5-9,14.6-12.5,18.8v17.5v2.8v22.6"/>
				<line class="st41" x1="222.7" y1="266.9" x2="222.7" y2="263.4"/>
				<line class="st41" x1="277" y1="266.7" x2="277" y2="262.8"/>
				<path class="st41" d="M276.8,310.6c0.2-1.1,0.2-2.3,0.2-3.4v-3.4v-5.5"/>
				<path class="st41" d="M246.5,331.6c0.2,0,0.4,0,0.6,0h5.5c0.3,0,0.6,0,1,0"/>
				<path class="st41" d="M276.8,310.6c16.6-4.5,33.7,5.3,38.1,21.9l8.8,32.2l2.1,7.6l-17.5,4.8c-2.6-1.5-5-2.9-7.3-4.2
					c-12.7-7.3-22.1-12.7-34.7-19.9c-2.6-1.5-5.3-3-8.2-4.7l-4.5-16.7L276.8,310.6z"/>
				<path class="st41" d="M215.5,309.5c2.4,0,4.9,0.4,7.4,1c0.1,0,0.2,0.1,0.3,0.1l23.2,21l-4.5,16.7c-2.9,1.7-5.6,3.2-8.2,4.7
					c-12.6,7.2-22,12.6-34.7,19.9c-2.3,1.3-4.7,2.7-7.3,4.2l-17.5-4.8l2.1-7.6l8.8-32.2c2.4-8.9,8.4-15.8,16.1-19.6
					c2.3-1.1,4.7-2,7.2-2.6"/>
				<polyline class="st41" points="233.8,353 233.8,355.7 233.8,359.9 				"/>
				<polyline class="st41" points="266.2,353 266.2,353 266.2,355.7 266.2,359.9 				"/>
				<path class="st41" d="M266.2,359.9c-2.6-2.1-6-3.4-9.6-3.4h-13.3c-3.6,0-7,1.3-9.6,3.4c-3.4,2.8-5.6,7-5.6,11.8h6.9h29.7h6.9
					c0-4.2-1.7-8-4.4-10.7C267,360.5,266.6,360.2,266.2,359.9z"/>
				<line class="st41" x1="231.5" y1="303.4" x2="222.9" y2="310.5"/>
				<line class="st41" x1="276.8" y1="310.6" x2="268.5" y2="303.8"/>
				<path class="st41" d="M277,199.9l0.8,2.4c2.9,6.1,13.2,27.5,24.2,35.1c3.1,2.2,6.2,3.2,9.2,2.6c1.6-0.3,3.1-1.2,4.6-2.4
					c9.8-8.4,15.2-36.1,14.7-61.7c-0.1-4.1-0.3-8.2-0.7-12.2c-1-10.3-3.4-19.2-6-26.4c2.2-0.5,5.5-1,9.3,0.2
					c9.8,2.9,14.8,14.4,17.3,20.4c1.5,3.6,3.2,8.4,4.7,14.3c4.5,18,6.8,45.3-4.7,73c-2.1,5.1-15.2,35.5-44.6,49.2
					c-0.1,0-0.2,0.1-0.4,0.2"/>
				<path class="st41" d="M330.5,176c2.7,1,5.7,1.5,8.8,1.5c5.9,0,11.4-2,15.8-5.4"/>
				<line class="st41" x1="315.8" y1="221.1" x2="315.8" y2="237.7"/>
				<line class="st41" x1="302" y1="237.5" x2="302" y2="221.1"/>
				<path class="st41" d="M315.8,221.1v-3.8c-1-1-1.5-1.5-2.5-2.5h-8.8c-1,1-1.5,1.5-2.5,2.5v3.8H315.8z"/>
				<polyline class="st41" points="300.9,372.9 303.8,367.1 317.9,362.3 323.7,364.7 				"/>
				<polyline class="st41" points="199.1,372.9 199.1,372.8 196.3,367.1 182.1,362.3 176.3,364.7 				"/>
				<path class="st41" d="M268.5,303.8v-31c0-1.7-0.7-3.2-1.8-4.3c-1.1-1.1-2.6-1.7-4.2-1.8c-3.4-0.1-6.3,2.9-6.3,6.4v14.4
					c0,3.2-2.4,5.8-5.4,6.2c0,0,0,0,0,0c-0.3,0-0.6,0.1-0.9,0s-0.6,0-0.9-0.1c0,0,0,0,0,0c-1.4-0.2-2.6-0.9-3.5-1.8
					c-1.1-1.1-1.8-2.7-1.8-4.4v-14.7c0-1.7-0.7-3.2-1.8-4.3c-1.1-1.1-2.6-1.8-4.2-1.8c-3.4-0.1-6.3,2.9-6.3,6.4v30.4l12.4,9.5
					c3.6,2.8,8.5,2.8,12.2,0.1L268.5,303.8z"/>
				<circle class="st41" cx="304.5" cy="251.8" r="5.5"/>
				<circle class="st41" cx="291.9" cy="240.9" r="2.8"/>
				<path class="st41" d="M305.7,294.4v-11.7c0-8.8-7.2-16-16-16H277v31.6l7.2,1.5l7.2,1.5l7.2,1.5l7.2,1.5V294.4z"/>
				<path class="st41" d="M291.4,285.7h-4c-1.7,0-3.1,1.4-3.1,3.1v11"/>
				<path class="st41" d="M291.4,301.3v-15.6h4c1.7,0,3.1,1.4,3.1,3.1v14"/>
				<path class="st41" d="M194.6,294.5c-0.2-0.1-0.5-0.2-0.7-0.3c-29.1-13.7-42.2-43.9-44.3-49c-11.5-27.7-9.2-55-4.7-73
					c1.5-5.8,3.2-10.7,4.7-14.3c2.6-5.9,7.5-17.4,17.3-20.4c3.7-1.1,7.1-0.7,9.3-0.2c-2.6,7.2-5,16.1-6,26.4
					c-0.4,3.9-0.6,8-0.7,12.2c-0.5,25.6,4.9,53.3,14.7,61.7c1.4,1.2,2.9,2.1,4.6,2.4c3,0.6,6.1-0.4,9.2-2.6
					c11-7.7,21.3-29,24.2-35.1l0.5-1.5l0.3-1"/>
				<path class="st41" d="M145,172.2c4.4,3.4,9.8,5.4,15.8,5.4c3.1,0,6-0.5,8.8-1.5"/>
				<line class="st41" x1="198" y1="221.1" x2="198" y2="237.5"/>
				<line class="st41" x1="184.2" y1="237.7" x2="184.2" y2="221.1"/>
				<path class="st41" d="M184.2,221.1v-3.8c1-1,1.5-1.5,2.5-2.5h8.8c1,1,1.5,1.5,2.5,2.5v3.8H184.2z"/>
				<circle class="st41" cx="195.4" cy="251.8" r="5.5"/>
				<circle class="st41" cx="208.1" cy="240.9" r="2.8"/>
				<path class="st41" d="M208.3,301.5l-7.2,1.5l-7.2,1.5v-10.3v-11.3c0-8.8,7.2-16,16-16h12.7v31.6l-7.2,1.5"/>
				<path class="st41" d="M208.3,285.9h4c1.7,0,3.1,1.4,3.1,3.1v11l-7.2,1.5"/>
				<path class="st41" d="M208.3,310.2c2.3-0.5,4.7-0.8,7.2-0.7"/>
				<path class="st41" d="M208.3,301.5v-15.6h-4.1c-1.7,0-3.1,1.4-3.1,3.1v14"/>
				<path class="st41" d="M277,198.2l-11.2,9.3v4.6v18.8c0,7.6-7.1,13.7-15.8,13.7c-4.4,0-8.3-1.5-11.2-4c-2.9-2.5-4.6-5.9-4.6-9.7
					v-20.7v-2.6l-11.5-9.4"/>
				<polyline class="st41" points="277,226.1 277,227.8 285.3,249.3 277,262 277,262.8 				"/>
				<polyline class="st41" points="222.7,263.4 222.7,261.5 221.9,260.3 214.7,249.3 222.2,229.9 222.7,228.7 222.7,223.5 				"/>
				<path class="st41" d="M254.9,200.3h2.5c4.6,0,8.4-3.8,8.4-8.4v-0.7v-9.1v-0.7c0-4.6-3.8-8.4-8.4-8.4h-2.5
					c-0.1-1.3-0.6-2.4-1.4-3.3c-0.9-0.9-2.1-1.4-3.5-1.4c-2.6,0-4.8,2.1-4.9,4.7h-2.6c-4.6,0-8.4,3.8-8.4,8.4v0.7v9.1v0.7
					c0,4.6,3.8,8.4,8.4,8.4h2.5H254.9z"/>
				<polyline class="st41" points="245.1,200.3 245.1,182 245.1,173 				"/>
				<polyline class="st41" points="254.9,176.8 254.9,173.1 254.9,173 				"/>
				<line class="st41" x1="254.9" y1="200.3" x2="254.9" y2="200.3"/>
				<line class="st41" x1="254.9" y1="200.3" x2="254.9" y2="176.8"/>
			</g>
		</g>
	</g>
</g>
<g id="Spaceship4" class="st0">
	<g class="st49">
		<g id="XMLID_15_">
			<g>
				<path class="st6" d="M291.9,243.7c1.5,0,2.8-1.3,2.8-2.8c0-1.5-1.3-2.8-2.8-2.8s-2.8,1.3-2.8,2.8
					C289.1,242.4,290.3,243.7,291.9,243.7z M304.5,257.3c3,0,5.5-2.5,5.5-5.5c0-3-2.5-5.5-5.5-5.5c-3,0-5.5,2.5-5.5,5.5
					C299,254.9,301.5,257.3,304.5,257.3z M302,237.5c3.1,2.2,6.2,3.2,9.2,2.6c1.6-0.3,3.1-1.2,4.6-2.4c9.8-8.4,15.2-36.1,14.7-61.7
					c2.7,1,5.7,1.5,8.8,1.5c5.9,0,11.4-2,15.8-5.4c4.5,18,6.8,45.3-4.7,73c-2.1,5.1-15.2,35.5-44.6,49.2v-11.7c0-8.8-7.2-16-16-16
					H277v-3.9V262l8.3-12.7l-8.3-21.5v-1.8v-26.1l0.8,2.4C280.7,208.5,291,229.8,302,237.5z"/>
				<path class="st9" d="M350.3,157.9c1.5,3.6,3.2,8.4,4.7,14.3c-4.3,3.4-9.8,5.4-15.8,5.4c-3.1,0-6-0.5-8.8-1.5
					c-0.1-4.1-0.3-8.2-0.7-12.2c-1-10.3-3.4-19.2-6-26.4c2.2-0.5,5.5-1,9.3,0.2C342.8,140.5,347.7,152,350.3,157.9z"/>
				<path class="st9" d="M323.7,364.7l2.1,7.6l-17.5,4.8c-2.6-1.5-5-2.9-7.3-4.2l2.8-5.8l14.1-4.8L323.7,364.7z"/>
				<path class="st39" d="M313.3,214.8c1,1,1.5,1.5,2.5,2.5v3.8H302v-3.8c1-1,1.5-1.5,2.5-2.5H313.3z"/>
				<path class="st8" d="M276.8,310.6c16.6-4.5,33.7,5.3,38.1,21.9l8.8,32.2l-5.8-2.4l-14.1,4.8l-2.8,5.8
					c-12.7-7.3-22.1-12.7-34.7-19.9c-2.6-1.5-5.3-3-8.2-4.7l-4.5-16.7L276.8,310.6z"/>
				<path class="st7" d="M311.2,240.1c-3,0.6-6.1-0.4-9.2-2.6v-16.4h13.8v16.6C314.4,238.9,312.8,239.8,311.2,240.1z"/>
				<path class="st8" d="M305.7,294.4v10l-7.2-1.5v-14c0-1.7-1.4-3.1-3.1-3.1h-4h-4c-1.7,0-3.1,1.4-3.1,3.1v11l-7.2-1.5v-31.6h12.7
					c8.8,0,16,7.2,16,16V294.4z"/>
				<circle class="st10" cx="304.5" cy="251.8" r="5.5"/>
				<path class="st9" d="M295.4,285.7c1.7,0,3.1,1.4,3.1,3.1v14l-7.2-1.5v-15.6H295.4z"/>
				<circle class="st10" cx="291.9" cy="240.9" r="2.8"/>
				<path class="st10" d="M291.4,285.7v15.6l-7.2-1.5v-11c0-1.7,1.4-3.1,3.1-3.1H291.4z"/>
				<path class="st39" d="M267.4,360.9c2.7,2.8,4.4,6.5,4.4,10.7h-6.9h-29.7h-6.9c0-4.7,2.2-9,5.6-11.8c2.6-2.1,6-3.4,9.6-3.4h13.3
					c3.6,0,7,1.3,9.6,3.4C266.6,360.2,267,360.5,267.4,360.9z"/>
				<path class="st6" d="M258.1,348.3c2.9,1.7,5.6,3.2,8.2,4.7v2.8v4.1c-2.6-2.1-6-3.4-9.6-3.4h-13.3c-3.6,0-7,1.3-9.6,3.4v-4.1V353
					c2.6-1.5,5.3-3,8.2-4.7l4.5-16.7c0.2,0,0.4,0,0.6,0h5.5c0.3,0,0.6,0,1,0L258.1,348.3z"/>
				<path class="st10" d="M265.8,192c0,4.6-3.8,8.4-8.4,8.4h-2.5v0v-27.1c0,0,0-0.1,0-0.1V173h2.5c4.6,0,8.4,3.8,8.4,8.4v0.7v9.1
					V192z"/>
				<path class="st9" d="M254.9,173.1c0,0,0,0.1,0,0.1v27.1l0-23.5V173.1z"/>
				<path class="st9" d="M250,168.3c1.4,0,2.6,0.6,3.5,1.4c0.8,0.9,1.4,2,1.4,3.3v0.1v3.7l0,23.5v0h-9.8l0-18.3v-9
					C245.2,170.4,247.4,168.3,250,168.3z"/>
				<path class="st10" d="M243.9,313c3.6,2.8,8.5,2.8,12.2,0.1l12.4-9.3l8.3,6.8l-23.2,21c-0.3,0-0.6,0-1,0h-5.5c-0.2,0-0.4,0-0.6,0
					l-23.2-21c-0.1,0-0.2-0.1-0.3-0.1l8.6-7.1L243.9,313z"/>
				<path class="st8" d="M234.2,192c0,4.6,3.8,8.4,8.4,8.4h2.5h9.8h2.5c4.6,0,8.4-3.8,8.4-8.4v-0.7v-9.1v-0.7c0-4.6-3.8-8.4-8.4-8.4
					h-2.5c-0.1-1.3-0.6-2.4-1.4-3.3c-0.9-0.9-2.1-1.4-3.5-1.4c-2.6,0-4.8,2.1-4.9,4.7h-2.6c-4.6,0-8.4,3.8-8.4,8.4v0.7v9.1V192z
					 M264.5,161.9c4.6,8.5,9,14.6,12.5,18.8v11v6.5l-11.2,9.3v4.6v18.8c0,7.6-7.1,13.7-15.8,13.7c-4.4,0-8.3-1.5-11.2-4
					c-2.9-2.5-4.6-5.9-4.6-9.7v-20.7v-2.6l-11.5-9.4v-17.5c3.5-4.2,8-10.2,12.5-18.8c0.8,0.5,1.7,0.9,2.5,0.9
					c4.1,0,7.5-6.2,7.5-13.8c0-2.6-0.4-5.1-1.1-7.2c2.5-6.8,4.3-13.2,5.6-18.5l0.1-0.2l0.1,0.2c1.3,5.4,3.2,11.7,5.6,18.5
					c-0.7,2.1-1.1,4.5-1.1,7.2c0,7.6,3.3,13.8,7.4,13.8C262.8,162.8,263.7,162.4,264.5,161.9z"/>
				<path class="st9" d="M245.1,173.3c0-0.1,0-0.2,0-0.2v9l0,18.3V173.3z"/>
				<path class="st10" d="M245.1,173.3v27.1h-2.5c-4.6,0-8.4-3.8-8.4-8.4v-0.7v-9.1v-0.7c0-4.6,3.8-8.4,8.4-8.4h2.6
					C245.1,173.1,245.1,173.2,245.1,173.3z"/>
				<path class="st8" d="M256.2,273.1c0-3.5,2.8-6.5,6.3-6.4c1.6,0,3.1,0.7,4.2,1.8c1.1,1.1,1.8,2.6,1.8,4.3v31l-12.4,9.3
					c-3.6,2.7-8.6,2.7-12.2-0.1l-12.4-9.5V273c0-3.4,2.8-6.5,6.3-6.4c1.6,0,3.1,0.7,4.2,1.8c1.1,1.1,1.8,2.6,1.8,4.3v14.7
					c0,1.7,0.7,3.2,1.8,4.4c0.9,0.9,2.1,1.6,3.5,1.8c0,0,0,0,0,0c0.3,0,0.6,0.1,0.9,0.1s0.6,0,0.9,0c0,0,0,0,0,0
					c3.1-0.4,5.4-3,5.4-6.2V273.1z"/>
				<path class="st7" d="M277,226.1v1.8l8.3,21.5L277,262v0.8v3.9v31.6v5.5v3.4c0,1.2-0.1,2.3-0.2,3.4l-8.3-6.8v-31
					c0-1.7-0.7-3.2-1.8-4.3c-1.1-1.1-2.6-1.7-4.2-1.8c-3.4-0.1-6.3,2.9-6.3,6.4v14.4c0,3.2-2.4,5.8-5.4,6.2c0,0,0,0,0,0
					c-0.3,0-0.6,0.1-0.9,0s-0.6,0-0.9-0.1c0,0,0,0,0,0c-1.4-0.2-2.6-0.9-3.5-1.8c-1.1-1.1-1.8-2.7-1.8-4.4v-14.7
					c0-1.7-0.7-3.2-1.8-4.3c-1.1-1.1-2.6-1.8-4.2-1.8c-3.4-0.1-6.3,2.9-6.3,6.4v30.4l-8.6,7.1c-0.1-1.1-0.2-2.2-0.2-3.3v-3.4v-5.2
					v-31.6v-3.5v-1.9l-0.8-1.2l-7.2-11l7.5-19.4l0.5-1.3v-5.2v-22.6v-2.8l11.5,9.4v2.6v20.7c0,3.8,1.8,7.2,4.6,9.7
					c2.9,2.5,6.8,4,11.2,4c8.7,0,15.8-6.1,15.8-13.7v-18.8v-4.6l11.2-9.3v1.8V226.1z"/>
				<path class="st8" d="M194,294.2v-11.3c0-8.8,7.2-16,16-16h12.7v31.6l-7.2,1.5v-11c0-1.7-1.4-3.1-3.1-3.1h-4h-4.1
					c-1.7,0-3.1,1.4-3.1,3.1v14l-7.2,1.5V294.2z"/>
				<path class="st6" d="M205.4,240.9c0,1.5,1.3,2.8,2.8,2.8c1.5,0,2.8-1.3,2.8-2.8c0-1.5-1.3-2.8-2.8-2.8
					C206.6,238.1,205.4,239.3,205.4,240.9z M189.9,251.8c0,3,2.5,5.5,5.5,5.5c3,0,5.5-2.5,5.5-5.5c0-3-2.5-5.5-5.5-5.5
					C192.4,246.3,189.9,248.8,189.9,251.8z M184.2,237.7c1.4,1.2,2.9,2.1,4.6,2.4c3,0.6,6.1-0.4,9.2-2.6c11-7.7,21.3-29,24.2-35.1
					l0.5-1.5v22.6v5.2l-0.5,1.3l-7.5,19.4l7.2,11l0.8,1.2v1.9v3.5H210c-8.8,0-16,7.2-16,16v11.3c-29.1-13.7-42.2-43.9-44.3-49
					c-11.5-27.7-9.2-55-4.7-73c4.4,3.4,9.8,5.4,15.8,5.4c3.1,0,6-0.5,8.8-1.5C169,201.6,174.4,229.3,184.2,237.7z"/>
				<path class="st10" d="M212.4,285.9c1.7,0,3.1,1.4,3.1,3.1v11l-7.2,1.5v-15.6H212.4z"/>
				<path class="st8" d="M215.5,309.5c2.4,0,4.9,0.4,7.4,1c0.1,0,0.2,0.1,0.3,0.1l23.2,21l-4.5,16.7c-2.9,1.7-5.6,3.2-8.2,4.7
					c-12.6,7.2-22,12.6-34.7,19.9l-2.8-5.8l-14.1-4.8l-5.8,2.4l8.8-32.2c2.4-8.9,8.4-15.8,16.1-19.6c2.3-1.1,4.7-2,7.2-2.6
					C210.6,309.7,213.1,309.5,215.5,309.5z"/>
				<circle class="st10" cx="208.1" cy="240.9" r="2.8"/>
				<path class="st9" d="M208.3,285.9v15.6l-7.2,1.5v-14c0-1.7,1.4-3.1,3.1-3.1H208.3z"/>
				<path class="st9" d="M196.3,367.1l2.8,5.8c-2.3,1.3-4.7,2.7-7.3,4.2l-17.5-4.8l2.1-7.6l5.8-2.4L196.3,367.1z"/>
				<path class="st39" d="M195.5,214.8c1,1,1.5,1.5,2.5,2.5v3.8h-13.8v-3.8c1-1,1.5-1.5,2.5-2.5H195.5z"/>
				<circle class="st10" cx="195.4" cy="251.8" r="5.5"/>
				<path class="st7" d="M198,237.5c-3.1,2.2-6.2,3.2-9.2,2.6c-1.6-0.3-3.1-1.2-4.6-2.4v-16.6H198V237.5z"/>
				<path class="st9" d="M167,137.6c3.7-1.1,7.1-0.7,9.3-0.2c-2.6,7.2-5,16.1-6,26.4c-0.4,3.9-0.6,8-0.7,12.2
					c-2.7,1-5.7,1.5-8.8,1.5c-5.9,0-11.4-2-15.8-5.4c1.5-5.8,3.2-10.7,4.7-14.3C152.3,152,157.2,140.5,167,137.6z"/>
			</g>
			<g>
				<path class="st41" d="M222.7,298.5v5.2v3.4c0,1.1,0.1,2.2,0.2,3.3"/>
				<path class="st41" d="M277,226.1v-26.1v-1.8v-6.5v-11c-3.5-4.2-8-10.2-12.5-18.8c-0.8,0.5-1.7,0.9-2.6,0.9
					c-4.1,0-7.4-6.2-7.4-13.8c0-2.6,0.4-5.1,1.1-7.2c-2.5-6.8-4.3-13.2-5.6-18.5l-0.1-0.2l-0.1,0.2c-1.3,5.4-3.2,11.7-5.6,18.5
					c0.7,2.1,1.1,4.5,1.1,7.2c0,7.6-3.3,13.8-7.5,13.8c-0.9,0-1.8-0.3-2.5-0.9c-4.6,8.5-9,14.6-12.5,18.8v17.5v2.8v22.6"/>
				<line class="st41" x1="222.7" y1="266.9" x2="222.7" y2="263.4"/>
				<line class="st41" x1="277" y1="266.7" x2="277" y2="262.8"/>
				<path class="st41" d="M276.8,310.6c0.2-1.1,0.2-2.3,0.2-3.4v-3.4v-5.5"/>
				<path class="st41" d="M246.5,331.6c0.2,0,0.4,0,0.6,0h5.5c0.3,0,0.6,0,1,0"/>
				<path class="st41" d="M276.8,310.6c16.6-4.5,33.7,5.3,38.1,21.9l8.8,32.2l2.1,7.6l-17.5,4.8c-2.6-1.5-5-2.9-7.3-4.2
					c-12.7-7.3-22.1-12.7-34.7-19.9c-2.6-1.5-5.3-3-8.2-4.7l-4.5-16.7L276.8,310.6z"/>
				<path class="st41" d="M215.5,309.5c2.4,0,4.9,0.4,7.4,1c0.1,0,0.2,0.1,0.3,0.1l23.2,21l-4.5,16.7c-2.9,1.7-5.6,3.2-8.2,4.7
					c-12.6,7.2-22,12.6-34.7,19.9c-2.3,1.3-4.7,2.7-7.3,4.2l-17.5-4.8l2.1-7.6l8.8-32.2c2.4-8.9,8.4-15.8,16.1-19.6
					c2.3-1.1,4.7-2,7.2-2.6"/>
				<polyline class="st41" points="233.8,353 233.8,355.7 233.8,359.9 				"/>
				<polyline class="st41" points="266.2,353 266.2,353 266.2,355.7 266.2,359.9 				"/>
				<path class="st41" d="M266.2,359.9c-2.6-2.1-6-3.4-9.6-3.4h-13.3c-3.6,0-7,1.3-9.6,3.4c-3.4,2.8-5.6,7-5.6,11.8h6.9h29.7h6.9
					c0-4.2-1.7-8-4.4-10.7C267,360.5,266.6,360.2,266.2,359.9z"/>
				<line class="st41" x1="231.5" y1="303.4" x2="222.9" y2="310.5"/>
				<line class="st41" x1="276.8" y1="310.6" x2="268.5" y2="303.8"/>
				<path class="st41" d="M277,199.9l0.8,2.4c2.9,6.1,13.2,27.5,24.2,35.1c3.1,2.2,6.2,3.2,9.2,2.6c1.6-0.3,3.1-1.2,4.6-2.4
					c9.8-8.4,15.2-36.1,14.7-61.7c-0.1-4.1-0.3-8.2-0.7-12.2c-1-10.3-3.4-19.2-6-26.4c2.2-0.5,5.5-1,9.3,0.2
					c9.8,2.9,14.8,14.4,17.3,20.4c1.5,3.6,3.2,8.4,4.7,14.3c4.5,18,6.8,45.3-4.7,73c-2.1,5.1-15.2,35.5-44.6,49.2
					c-0.1,0-0.2,0.1-0.4,0.2"/>
				<path class="st41" d="M330.5,176c2.7,1,5.7,1.5,8.8,1.5c5.9,0,11.4-2,15.8-5.4"/>
				<line class="st41" x1="315.8" y1="221.1" x2="315.8" y2="237.7"/>
				<line class="st41" x1="302" y1="237.5" x2="302" y2="221.1"/>
				<path class="st41" d="M315.8,221.1v-3.8c-1-1-1.5-1.5-2.5-2.5h-8.8c-1,1-1.5,1.5-2.5,2.5v3.8H315.8z"/>
				<polyline class="st41" points="300.9,372.9 303.8,367.1 317.9,362.3 323.7,364.7 				"/>
				<polyline class="st41" points="199.1,372.9 199.1,372.8 196.3,367.1 182.1,362.3 176.3,364.7 				"/>
				<path class="st41" d="M268.5,303.8v-31c0-1.7-0.7-3.2-1.8-4.3c-1.1-1.1-2.6-1.7-4.2-1.8c-3.4-0.1-6.3,2.9-6.3,6.4v14.4
					c0,3.2-2.4,5.8-5.4,6.2c0,0,0,0,0,0c-0.3,0-0.6,0.1-0.9,0s-0.6,0-0.9-0.1c0,0,0,0,0,0c-1.4-0.2-2.6-0.9-3.5-1.8
					c-1.1-1.1-1.8-2.7-1.8-4.4v-14.7c0-1.7-0.7-3.2-1.8-4.3c-1.1-1.1-2.6-1.8-4.2-1.8c-3.4-0.1-6.3,2.9-6.3,6.4v30.4l12.4,9.5
					c3.6,2.8,8.5,2.8,12.2,0.1L268.5,303.8z"/>
				<circle class="st41" cx="304.5" cy="251.8" r="5.5"/>
				<circle class="st41" cx="291.9" cy="240.9" r="2.8"/>
				<path class="st41" d="M305.7,294.4v-11.7c0-8.8-7.2-16-16-16H277v31.6l7.2,1.5l7.2,1.5l7.2,1.5l7.2,1.5V294.4z"/>
				<path class="st41" d="M291.4,285.7h-4c-1.7,0-3.1,1.4-3.1,3.1v11"/>
				<path class="st41" d="M291.4,301.3v-15.6h4c1.7,0,3.1,1.4,3.1,3.1v14"/>
				<path class="st41" d="M194.6,294.5c-0.2-0.1-0.5-0.2-0.7-0.3c-29.1-13.7-42.2-43.9-44.3-49c-11.5-27.7-9.2-55-4.7-73
					c1.5-5.8,3.2-10.7,4.7-14.3c2.6-5.9,7.5-17.4,17.3-20.4c3.7-1.1,7.1-0.7,9.3-0.2c-2.6,7.2-5,16.1-6,26.4
					c-0.4,3.9-0.6,8-0.7,12.2c-0.5,25.6,4.9,53.3,14.7,61.7c1.4,1.2,2.9,2.1,4.6,2.4c3,0.6,6.1-0.4,9.2-2.6
					c11-7.7,21.3-29,24.2-35.1l0.5-1.5l0.3-1"/>
				<path class="st41" d="M145,172.2c4.4,3.4,9.8,5.4,15.8,5.4c3.1,0,6-0.5,8.8-1.5"/>
				<line class="st41" x1="198" y1="221.1" x2="198" y2="237.5"/>
				<line class="st41" x1="184.2" y1="237.7" x2="184.2" y2="221.1"/>
				<path class="st41" d="M184.2,221.1v-3.8c1-1,1.5-1.5,2.5-2.5h8.8c1,1,1.5,1.5,2.5,2.5v3.8H184.2z"/>
				<circle class="st41" cx="195.4" cy="251.8" r="5.5"/>
				<circle class="st41" cx="208.1" cy="240.9" r="2.8"/>
				<path class="st41" d="M208.3,301.5l-7.2,1.5l-7.2,1.5v-10.3v-11.3c0-8.8,7.2-16,16-16h12.7v31.6l-7.2,1.5"/>
				<path class="st41" d="M208.3,285.9h4c1.7,0,3.1,1.4,3.1,3.1v11l-7.2,1.5"/>
				<path class="st41" d="M208.3,310.2c2.3-0.5,4.7-0.8,7.2-0.7"/>
				<path class="st41" d="M208.3,301.5v-15.6h-4.1c-1.7,0-3.1,1.4-3.1,3.1v14"/>
				<path class="st41" d="M277,198.2l-11.2,9.3v4.6v18.8c0,7.6-7.1,13.7-15.8,13.7c-4.4,0-8.3-1.5-11.2-4c-2.9-2.5-4.6-5.9-4.6-9.7
					v-20.7v-2.6l-11.5-9.4"/>
				<polyline class="st41" points="277,226.1 277,227.8 285.3,249.3 277,262 277,262.8 				"/>
				<polyline class="st41" points="222.7,263.4 222.7,261.5 221.9,260.3 214.7,249.3 222.2,229.9 222.7,228.7 222.7,223.5 				"/>
				<path class="st41" d="M254.9,200.3h2.5c4.6,0,8.4-3.8,8.4-8.4v-0.7v-9.1v-0.7c0-4.6-3.8-8.4-8.4-8.4h-2.5
					c-0.1-1.3-0.6-2.4-1.4-3.3c-0.9-0.9-2.1-1.4-3.5-1.4c-2.6,0-4.8,2.1-4.9,4.7h-2.6c-4.6,0-8.4,3.8-8.4,8.4v0.7v9.1v0.7
					c0,4.6,3.8,8.4,8.4,8.4h2.5H254.9z"/>
				<polyline class="st41" points="245.1,200.3 245.1,182 245.1,173 				"/>
				<polyline class="st41" points="254.9,176.8 254.9,173.1 254.9,173 				"/>
				<line class="st41" x1="254.9" y1="200.3" x2="254.9" y2="200.3"/>
				<line class="st41" x1="254.9" y1="200.3" x2="254.9" y2="176.8"/>
			</g>
		</g>
	</g>
	<line class="st50" x1="268.5" y1="372.9" x2="259.6" y2="372.9"/>
	<path class="st50" d="M308.9,347.1v0.4c-0.2,0.2-0.5,0.5-0.7,0.7"/>
	<path class="st50" d="M191.1,290.9v0.6v55.7v0.4c0.2,0.2,0.5,0.5,0.7,0.7"/>
	<line class="st50" x1="240.4" y1="372.9" x2="231.5" y2="372.9"/>
	<polyline class="st50" points="308.7,290.9 308.9,290.9 308.9,291.5 	"/>
	<line class="st50" x1="223" y1="258.8" x2="223" y2="189.4"/>
	<line class="st50" x1="277" y1="258.8" x2="277" y2="189.4"/>
	<path class="st50" d="M268.2,198.2h-3.6v-58.3h0c11.4,0,20.7,9.3,20.7,20.7V181C278.6,187.7,274.9,191.5,268.2,198.2z"/>
	<path class="st50" d="M231.8,198.2h3.6v-58.3h0c-11.4,0-20.7,9.3-20.7,20.7V181C221.4,187.7,225.1,191.5,231.8,198.2z"/>
	<g class="st40">
		<polyline class="st41" points="264.6,139.9 264.6,152 258.1,152 		"/>
		<polygon class="st41" points="264.6,139.8 264.6,139.9 264.6,139.8 		"/>
		<polygon class="st41" points="235.4,139.8 235.4,139.9 235.4,139.8 		"/>
		<polyline class="st41" points="241.9,152 240.5,152 235.4,152 235.4,139.9 		"/>
		<path class="st41" d="M261.5,152h-3.4c-0.7,3.8-4.1,6.7-8.1,6.7s-7.4-2.9-8.1-6.7h-2.1"/>
	</g>
	<path class="st50" d="M258.1,152v43.4c0,4.5-3.6,8.1-8.1,8.1s-8.1-3.6-8.1-8.1V152"/>
	<circle class="st50" cx="250" cy="195.5" r="8"/>
	<path class="st50" d="M257.3,290.9h-14.6v-46c0-4,3.3-7.3,7.3-7.3l0,0c4,0,7.3,3.3,7.3,7.3V290.9z"/>
	<path class="st50" d="M242.7,244.8l-8.8,5.5c-1.5,0.9-2.4,2.6-2.4,4.3v36.2h11.1V244.8z"/>
	<path class="st50" d="M257.3,244.8l8.8,5.5c1.5,0.9,2.4,2.6,2.4,4.3v36.2h-11.1V244.8z"/>
	<path class="st50" d="M378.2,226.5L378.2,226.5l-10.3-10.3l-4.1,4.1l8.2,8.2l-63.1,63.1v55.7l0.1,0.1l73.6-73.6l-2.3-8.7l8.7,2.3
		l6-6c0-7,0-11,0-18L378.2,226.5z"/>
	<path class="st50" d="M121.8,226.5L121.8,226.5l10.3-10.3l4.1,4.1l-8.2,8.2l63.1,63.1v55.7l-0.1,0.1l-73.6-73.6l2.3-8.7l-8.7,2.3
		l-6-6c0-7,0-11,0-18L121.8,226.5z"/>
	<line class="st50" x1="276.7" y1="258.4" x2="308.9" y2="290.6"/>
	<line class="st50" x1="276.7" y1="258.4" x2="308.9" y2="290.6"/>
	<line class="st50" x1="191.1" y1="290.6" x2="223.3" y2="258.4"/>
	<path class="st50" d="M268.5,290.9v82h-8.8c-1-28.7-9.7-51.2-9.7-51.2s-8.7,22.5-9.7,51.2h-8.8v-82H268.5z"/>
	<path class="st50" d="M240.4,372.9c-0.1,1.8-0.1,3.5-0.1,5.4c0,10.2,1,19.8,2.4,28c0.6,3.4,1.2,6.5,1.9,9.5c2.6,11.7,5.4,19,5.4,19
		s2.8-7.4,5.4-19c0.7-2.9,1.3-6.1,1.9-9.5c1.4-8.3,2.4-17.8,2.4-28c0-1.8,0-3.6-0.1-5.4"/>
	<path class="st50" d="M162.3,424h24.9c17.3-17.3,27-27,44.3-44.3v-34h-24.9c-24.5,0-44.3,19.8-44.3,44.3V424z"/>
	<path class="st50" d="M337.7,424h-24.9c-17.3-17.3-27-27-44.3-44.3v-34h24.9c24.5,0,44.3,19.8,44.3,44.3V424z"/>
	<path class="st50" d="M223.3,388c0.4,6,3.4,11.2,8,14.5c3.2,2.3,7.2,3.8,11.4,3.8"/>
	<path class="st50" d="M257.3,406.3c4.3,0,8.2-1.4,11.4-3.8c4.6-3.3,7.6-8.6,8-14.5"/>
	<line class="st50" x1="240.4" y1="372.9" x2="231.5" y2="372.9"/>
	<line class="st50" x1="268.5" y1="372.9" x2="259.6" y2="372.9"/>
	<path class="st50" d="M244.6,415.7h-18.2c0-5.1,1.8-9.7,4.9-13.2"/>
	<path class="st50" d="M268.7,402.5c3.1,3.5,4.9,8.2,4.9,13.2h-18.2"/>
</g>
<g id="Spaceship5">
	<g>
		<g id="XMLID_24_">
			<g>
				<path class="st6" d="M401,323.7c0.2,2.2,0.3,4.4,0.3,6.8c0,12.5-2.9,23.4-5,29.8v-59.6C398.1,305.8,400.3,314,401,323.7z"/>
				<path class="st9" d="M263.9,271.8c1.2,0,2.2,1,2.2,2.2c0,1.2-1,2.2-2.2,2.2c-1.2,0-2.2-1-2.2-2.2
					C261.7,272.8,262.7,271.8,263.9,271.8z"/>
				<path class="st9" d="M212.7,233.7v50.5c0,1.5-1.3,2.8-2.8,2.8s-2.8-1.2-2.8-2.8v-50.5c0-1.5,1.3-2.8,2.8-2.8
					c0.8,0,1.5,0.3,2,0.8C212.4,232.3,212.7,233,212.7,233.7z"/>
				<path class="st10" d="M327,253.2c6.3,0,11.4,5.1,11.4,11.4c0,4-2,7.5-5.1,9.5c-1.8,1.2-4,1.9-6.3,1.9c-2.4,0-4.5-0.7-6.4-1.9
					c-3.1-2-5.1-5.5-5.1-9.5C315.5,258.3,320.6,253.2,327,253.2z M332.5,264.6c0-3.1-2.5-5.6-5.6-5.6c-3.1,0-5.6,2.5-5.6,5.6
					c0,3.1,2.5,5.6,5.6,5.6C330,270.2,332.5,267.7,332.5,264.6z"/>
				<circle class="st10" cx="215.8" cy="311.8" r="3"/>
				<path class="st39" d="M136.5,241v4h-6.8h-17.2v-4c2-2,3.2-3.1,5.2-5.2h13.7C133.4,237.9,134.5,239,136.5,241z"/>
				<path class="st8" d="M246.3,279.2h-12.6c-1.6,0-2.9-1.3-2.9-2.9v-4.6c0-1.6,1.3-2.9,2.9-2.9h12.6V279.2z M233.9,274
					c0,1.2,1,2.2,2.2,2.2c1.2,0,2.2-1,2.2-2.2c0-1.2-1-2.2-2.2-2.2C234.9,271.8,233.9,272.8,233.9,274z"/>
				<path class="st10" d="M258.4,191.2v0.9c0,2.8-1.3,5.2-3.3,6.7c-0.1,0.1-0.2,0.2-0.4,0.3c-0.2,0.1-0.4,0.3-0.7,0.4c0,0,0,0,0,0
					c-0.2,0.1-0.4,0.2-0.6,0.3c-0.3,0.2-0.7,0.3-1,0.4c-0.2,0.1-0.4,0.1-0.6,0.2c-0.6,0.1-1.2,0.2-1.8,0.2s-1.2-0.1-1.8-0.2
					c-0.2-0.1-0.4-0.1-0.6-0.2c-0.4-0.1-0.7-0.2-1-0.4c-0.2-0.1-0.4-0.2-0.6-0.3c0,0,0,0,0,0c-0.2-0.1-0.5-0.3-0.7-0.4
					c-0.1-0.1-0.2-0.2-0.4-0.3c-2-1.5-3.3-4-3.3-6.7v-0.9c0.4-4.3,4-7.6,8.4-7.6S258,186.9,258.4,191.2z"/>
				<path class="st6" d="M103.6,300.6v59.6c-2.1-6.4-5-17.4-5-29.8c0-2.3,0.1-4.6,0.3-6.8C99.7,314,101.9,305.8,103.6,300.6z"/>
				<path class="st10" d="M390.4,263.3c3.6,0,6.6,3,6.6,6.6c0,3.6-3,6.6-6.6,6.6c-3.6,0-6.6-3-6.6-6.6
					C383.8,266.3,386.8,263.3,390.4,263.3z"/>
				<path class="st8" d="M263.9,339c-0.5-11.4-3-21.8-5.8-30c1.2-0.5,2-1.7,2-3.1v-18.5l21,9.7l17.9,8.2V339c0,5.2-2.6,9.9-6,13.3
					v-36.5l-0.1,0c0.1-0.3,0.1-0.6,0.1-0.9c0-1.6-1.3-2.9-3-2.9c-1.5,0-2.7,1.1-2.9,2.6v-2.6c0-1.6-1.3-3-3-3c-1.6,0-3,1.3-3,3v45.9
					h0v-45.9c0-1.6-1.3-3-3-3c-1.6,0-3,1.3-3,3v2.6c-0.2-1.5-1.4-2.6-2.9-2.6c-1.6,0-3,1.3-3,2.9c0,0.3,0.1,0.6,0.1,0.9l-0.1,0v42.1
					h-6.5c0.7-4.6,1.1-9.4,1.1-14.4C264,341.9,264,340.4,263.9,339z"/>
				<path class="st6" d="M427.7,180.3v120.1l-21.8,7.7v-8.6c0-6.5-5.3-11.7-11.7-11.7c-6.5,0-11.8,5.3-11.8,11.7v16.9l-22.4,7.9
					c-0.9,0.3-1.8,0.5-2.7,0.5H345v-50.6h15.7l2.8-2l6.8-4.8l10.3-7.3l6.8-4.8l6.7-4.7v-0.3h6.7c4.2,0,7.6-3.4,7.6-7.6v-29.2
					c0-4.2-3.4-7.6-7.6-7.6h-6.7V200v-38.2v-6.4c0,0,1.3,0,3,0c3,0,7.1,0,7.1,0v22.8c0,3.7,3,6.7,6.8,6.6c3.6-0.1,6.4-3.3,6.4-6.8
					v-22.5h10.2v6.4C427.7,167.5,427.7,173.7,427.7,180.3z M397,269.9c0-3.6-3-6.6-6.6-6.6c-3.6,0-6.6,3-6.6,6.6
					c0,3.6,3,6.6,6.6,6.6C394.1,276.5,397,273.6,397,269.9z M382,282c0-1.8-1.4-3.2-3.2-3.2c-1.8,0-3.2,1.4-3.2,3.2
					c0,1.8,1.4,3.2,3.2,3.2C380.6,285.2,382,283.8,382,282z"/>
				<path class="st39" d="M197.2,174.9v2.7h-6.9v-2.7c0.4-0.4,0.6-0.6,1-1h4.8C196.6,174.3,196.8,174.5,197.2,174.9z"/>
				<path class="st5" d="M155,324.8V339h-14.2c-1,0-2-0.2-2.9-0.5l-22.6-8.5L113,329c-0.2-11.9-2.9-22.2-5-28.4
					c-0.6-2-1.2-3.5-1.6-4.5c-0.3-0.9-0.6-1.4-0.6-1.4s-0.2,0.5-0.6,1.4c-0.4,1-1,2.5-1.6,4.5c-1.7,5.2-3.9,13.4-4.7,23.1l-2.4-0.9
					L79,316.1c-4-1.5-6.7-5.4-6.7-9.7v-6l21.8,7.7v-8.6c0-6.5,5.3-11.7,11.7-11.7c6.5,0,11.8,5.3,11.8,11.7v16.9l22.4,7.9
					c0.9,0.3,1.8,0.5,2.7,0.5H155z"/>
				<path class="st9" d="M258.5,256.9c-2.7,0.5-5.5,0.7-8.5,0.7s-5.8-0.3-8.5-0.7l0.1-0.3v-28.9c0-2.3,0.9-4.4,2.4-5.9
					c1.5-1.6,3.7-2.6,6.1-2.6c2.3,0,4.4,0.9,6,2.5c0,0,0.1,0.1,0.1,0.1c1.5,1.5,2.4,3.6,2.4,5.9v28.9L258.5,256.9z"/>
				<path class="st9" d="M196,200.1v13.3c0,1.2-1,2.2-2.2,2.2s-2.2-1-2.2-2.2v-13.3c0-0.6,0.2-1.2,0.6-1.6c0.4-0.4,0.9-0.6,1.6-0.6
					C195,197.9,196,198.9,196,200.1z"/>
				<path class="st10" d="M293,314.8c0,0.3-0.1,0.6-0.1,0.9c-0.4,1.2-1.5,2-2.8,2c-1.5,0-2.7-1.1-2.9-2.6v-0.8
					c0.2-1.5,1.4-2.6,2.9-2.6C291.7,311.8,293,313.2,293,314.8z"/>
				<rect x="246.3" y="268.8" class="st8" width="7.3" height="10.4"/>
				<circle class="st10" cx="278.3" cy="311.8" r="3"/>
				<path class="st7" d="M246.3,268.8h-12.6c-1.6,0-2.9,1.3-2.9,2.9v4.6c0,1.6,1.3,2.9,2.9,2.9h12.6h7.3h12.6c1.6,0,2.9-1.3,2.9-2.9
					v-4.6c0-1.6-1.3-2.9-2.9-2.9h-12.6H246.3z M200.9,203.8v21.9l-0.1,0l-12.6-6.4v-22.9l2-1.3l6.9-4.4l3.7-2.4h13.7
					c0-19.4,11.8-35.4,26.9-37.6v40.5c0,0.3,0,0.6,0,0.9c0,2.8,1.3,5.2,3.4,6.8c0.1,0.1,0.2,0.2,0.4,0.3c0.2,0.1,0.4,0.3,0.7,0.4
					c0,0,0,0,0,0c0.2,0.1,0.4,0.2,0.6,0.3c0.3,0.2,0.7,0.3,1,0.4c0.2,0.1,0.4,0.1,0.6,0.2c0.6,0.1,1.2,0.2,1.8,0.2s1.2-0.1,1.8-0.2
					c0.2-0.1,0.4-0.1,0.6-0.2c0.4-0.1,0.7-0.2,1-0.4c0.2-0.1,0.4-0.2,0.6-0.3c0,0,0,0,0,0c0.2-0.1,0.5-0.3,0.7-0.4
					c0.1-0.1,0.2-0.2,0.4-0.3c2.1-1.5,3.4-4,3.4-6.8c0-0.3,0-0.6,0-0.9v-40.5c15.2,2.2,26.9,18.2,26.9,37.6H299l3.7,2.4l6.9,4.4
					l2,1.3v22.9l-12.6,6.4v-21.9c0-1.9-1.6-3.3-3.4-3.1c-8.2,1-14.4,5.3-14.4,10.5V297l-21-9.7l-8-3.7c-0.7-0.3-1.4-0.5-2.1-0.5
					c-0.1,0-0.3,0-0.4,0c-0.7,0-1.5,0.2-2.2,0.5l-7.6,3.6l-21,9.7v-85.8c0-2.9-2-5.6-5.2-7.6c-3.2-1.9-7.7-3.1-12.6-3.1V203.8z
					 M308.4,213.4v-13.3c0-0.6-0.2-1.2-0.6-1.6c-0.4-0.4-1-0.6-1.6-0.6c-1.2,0-2.2,1-2.2,2.2v13.3c0,1.2,1,2.2,2.2,2.2
					S308.4,214.6,308.4,213.4z M273.8,261.6c2.6-0.6,3.6-3.7,2-5.8l-6.7-8.6v-10c0-5.9-4.8-10.7-10.7-10.7v1.3
					c0-2.3-0.9-4.4-2.4-5.9c0,0,0-0.1-0.1-0.1c-1.5-1.5-3.6-2.5-6-2.5c-2.4,0-4.5,1-6.1,2.6c-1.5,1.5-2.4,3.6-2.4,5.9v-1.3
					c-5.9,0-10.7,4.8-10.7,10.7c0,0,0,5.4,0,10l-6.7,8.6c-1.6,2.1-0.6,5.2,2,5.8c6.9,1.6,15.1,2.6,23.8,2.6
					C258.7,264.2,266.9,263.3,273.8,261.6z M196,213.4v-13.3c0-1.2-1-2.2-2.2-2.2c-0.6,0-1.2,0.3-1.6,0.6c-0.4,0.4-0.6,0.9-0.6,1.6
					v13.3c0,1.2,1,2.2,2.2,2.2S196,214.6,196,213.4z"/>
				<path class="st6" d="M302.2,274.3h6.7V339v14.1c-5.4,0-9.8-4.4-9.8-9.8V339v-33.7l-17.9-8.2v-85.8c0-5.2,6.2-9.5,14.4-10.5
					c1.8-0.2,3.4,1.3,3.4,3.1v21.9v45.4C299,272.9,300.5,274.3,302.2,274.3z M292.9,284.2v-50.5c0-0.8-0.3-1.5-0.8-2
					c-0.5-0.5-1.2-0.8-2-0.8c-1.5,0-2.8,1.2-2.8,2.8v50.5c0,1.5,1.3,2.8,2.8,2.8C291.6,287,292.9,285.7,292.9,284.2z"/>
				<path class="st5" d="M427.7,145.9v9.5h-10.2v22.5c0,3.6-2.8,6.8-6.4,6.8c-3.7,0.1-6.8-2.9-6.8-6.6v-22.8c0,0-4.1,0-7.1,0
					c-1.7,0-3,0-3,0v-9.5l15-5.1c1.1-0.4,2.4-0.4,3.5,0L427.7,145.9z M413.7,177.5v-19c0-0.8-0.3-1.4-0.8-1.9
					c-0.5-0.5-1.2-0.8-1.9-0.8c-1.5,0-2.8,1.2-2.8,2.8v19c0,1.5,1.2,2.8,2.8,2.8C412.4,180.3,413.7,179,413.7,177.5z"/>
				<path class="st8" d="M275.8,255.8c1.6,2.1,0.6,5.2-2,5.8c-6.9,1.6-15.1,2.6-23.8,2.6c-8.7,0-16.9-0.9-23.8-2.6
					c-2.6-0.6-3.6-3.7-2-5.8l6.7-8.6c0,3.3,0,6.2,0,6.3c3.1,1.5,6.7,2.7,10.6,3.4c2.7,0.5,5.5,0.7,8.5,0.7s5.8-0.3,8.5-0.7
					c3.9-0.7,7.5-1.8,10.6-3.4v-6.3L275.8,255.8z"/>
				<path class="st9" d="M299,178v10.3h-13.7c0-19.4-11.8-35.4-26.9-37.6v40.5c-0.4-4.3-4-7.6-8.4-7.6s-8,3.3-8.4,7.6v-40.5
					c-15.2,2.2-26.9,18.2-26.9,37.6h-13.7V178c0-22.8,18-41.5,40.7-42.4c0.6,0,1.2,0,1.8,0h13.2c0.6,0,1.2,0,1.8,0
					C281,136.5,299,155.2,299,178z"/>
				<path class="st6" d="M113,329c0,0.5,0,1,0,1.4c0,12.5-2.9,23.4-5,29.8v-59.6C110.1,306.7,112.8,317.1,113,329z"/>
				<path class="st9" d="M292.9,233.7v50.5c0,1.5-1.3,2.8-2.8,2.8c-1.5,0-2.8-1.2-2.8-2.8v-50.5c0-1.5,1.3-2.8,2.8-2.8
					c0.8,0,1.5,0.3,2,0.8C292.6,232.3,292.9,233,292.9,233.7z"/>
				<path class="st10" d="M241.5,256.9c-3.9-0.7-7.5-1.8-10.6-3.4c0-0.1,0-3,0-6.3c0-4.6,0-10,0-10c0-5.9,4.8-10.7,10.7-10.7v1.3
					v28.9L241.5,256.9z"/>
				<path class="st39" d="M191.1,360.8v0.8c0,6.6-5.3,11.9-11.9,11.9h-12.4c-6.5,0-11.9-5.3-11.9-11.9v-0.8H191.1z"/>
				<path class="st10" d="M173.1,276.1c-2.3,0-4.5-0.7-6.3-1.9c-3.1-2-5.1-5.5-5.1-9.5c0-6.3,5.1-11.4,11.4-11.4
					c6.3,0,11.4,5.1,11.4,11.4c0,4-2,7.5-5.1,9.5C177.6,275.4,175.4,276.1,173.1,276.1z M173.1,259.1c-3.1,0-5.6,2.5-5.6,5.6
					c0,3.1,2.5,5.6,5.6,5.6c3.1,0,5.6-2.5,5.6-5.6C178.6,261.6,176.1,259.1,173.1,259.1z"/>
				<path class="st6" d="M238,363.2h-2.4c-2.1,0-4-1-5.2-2.5c0.1-0.4,0.1-0.8,0.1-1.2v-1.7h6.6C237.3,359.7,237.6,361.5,238,363.2z"
					/>
				<path class="st9" d="M308.4,200.1v13.3c0,1.2-1,2.2-2.2,2.2s-2.2-1-2.2-2.2v-13.3c0-1.2,1-2.2,2.2-2.2c0.6,0,1.2,0.3,1.6,0.6
					C308.2,198.9,308.4,199.5,308.4,200.1z"/>
				<path class="st9" d="M427.7,139.6c0,1.9,0,4,0,6.4l-15-5.1c-1.1-0.4-2.4-0.4-3.5,0l-15,5.1v-6.4l15-5.1c1.1-0.4,2.4-0.4,3.5,0
					L427.7,139.6z"/>
				<path class="st6" d="M99.1,205.9c-4.2,0-7.6,3.4-7.6,7.6v29.2c0,4.2,3.4,7.6,7.6,7.6h6.7v0.3l6.7,4.7l6.8,4.8l10.3,7.3l6.8,4.8
					l2.8,2H155v50.6h-12.3c-0.9,0-1.9-0.2-2.7-0.5l-22.4-7.9v-16.9c0-6.5-5.3-11.7-11.8-11.7c-6.5,0-11.7,5.3-11.7,11.7v8.6
					l-21.8-7.7V180.3c0-6.6,0-12.8,0-18.5v-6.4h10.2v22.5c0,3.6,2.8,6.8,6.4,6.8c3.7,0.1,6.8-2.9,6.8-6.6v-22.8c0,0,4.1,0,7.1,0
					c1.7,0,3.1,0,3.1,0v6.4V200v5.9H99.1z M124.4,282c0-1.8-1.4-3.2-3.2-3.2s-3.2,1.4-3.2,3.2c0,1.8,1.4,3.2,3.2,3.2
					S124.4,283.8,124.4,282z M116.2,269.9c0-3.6-3-6.6-6.6-6.6s-6.6,3-6.6,6.6c0,3.6,2.9,6.6,6.6,6.6S116.2,273.6,116.2,269.9z"/>
				<path class="st6" d="M200.9,341.5v1.7c0,5.4-4.4,9.8-9.8,9.8V339v-64.7h6.7c1.7,0,3.1-1.4,3.1-3.1v-45.4l0.1,0v-21.9v-3.3
					c4.9,0,9.4,1.2,12.6,3.1c3.2,1.9,5.2,4.6,5.2,7.6V297l-17.9,8.3V339V341.5z M212.7,284.2v-50.5c0-0.8-0.3-1.5-0.8-2
					c-0.5-0.5-1.2-0.8-2-0.8c-1.5,0-2.8,1.2-2.8,2.8v50.5c0,1.5,1.3,2.8,2.8,2.8S212.7,285.7,212.7,284.2z"/>
				<path class="st10" d="M121.2,278.8c1.8,0,3.2,1.4,3.2,3.2c0,1.8-1.4,3.2-3.2,3.2s-3.2-1.4-3.2-3.2
					C118,280.2,119.4,278.8,121.2,278.8z"/>
				<path class="st5" d="M105.8,130.6v9l-15-5.1c-1.2-0.4-2.4-0.4-3.5,0l-15,5.1c0-5.7,0-9,0-9c0-4.1,0-6.4,0-6.4v-4.7
					c4.4-6.4,6.8-10,11.2-16.4H85v21.2h8.1v-14.4h1.5c4.4,4.4,6.8,6.8,11.2,11.2v3.2V130.6z"/>
				<polygon class="st7" points="119.3,245.1 119.3,260.1 112.5,255.3 112.5,245 129.7,245 129.7,245.1 				"/>
				<path class="st8" d="M266.1,274c0-1.2-1-2.2-2.2-2.2c-1.2,0-2.2,1-2.2,2.2c0,1.2,1,2.2,2.2,2.2
					C265.1,276.2,266.1,275.2,266.1,274z M266.2,279.2h-12.6v-10.4h12.6c1.6,0,2.9,1.3,2.9,2.9v4.6
					C269.1,277.9,267.8,279.2,266.2,279.2z"/>
				<path class="st8" d="M263.9,339c0.1,1.5,0.1,3,0.1,4.5c0,5-0.4,9.8-1.1,14.4c-0.3,1.9-0.6,3.6-0.9,5.4h-0.4c0.1,0,0.2,0,0.4,0
					c-0.9,4.5-2,8.7-3.2,12.5c-1.3,4-2.6,7.6-3.8,10.6v-85.9c1,2.4,2.1,5.3,3.1,8.4h0C260.9,317.2,263.4,327.6,263.9,339z"/>
				<path class="st5" d="M105.8,145.9v9.5c0,0-1.3,0-3.1,0c-3,0-7.1,0-7.1,0v22.8c0,3.7-3,6.7-6.8,6.6c-3.6-0.1-6.4-3.3-6.4-6.8
					v-22.5H72.3v-9.5l15-5.1c1.2-0.4,2.4-0.4,3.5,0L105.8,145.9z M91.8,177.5v-19c0-1.5-1.2-2.8-2.8-2.8c-0.8,0-1.5,0.3-1.9,0.8
					c-0.5,0.5-0.8,1.2-0.8,1.9v19c0,1.5,1.2,2.8,2.8,2.8C90.6,180.3,91.8,179,91.8,177.5z"/>
				<path class="st9" d="M173.1,270.2c-3.1,0-5.6-2.5-5.6-5.6c0-3.1,2.5-5.6,5.6-5.6c3.1,0,5.6,2.5,5.6,5.6
					C178.6,267.7,176.1,270.2,173.1,270.2z"/>
				<path class="st10" d="M91.8,158.5v19c0,1.5-1.2,2.8-2.8,2.8c-1.5,0-2.8-1.2-2.8-2.8v-19c0-0.8,0.3-1.4,0.8-1.9
					c0.5-0.5,1.2-0.8,1.9-0.8C90.6,155.8,91.8,157,91.8,158.5z"/>
				<path class="st9" d="M333.3,274.2v44.3c0,3.5-2.8,6.3-6.3,6.3h0c-3.5,0-6.3-2.8-6.3-6.3v-44.3c1.8,1.2,4,1.9,6.4,1.9
					C329.3,276.1,331.5,275.4,333.3,274.2z"/>
				<path class="st6" d="M269.5,359.5c0,0.4,0.1,0.8,0.2,1.2c-1.2,1.5-3.1,2.5-5.2,2.5H262c0.3-1.8,0.7-3.6,0.9-5.4h6.5V359.5z"/>
				<path class="st5" d="M105.8,250.3h-6.7c-4.2,0-7.6-3.4-7.6-7.6v-29.2c0-4.2,3.4-7.6,7.6-7.6h6.7V250.3z M100.3,226v-9.5
					c0-1.2-0.9-2.1-2.1-2.1c-0.6,0-1.1,0.2-1.5,0.6c-0.4,0.4-0.6,0.9-0.6,1.5v9.5c0,1.2,0.9,2.1,2.1,2.1S100.3,227.2,100.3,226z"/>
				<path class="st5" d="M427.7,130.6c0,0,0,3.3,0,9l-15-5.1c-1.1-0.4-2.4-0.4-3.5,0l-15,5.1v-9v-6.4V121c4.4-4.4,6.8-6.8,11.2-11.2
					h1.6v14.4h8.1v-21.2h1.5c4.4,6.4,6.8,10,11.2,16.4v4.7C427.7,124.3,427.7,126.5,427.7,130.6z"/>
				<path class="st9" d="M230.5,315.8v42.1v1.7c0,0.4,0,0.8-0.1,1.2c-0.4,1.5-1.5,2.6-2.8,2.6c-0.8,0-1.6-0.4-2.1-1.1
					c-0.4-0.6-0.8-1.3-0.8-2.2v-2.2v-42.7c0.2,1.5,1.4,2.6,2.9,2.6c1.3,0,2.4-0.9,2.8-2L230.5,315.8z"/>
				<path class="st10" d="M218.7,357.8v-46c0,1.6,1.3,2.9,2.9,2.9c1.6,0,2.9-1.3,2.9-2.9v2.6c0,0.1,0,0.2,0,0.4c0,0.1,0,0.3,0,0.4
					v42.7h0v1.7c0,0.2,0,0.3,0,0.5v4.4c0,2.6-1.3,4.6-2.9,4.6h0c-1.6,0-2.9-2-2.9-4.5c0,0,0-0.1,0-0.1V357.8z"/>
				<polygon class="st7" points="136.5,245 136.5,272.3 129.7,267.4 129.7,245.1 129.7,245 				"/>
				<circle class="st10" cx="284.2" cy="311.8" r="3"/>
				<path class="st10" d="M275.4,314.4v-2.6c0,1.6,1.3,2.9,3,2.9c1.6,0,3-1.3,3-2.9v45.9v6.6c0,0,0,0.1,0,0.1c0,2.5-1.4,4.5-2.9,4.5
					h0c-1.6,0-3-2.1-3-4.6V360c0-0.2,0-0.3,0-0.5v-1.7h0v-42.7c0-0.1,0-0.3,0-0.4C275.4,314.7,275.4,314.5,275.4,314.4z"/>
				<path class="st7" d="M191.1,274.3V339v14.1v7.7H155V339v-14.1v-50.6v-37.6c19.9,0,36.1,16.2,36.1,36.1V274.3z M173.1,253.2
					c-6.3,0-11.4,5.1-11.4,11.4c0,4,2,7.5,5.1,9.5v44.3c0,3.5,2.8,6.3,6.3,6.3h0c3.5,0,6.3-2.8,6.3-6.3v-44.3c3.1-2,5.1-5.5,5.1-9.5
					C184.5,258.3,179.4,253.2,173.1,253.2z"/>
				<path class="st9" d="M293,315.8v36.5v7.3c0,2.1-1.3,3.8-3,3.8c-0.8,0-1.5-0.4-2.1-1.1c-0.5-0.6-0.8-1.3-0.8-2.2v-3.7v-41.1
					c0.2,1.5,1.4,2.6,2.9,2.6c1.3,0,2.4-0.9,2.8-2L293,315.8z"/>
				<path class="st10" d="M275.4,314.4v0.8c-0.2,1.5-1.4,2.6-2.9,2.6c-1.3,0-2.4-0.9-2.8-2c-0.1-0.3-0.1-0.6-0.1-0.9
					c0-1.6,1.3-2.9,3-2.9C273.9,311.8,275.2,313,275.4,314.4z"/>
				<path class="st39" d="M308.9,361.6v-0.8H345v0.8c0,6.5-5.3,11.9-11.9,11.9h-12.4C314.2,373.5,308.9,368.2,308.9,361.6z"/>
				<path class="st10" d="M378.8,278.8c1.8,0,3.2,1.4,3.2,3.2c0,1.8-1.4,3.2-3.2,3.2c-1.8,0-3.2-1.4-3.2-3.2
					C375.6,280.2,377.1,278.8,378.8,278.8z"/>
				<polygon class="st7" points="309.7,177.6 309.7,195.1 302.8,190.7 302.8,177.6 				"/>
				<polygon class="st7" points="197.2,177.6 197.2,190.7 190.3,195.1 190.3,177.6 				"/>
				<path class="st9" d="M108,300.6v59.6c-0.7,2-1.3,3.6-1.7,4.6h-1c-0.4-1-1-2.6-1.7-4.6v-59.6c0.7-2,1.2-3.5,1.6-4.5h1.1
					C106.8,297.1,107.4,298.6,108,300.6z"/>
				<path class="st10" d="M269.1,253.6c-3.1,1.5-6.7,2.7-10.6,3.4l0-0.3v-28.9v-1.3c5.9,0,10.7,4.8,10.7,10.7v10V253.6z"/>
				<path class="st9" d="M396.4,300.6v59.6c-0.7,2-1.3,3.6-1.7,4.6h-1c-0.4-1-1-2.6-1.7-4.6v-59.6c0.6-2,1.2-3.5,1.6-4.5h1.1
					C395.1,297.1,395.7,298.6,396.4,300.6z"/>
				<polygon class="st7" points="387.5,245 387.5,255.3 380.7,260.1 380.7,245.1 380.7,245 				"/>
				<path class="st39" d="M309.7,174.9v2.7h-6.9v-2.7c0.4-0.4,0.6-0.6,1-1h4.8C309,174.3,309.3,174.5,309.7,174.9z"/>
				<path class="st8" d="M241.8,308.9c1-3.1,2.1-5.9,3.1-8.4l0,0v85.9l-0.1,0c-1.3-3-2.6-6.6-3.8-10.7c-1.1-3.8-2.2-8-3.1-12.5
					c0.1,0,0.2,0,0.4,0H238c-0.3-1.8-0.6-3.6-0.9-5.4c-0.6-4.5-1-9.4-1.1-14.4c0-1.5,0-3,0.1-4.5
					C236.6,327.5,239.1,317.1,241.8,308.9z"/>
				<path class="st10" d="M413.7,158.5v19c0,1.5-1.2,2.8-2.8,2.8c-1.5,0-2.8-1.2-2.8-2.8v-19c0-1.5,1.2-2.8,2.8-2.8
					c0.8,0,1.4,0.3,1.9,0.8C413.4,157.1,413.7,157.7,413.7,158.5z"/>
				<path class="st9" d="M105.8,139.6v6.4l-15-5.1c-1.2-0.4-2.4-0.4-3.5,0l-15,5.1c0-2.4,0-4.5,0-6.4l15-5.1c1.2-0.4,2.4-0.4,3.5,0
					L105.8,139.6z"/>
				<path class="st10" d="M100.3,216.5v9.5c0,1.2-0.9,2.1-2.1,2.1s-2.1-0.9-2.1-2.1v-9.5c0-0.6,0.2-1.1,0.6-1.5
					c0.4-0.4,0.9-0.6,1.5-0.6C99.3,214.5,100.3,215.4,100.3,216.5z"/>
				<circle class="st10" cx="221.7" cy="311.8" r="3"/>
				<path class="st6" d="M392,300.6v59.6c-2.1-6.4-5-17.4-5-29.8c0-0.5,0-1,0-1.4C387.2,317.1,390,306.7,392,300.6z"/>
				<path class="st9" d="M236.1,271.8c1.2,0,2.2,1,2.2,2.2c0,1.2-1,2.2-2.2,2.2c-1.2,0-2.2-1-2.2-2.2
					C233.9,272.8,234.9,271.8,236.1,271.8z"/>
				<path class="st7" d="M260.2,287.4v18.5c0,1.4-0.9,2.6-2,3.1h0c-1-3.1-2.1-5.9-3.1-8.4c-2.7-6.6-5-10.5-5-10.5s-2.3,3.9-5.1,10.5
					c-1,2.4-2.1,5.3-3.1,8.4c-1.2-0.5-2-1.7-2-3v-18.6l7.6-3.6c0.7-0.3,1.4-0.5,2.2-0.5h0.4c0.7,0,1.5,0.2,2.1,0.5L260.2,287.4z"/>
				<path class="st8" d="M209.9,311.8c-1.6,0-2.9,1.3-2.9,2.9c0,0.3,0,0.6,0.1,0.9l-0.1,0v38.4c-3.7-3-6-7.5-6-12.6V339v-33.7
					l17.9-8.3l21-9.7v18.6c0,1.4,0.8,2.5,2,3c-2.7,8.3-5.2,18.6-5.7,30.1c-0.1,1.5-0.1,3-0.1,4.5c0,5,0.4,9.8,1.1,14.4h-6.6v-42.1
					l-0.1,0c0.1-0.3,0.1-0.6,0.1-0.9c0-1.6-1.3-2.9-2.9-2.9c-1.5,0-2.7,1.1-2.9,2.6v-2.6c0-1.6-1.3-3-2.9-3c-1.6,0-2.9,1.3-2.9,3v46
					h0v-46c0-1.6-1.3-3-2.9-3c-1.6,0-2.9,1.3-2.9,3v2.6C212.6,313,211.4,311.8,209.9,311.8z"/>
				<polygon class="st6" points="129.7,245.1 129.7,267.4 119.3,260.1 119.3,245.1 				"/>
				<path class="st10" d="M230.5,314.8c0,0.3,0,0.6-0.1,0.9c-0.4,1.2-1.5,2-2.8,2c-1.5,0-2.7-1.1-2.9-2.6v-0.8
					c0.2-1.5,1.4-2.6,2.9-2.6C229.2,311.8,230.5,313.2,230.5,314.8z"/>
				<path class="st7" d="M345,360.8h-36.1v-7.7V339v-64.7v-1.4c0-19.9,16.2-36.1,36.1-36.1v37.6v50.6V339V360.8z M338.4,264.6
					c0-6.3-5.1-11.4-11.4-11.4c-6.3,0-11.4,5.1-11.4,11.4c0,4,2,7.5,5.1,9.5v44.3c0,3.5,2.8,6.3,6.3,6.3h0c3.5,0,6.3-2.8,6.3-6.3
					v-44.3C336.4,272.1,338.4,268.6,338.4,264.6z"/>
				<path class="st10" d="M403.9,216.5v9.5c0,1.2-0.9,2.1-2.1,2.1s-2.1-0.9-2.1-2.1v-9.5c0-1.2,0.9-2.1,2.1-2.1
					c0.6,0,1.1,0.2,1.5,0.6C403.7,215.4,403.9,216,403.9,216.5z"/>
				<path class="st10" d="M287.2,311.8v2.6c0,0.1,0,0.2,0,0.4c0,0.1,0,0.3,0,0.4v41.1c0,0,0,0,0,0v3.2c0,0.2,0,0.3,0,0.5v4.4
					c0,2.6-1.3,4.6-3,4.6h0c-1.6,0-2.9-2-2.9-4.5c0,0,0-0.1,0-0.1v-6.6v-45.9c0,1.6,1.3,2.9,3,2.9
					C285.8,314.8,287.2,313.5,287.2,311.8z"/>
				<path class="st9" d="M255,300.5v85.9c-2.7,6.6-5,10.5-5,10.5c0,0-2.4-3.8-5.1-10.5l0.1,0v-85.9l0,0c2.7-6.6,5.1-10.5,5.1-10.5
					S252.3,293.9,255,300.5z"/>
				<path class="st10" d="M109.6,263.3c3.6,0,6.6,3,6.6,6.6c0,3.6-3,6.6-6.6,6.6s-6.6-3-6.6-6.6C103,266.3,105.9,263.3,109.6,263.3z
					"/>
				<path class="st39" d="M274.2,375.8h-15.3c1.2-3.8,2.3-8,3.2-12.5C268.8,363.4,274.2,369,274.2,375.8z"/>
				<path class="st5" d="M408.5,213.5v29.2c0,4.2-3.4,7.6-7.6,7.6h-6.7v-44.5h6.7C405.1,205.9,408.5,209.3,408.5,213.5z M403.9,226
					v-9.5c0-0.6-0.2-1.1-0.6-1.5c-0.4-0.4-0.9-0.6-1.5-0.6c-1.1,0-2.1,0.9-2.1,2.1v9.5c0,1.2,0.9,2.1,2.1,2.1S403.9,227.2,403.9,226
					z"/>
				<path class="st5" d="M427.7,300.4v6c0,4.3-2.7,8.1-6.7,9.7l-17.6,6.7l-2.4,0.9c-0.8-9.6-3-17.9-4.7-23.1c-0.6-2-1.2-3.5-1.6-4.5
					c-0.4-0.9-0.6-1.4-0.6-1.4s-0.2,0.5-0.6,1.4c-0.4,1-1,2.5-1.6,4.5c-2,6.1-4.8,16.5-5,28.4l-2.4,0.9l-22.6,8.5
					c-0.9,0.4-1.9,0.5-2.9,0.5H345v-14.1h12.3c0.9,0,1.9-0.2,2.7-0.5l22.4-7.9v-16.9c0-6.5,5.3-11.7,11.8-11.7
					c6.5,0,11.7,5.3,11.7,11.7v8.6L427.7,300.4z"/>
				<path class="st10" d="M212.8,314.4v0.8c-0.2,1.5-1.4,2.6-2.9,2.6c-1.3,0-2.4-0.9-2.8-2c-0.1-0.3-0.1-0.6-0.1-0.9
					c0-1.6,1.3-2.9,2.9-2.9C211.4,311.8,212.6,313,212.8,314.4z"/>
				<path class="st9" d="M207,354.2v-38.4l0.1,0c0.4,1.2,1.5,2,2.8,2c1.5,0,2.7-1.1,2.9-2.6v42.1v2.8c-0.2,1.9-1.4,3.4-2.9,3.4
					c-0.8,0-1.6-0.4-2.1-1.1c-0.5-0.7-0.9-1.6-0.9-2.7V354.2z"/>
				<path class="st9" d="M327,259.1c3.1,0,5.6,2.5,5.6,5.6c0,3.1-2.5,5.6-5.6,5.6c-3.1,0-5.6-2.5-5.6-5.6
					C321.4,261.6,323.9,259.1,327,259.1z"/>
				<polygon class="st7" points="370.3,245.1 370.3,267.4 363.5,272.3 363.5,245 380.7,245 380.7,245.1 				"/>
				<path class="st10" d="M218.7,311.8v46v6.6c0,0,0,0.1,0,0.1c0,2.5-1.4,4.5-3,4.5h0c-1.6,0-2.9-2.1-2.9-4.6V360c0-0.2,0-0.3,0-0.5
					v-2.3c0,0,0,0,0,0v-42.1c0-0.1,0-0.3,0-0.4c0-0.1,0-0.3,0-0.4v-2.6c0,1.6,1.3,2.9,2.9,2.9C217.4,314.8,218.7,313.5,218.7,311.8z
					"/>
				<path class="st39" d="M387.5,241v4h-6.8h-17.2v-4c2-2,3.1-3.1,5.2-5.2h13.7C384.4,237.9,385.5,239,387.5,241z"/>
				<path class="st39" d="M241.1,375.8h-15.2c0-3.5,1.4-6.6,3.7-8.9c2.2-2.2,5.2-3.6,8.5-3.6C238.8,367.8,239.9,372,241.1,375.8z"/>
				<path class="st9" d="M272.4,317.7c1.5,0,2.7-1.1,2.9-2.6v42.7v2.2c-0.2,1.9-1.4,3.4-2.9,3.4c-0.8,0-1.5-0.4-2.1-1.1
					c-0.3-0.4-0.6-0.9-0.7-1.5c-0.1-0.4-0.2-0.8-0.2-1.2v-1.7v-42.1l0.1,0C270,316.9,271.1,317.7,272.4,317.7z"/>
				<path class="st9" d="M179.4,274.2v44.3c0,3.5-2.8,6.3-6.3,6.3h0c-3.5,0-6.3-2.8-6.3-6.3v-44.3c1.8,1.2,4,1.9,6.3,1.9
					C175.4,276.1,177.6,275.4,179.4,274.2z"/>
				<polygon class="st6" points="380.7,245.1 380.7,260.1 370.3,267.4 370.3,245.1 				"/>
			</g>
			<g>
				<path class="st41" d="M244.9,198.8c-2-1.5-3.3-4-3.3-6.7v-0.9v-40.5c-15.2,2.2-26.9,18.2-26.9,37.6h-13.7"/>
				<path class="st41" d="M246,199.5c-0.2-0.1-0.5-0.3-0.7-0.4"/>
				<path class="st41" d="M246.6,199.8c-0.2-0.1-0.4-0.2-0.6-0.3"/>
				<path class="st41" d="M248.2,200.3c-0.2-0.1-0.4-0.1-0.6-0.2"/>
				<path class="st41" d="M252.4,200.2c-0.2,0.1-0.4,0.1-0.6,0.2"/>
				<path class="st41" d="M254,199.5c-0.2,0.1-0.4,0.2-0.6,0.3"/>
				<path class="st41" d="M254.7,199.1c-0.2,0.1-0.4,0.3-0.7,0.4"/>
				<path class="st41" d="M299,188.4h-13.7c0-19.4-11.8-35.4-26.9-37.6v40.5v0.9c0,2.8-1.3,5.2-3.3,6.7"/>
				<line class="st41" x1="299" y1="339" x2="298.5" y2="339"/>
				<path class="st41" d="M256.6,135.6c0.6,0,1.2,0,1.8,0C281,136.5,299,155.2,299,178v10.3"/>
				<path class="st41" d="M200.9,188.4V178c0-22.8,18-41.5,40.7-42.4c0.6,0,1.2,0,1.8,0"/>
				<path class="st41" d="M200.9,339v-33.7l17.9-8.3l21-9.7l7.6-3.6c0.7-0.3,1.4-0.5,2.2-0.5c0.1,0,0.3,0,0.4,0
					c0.7,0,1.5,0.2,2.1,0.5l8,3.7l21,9.7l17.9,8.2V339v4.3c0,5.4,4.4,9.8,9.8,9.8"/>
				<path class="st41" d="M299,271.1c0,1.7,1.4,3.1,3.1,3.1h6.7"/>
				<path class="st41" d="M200.9,203.8v15.5v6.4v45.4c0,1.7-1.4,3.1-3.1,3.1h-6.7h-0.1"/>
				<line class="st41" x1="345" y1="339" x2="345" y2="360.8"/>
				<path class="st41" d="M308.9,360.8v-7.7V339v-64.7v-1.4c0-19.9,16.2-36.1,36.1-36.1v37.6"/>
				<path class="st41" d="M345,360.8v0.8c0,6.5-5.3,11.9-11.9,11.9h-12.4c-6.6,0-11.9-5.3-11.9-11.9v-0.8H345z"/>
				<path class="st41" d="M427.7,180.3v120.1v6c0,4.3-2.7,8.1-6.7,9.7l-17.6,6.7l-2.4,0.9"/>
				<path class="st41" d="M394.2,130.6v-6.4V121c4.4-4.4,6.8-6.8,11.2-11.2h1.6v14.4h8.1v-21.2h1.5c4.4,6.4,6.8,10,11.2,16.4v4.7
					c0,0,0,2.3,0,6.4"/>
				<line class="st41" x1="394.2" y1="205.9" x2="394.2" y2="200"/>
				<path class="st41" d="M387,329l-2.4,0.9l-22.6,8.5c-0.9,0.4-1.9,0.5-2.9,0.5H345v-14.1v-50.6h15.7l2.8-2l6.8-4.8l10.3-7.3
					l6.8-4.8l6.7-4.7v-0.3"/>
				<path class="st41" d="M258.1,308.9c2.7,8.2,5.2,18.6,5.8,30c0.1,1.5,0.1,3,0.1,4.5c0,5-0.4,9.8-1.1,14.4
					c-0.3,1.9-0.6,3.6-0.9,5.4c0,0,0,0,0,0c-0.9,4.5-2,8.7-3.2,12.5c-1.3,4-2.6,7.6-3.8,10.6c-2.7,6.6-5,10.5-5,10.5
					c0,0-2.4-3.8-5.1-10.5c-1.3-3-2.6-6.6-3.8-10.7c-1.1-3.8-2.2-8-3.1-12.5c0,0,0,0,0,0c-0.3-1.8-0.6-3.6-0.9-5.4
					c-0.6-4.5-1-9.4-1.1-14.4c0-1.5,0-3,0.1-4.5c0.5-11.4,3-21.8,5.7-30.1c1-3.1,2.1-5.9,3.1-8.4c2.7-6.6,5.1-10.5,5.1-10.5
					s2.3,3.9,5,10.5C256,303,257.1,305.8,258.1,308.9"/>
				<path class="st41" d="M200.9,341.5v1.7c0,5.4-4.4,9.8-9.8,9.8"/>
				<polyline class="st41" points="241.6,135.6 241.6,135.6 243.4,135.6 256.6,135.6 258.4,135.6 258.4,135.6 				"/>
				<path class="st41" d="M258.4,191.2c0,0.3,0,0.6,0,0.9c0,2.8-1.3,5.2-3.4,6.8c-0.1,0.1-0.2,0.2-0.4,0.3c-0.2,0.1-0.4,0.3-0.7,0.4
					c0,0,0,0,0,0c-0.2,0.1-0.4,0.2-0.6,0.3c-0.3,0.2-0.7,0.3-1,0.4c-0.2,0.1-0.4,0.1-0.6,0.2c-0.6,0.1-1.2,0.2-1.8,0.2
					s-1.2-0.1-1.8-0.2c-0.2-0.1-0.4-0.1-0.6-0.2c-0.4-0.1-0.7-0.2-1-0.4c-0.2-0.1-0.4-0.2-0.6-0.3c0,0,0,0,0,0
					c-0.2-0.1-0.5-0.3-0.7-0.4c-0.1-0.1-0.2-0.2-0.4-0.3c-2.1-1.5-3.4-4-3.4-6.8c0-0.3,0-0.6,0-0.9c0.4-4.3,4-7.6,8.4-7.6
					S258,186.9,258.4,191.2z"/>
				<path class="st41" d="M258.4,227.8c0-2.3-0.9-4.4-2.4-5.9c0,0,0-0.1-0.1-0.1c-1.5-1.5-3.6-2.5-6-2.5c-2.4,0-4.5,1-6.1,2.6
					c-1.5,1.5-2.4,3.6-2.4,5.9"/>
				<path class="st41" d="M241.6,256.6v-28.9v-1.3c-5.9,0-10.7,4.8-10.7,10.7c0,0,0,5.4,0,10c0,3.3,0,6.2,0,6.3
					c3.1,1.5,6.7,2.7,10.6,3.4c2.7,0.5,5.5,0.7,8.5,0.7s5.8-0.3,8.5-0.7c3.9-0.7,7.5-1.8,10.6-3.4v-6.3v-10
					c0-5.9-4.8-10.7-10.7-10.7v1.3v28.9"/>
				<path class="st41" d="M230.9,247.3l-6.7,8.6c-1.6,2.1-0.6,5.2,2,5.8c6.9,1.6,15.1,2.6,23.8,2.6c8.7,0,16.8-0.9,23.8-2.6
					c2.6-0.6,3.6-3.7,2-5.8l-6.7-8.6"/>
				<path class="st41" d="M246.3,279.2h-12.6c-1.6,0-2.9-1.3-2.9-2.9v-4.6c0-1.6,1.3-2.9,2.9-2.9h12.6"/>
				<path class="st41" d="M253.7,268.8h12.6c1.6,0,2.9,1.3,2.9,2.9v4.6c0,1.6-1.3,2.9-2.9,2.9h-12.6"/>
				<line class="st41" x1="250" y1="283.2" x2="249.6" y2="283.2"/>
				<path class="st41" d="M260.2,287.4v18.5c0,1.4-0.9,2.6-2,3.1h0"/>
				<path class="st41" d="M241.9,308.9L241.9,308.9C241.9,308.9,241.8,308.9,241.9,308.9c-1.2-0.5-2.1-1.7-2.1-3.1v-18.6"/>
				<path class="st41" d="M332.5,264.6c0,3.1-2.5,5.6-5.6,5.6c-3.1,0-5.6-2.5-5.6-5.6c0-3.1,2.5-5.6,5.6-5.6
					C330,259.1,332.5,261.6,332.5,264.6z"/>
				<path class="st41" d="M320.6,274.2c-3.1-2-5.1-5.5-5.1-9.5c0-6.3,5.1-11.4,11.4-11.4c6.3,0,11.4,5.1,11.4,11.4
					c0,4-2,7.5-5.1,9.5c-1.8,1.2-4,1.9-6.3,1.9C324.6,276.1,322.4,275.4,320.6,274.2z"/>
				<path class="st41" d="M333.3,274.2v44.3c0,3.5-2.8,6.3-6.3,6.3h0c-3.5,0-6.3-2.8-6.3-6.3v-44.3"/>
				<path class="st41" d="M299,203.8c0-1.9-1.6-3.3-3.4-3.1c-8.2,1-14.4,5.3-14.4,10.5V297"/>
				<line class="st41" x1="299" y1="271.1" x2="299" y2="225.8"/>
				<path class="st41" d="M218.8,297L218.8,297v-85.8c0-2.9-2-5.6-5.2-7.6c-3.2-1.9-7.7-3.1-12.6-3.1v3.3"/>
				<line class="st41" x1="245" y1="386.4" x2="245" y2="300.5"/>
				<line class="st41" x1="255" y1="386.4" x2="255" y2="300.5"/>
				<path class="st41" d="M269.6,360.7c-1.2,1.5-3.1,2.5-5.2,2.5H262h-0.4"/>
				<path class="st41" d="M230.4,360.7c1.2,1.5,3.1,2.5,5.2,2.5h2.4h0.4"/>
				<path class="st41" d="M258.9,375.8h15.3c0-6.8-5.4-12.3-12.2-12.5c-0.1,0-0.2,0-0.4,0"/>
				<path class="st41" d="M241.1,375.8h-15.2c0-3.5,1.4-6.6,3.7-8.9c2.2-2.2,5.2-3.6,8.5-3.6c0.1,0,0.2,0,0.4,0"/>
				<line class="st41" x1="218.7" y1="357.8" x2="218.7" y2="357.8"/>
				<path class="st41" d="M200.9,339v2.6c0,5.1,2.3,9.7,6,12.6"/>
				<path class="st41" d="M212.9,357.2C212.9,357.2,212.8,357.2,212.9,357.2"/>
				<line class="st41" x1="224.6" y1="357.8" x2="224.6" y2="357.8"/>
				<line class="st41" x1="237.1" y1="357.8" x2="230.5" y2="357.8"/>
				<line class="st41" x1="236.1" y1="339" x2="236" y2="339"/>
				<path class="st41" d="M293,352.3c3.4-3.4,6-8.1,6-13.3"/>
				<line class="st41" x1="281.3" y1="357.8" x2="281.3" y2="357.8"/>
				<line class="st41" x1="269.5" y1="357.8" x2="262.9" y2="357.8"/>
				<line class="st41" x1="275.4" y1="357.8" x2="275.4" y2="357.8"/>
				<path class="st41" d="M287.2,356.3C287.2,356.3,287.1,356.3,287.2,356.3"/>
				<line class="st41" x1="264" y1="339" x2="263.9" y2="339"/>
				<polyline class="st41" points="299,203.8 299,225.8 311.7,219.3 311.7,196.4 309.7,195.1 302.8,190.7 299,188.4 				"/>
				<line class="st41" x1="309.7" y1="177.6" x2="309.7" y2="195.1"/>
				<polyline class="st41" points="302.8,190.9 302.8,190.7 302.8,177.6 				"/>
				<path class="st41" d="M309.7,177.6v-2.7c-0.4-0.4-0.6-0.6-1-1h-4.8c-0.4,0.4-0.6,0.6-1,1v2.7H309.7z"/>
				<path class="st41" d="M306.2,215.6c-1.2,0-2.2-1-2.2-2.2v-13.3c0-1.2,1-2.2,2.2-2.2c0.6,0,1.2,0.3,1.6,0.6
					c0.4,0.4,0.6,0.9,0.6,1.6v13.3C308.4,214.6,307.4,215.6,306.2,215.6z"/>
				<polyline class="st41" points="200.9,188.4 197.2,190.7 190.3,195.1 188.3,196.4 188.3,219.3 200.9,225.7 200.9,225.8 
					200.9,203.8 				"/>
				<polyline class="st41" points="197.2,177.6 197.2,190.7 197.2,190.9 				"/>
				<line class="st41" x1="190.3" y1="195.1" x2="190.3" y2="177.6"/>
				<path class="st41" d="M190.3,177.6v-2.7c0.4-0.4,0.6-0.6,1-1h4.8c0.4,0.4,0.6,0.6,1,1v2.7H190.3z"/>
				<path class="st41" d="M193.8,215.6c1.2,0,2.2-1,2.2-2.2v-13.3c0-1.2-1-2.2-2.2-2.2c-0.6,0-1.2,0.3-1.6,0.6
					c-0.4,0.4-0.6,0.9-0.6,1.6v13.3C191.6,214.6,192.6,215.6,193.8,215.6z"/>
				<path class="st41" d="M427.7,300.4l-21.8,7.7v-8.6c0-6.5-5.3-11.7-11.7-11.7c-6.5,0-11.8,5.3-11.8,11.7v16.9l-22.4,7.9
					c-0.9,0.3-1.8,0.5-2.7,0.5H345"/>
				<line class="st41" x1="363.5" y1="245" x2="363.5" y2="272.3"/>
				<line class="st41" x1="387.5" y1="255.3" x2="387.5" y2="245"/>
				<path class="st41" d="M387.5,245v-4c-2-2-3.1-3.1-5.2-5.2h-13.7c-2,2-3.2,3.2-5.2,5.2v4h17.2H387.5z"/>
				<polyline class="st41" points="370.3,267.4 370.3,245.1 380.7,245.1 380.7,260.1 				"/>
				<path class="st41" d="M397,269.9c0,3.6-3,6.6-6.6,6.6c-3.6,0-6.6-3-6.6-6.6c0-3.6,3-6.6,6.6-6.6
					C394.1,263.3,397,266.3,397,269.9z"/>
				<path class="st41" d="M382,282c0,1.8-1.4,3.2-3.2,3.2c-1.8,0-3.2-1.4-3.2-3.2c0-1.8,1.4-3.2,3.2-3.2
					C380.6,278.8,382,280.2,382,282z"/>
				<path class="st41" d="M394.2,205.9h6.7c4.2,0,7.6,3.4,7.6,7.6v29.2c0,4.2-3.4,7.6-7.6,7.6h-6.7V205.9z"/>
				<path class="st41" d="M401.8,228.1c-1.1,0-2.1-0.9-2.1-2.1v-9.5c0-1.2,0.9-2.1,2.1-2.1c0.6,0,1.1,0.2,1.5,0.6
					c0.4,0.4,0.6,0.9,0.6,1.5v9.5C403.9,227.2,403,228.1,401.8,228.1z"/>
				<path class="st41" d="M394.2,139.6l15-5.1c1.1-0.4,2.4-0.4,3.5,0l15,5.1"/>
				<path class="st41" d="M427.7,155.4h-10.2v22.5c0,3.6-2.8,6.8-6.4,6.8c-3.7,0.1-6.8-2.9-6.8-6.6v-22.8c0,0-4.1,0-7.1,0
					c-1.7,0-3,0-3,0"/>
				<line class="st41" x1="394.2" y1="161.8" x2="394.2" y2="200"/>
				<polyline class="st41" points="394.2,130.6 394.2,139.6 394.2,145.9 				"/>
				<path class="st41" d="M427.7,145.9c0-2.4,0-4.5,0-6.4c0-5.7,0-9,0-9"/>
				<path class="st41" d="M427.7,180.3c0-6.6,0-12.8,0-18.5"/>
				<path class="st41" d="M394.2,161.8v-6.4v-9.5l15-5.1c1.1-0.4,2.4-0.4,3.5,0l15,5.1v9.5v6.4"/>
				<path class="st41" d="M410.9,180.3c-1.5,0-2.8-1.2-2.8-2.8v-19c0-1.5,1.2-2.8,2.8-2.8c0.8,0,1.4,0.3,1.9,0.8
					c0.5,0.5,0.8,1.2,0.8,1.9v19C413.7,179,412.4,180.3,410.9,180.3z"/>
				<path class="st41" d="M275.4,314.4c0,0.1,0,0.2,0,0.4c0,0.1,0,0.3,0,0.4c-0.2,1.5-1.4,2.6-2.9,2.6c-1.3,0-2.4-0.9-2.8-2
					c-0.1-0.3-0.1-0.6-0.1-0.9c0-1.6,1.3-2.9,3-2.9C273.9,311.8,275.2,313,275.4,314.4z"/>
				<path class="st41" d="M275.4,315.8v42.1v1.7c0,0.2,0,0.3,0,0.5c-0.2,1.9-1.4,3.4-2.9,3.4c-0.8,0-1.5-0.4-2.1-1.1
					c-0.3-0.4-0.6-0.9-0.7-1.5c-0.1-0.4-0.2-0.8-0.2-1.2v-1.7v-42.1"/>
				<circle class="st41" cx="278.3" cy="311.8" r="3"/>
				<path class="st41" d="M281.3,311.6v0.3v45.9v6.6c0,0,0,0.1,0,0.1c0,2.5-1.4,4.5-2.9,4.5h0c-1.6,0-3-2.1-3-4.6V360v-2.2v-42.7
					v-0.8v-2.6v-0.3"/>
				<path class="st41" d="M287.2,314.4c0,0.1,0,0.2,0,0.4c0,0.1,0,0.3,0,0.4c0.2,1.5,1.4,2.6,2.9,2.6c1.3,0,2.4-0.9,2.8-2
					c0.1-0.3,0.1-0.6,0.1-0.9c0-1.6-1.3-2.9-3-2.9C288.6,311.8,287.4,313,287.2,314.4z"/>
				<path class="st41" d="M293,315.8v36.5v7.3c0,2.1-1.3,3.8-3,3.8c-0.8,0-1.5-0.4-2.1-1.1c-0.5-0.6-0.8-1.3-0.8-2.2
					c0-0.2,0-0.3,0-0.5v-3.2v-40.5"/>
				<circle class="st41" cx="284.2" cy="311.8" r="3"/>
				<path class="st41" d="M287.2,311.6v0.3v2.6v0.8v41.1v3.7v4.4c0,2.6-1.3,4.6-3,4.6h0c-1.6,0-2.9-2-2.9-4.5c0,0,0-0.1,0-0.1v-6.6
					v-45.9v-0.3"/>
				<path class="st41" d="M224.6,314.4c0.2-1.5,1.4-2.6,2.9-2.6c1.6,0,2.9,1.3,2.9,2.9c0,0.3,0,0.6-0.1,0.9c-0.4,1.2-1.5,2-2.8,2
					c-1.5,0-2.7-1.1-2.9-2.6c0-0.1,0-0.3,0-0.4C224.6,314.7,224.6,314.5,224.6,314.4z"/>
				<path class="st41" d="M224.6,315.8v42.1v1.7c0,0.2,0,0.3,0,0.5c0.1,0.9,0.4,1.6,0.8,2.2c0.5,0.7,1.3,1.1,2.1,1.1
					c1.3,0,2.4-1.1,2.8-2.6c0.1-0.4,0.1-0.8,0.1-1.2v-1.7v-42.1"/>
				<circle class="st41" cx="221.7" cy="311.8" r="3"/>
				<path class="st41" d="M218.7,311.6v0.3v46v6.6c0,0,0,0.1,0,0.1c0,2.5,1.3,4.5,2.9,4.5h0c1.6,0,2.9-2.1,2.9-4.6V360v-2.2v-42.7
					v-0.8v-2.6v-0.3"/>
				<path class="st41" d="M212.8,314.4c0,0.1,0,0.2,0,0.4c0,0.1,0,0.3,0,0.4c-0.2,1.5-1.4,2.6-2.9,2.6c-1.3,0-2.4-0.9-2.8-2
					c-0.1-0.3-0.1-0.6-0.1-0.9c0-1.6,1.3-2.9,2.9-2.9C211.4,311.8,212.6,313,212.8,314.4z"/>
				<path class="st41" d="M212.9,315.8v41.5v2.3c0,0.2,0,0.3,0,0.5c-0.2,1.9-1.4,3.4-2.9,3.4c-0.8,0-1.6-0.4-2.1-1.1
					c-0.5-0.7-0.9-1.6-0.9-2.7v-5.4v-38.4"/>
				<circle class="st41" cx="215.8" cy="311.8" r="3"/>
				<path class="st41" d="M218.7,311.6v0.3v46v6.6c0,0,0,0.1,0,0.1c0,2.5-1.4,4.5-3,4.5h0c-1.6,0-2.9-2.1-2.9-4.6V360v-2.8v-42.1
					v-0.8v-2.6v-0.3"/>
				<path class="st41" d="M401,323.7c0.2,2.2,0.3,4.4,0.3,6.8c0,12.5-2.9,23.4-5,29.8c-0.7,2-1.3,3.6-1.7,4.6
					c-0.3,0.8-0.5,1.2-0.5,1.2s-0.2-0.4-0.5-1.2c-0.4-1-1-2.6-1.7-4.6c-2.1-6.4-5-17.4-5-29.8c0-0.5,0-1,0-1.4
					c0.2-11.9,2.9-22.2,5-28.4c0.6-2,1.2-3.5,1.6-4.5c0.4-0.9,0.6-1.4,0.6-1.4s0.2,0.5,0.6,1.4c0.4,1,1,2.5,1.6,4.5
					C398.1,305.8,400.3,314,401,323.7z"/>
				<line class="st41" x1="394.7" y1="364.9" x2="393.7" y2="364.9"/>
				<line class="st41" x1="394.7" y1="296.1" x2="393.6" y2="296.1"/>
				<line class="st41" x1="396.4" y1="360.2" x2="396.4" y2="300.6"/>
				<line class="st41" x1="392" y1="360.2" x2="392" y2="300.6"/>
				<line class="st41" x1="155" y1="339" x2="155" y2="360.8"/>
				<path class="st41" d="M191.1,360.8v-7.7V339v-64.7v-1.4c0-19.9-16.2-36.1-36.1-36.1v37.6"/>
				<path class="st41" d="M155,360.8v0.8c0,6.6,5.3,11.9,11.9,11.9h12.4c6.6,0,11.9-5.3,11.9-11.9v-0.8H155z"/>
				<path class="st41" d="M105.8,250.3v0.3l6.7,4.7l6.8,4.8l10.3,7.3l6.8,4.8l2.8,2H155v50.6V339h-14.2c-1,0-2-0.2-2.9-0.5
					l-22.6-8.5L113,329"/>
				<line class="st41" x1="105.8" y1="200" x2="105.8" y2="205.9"/>
				<path class="st41" d="M72.3,130.6c0-4.1,0-6.4,0-6.4v-4.7c4.4-6.4,6.8-10,11.2-16.4H85v21.2h8.1v-14.4h1.5
					c4.4,4.4,6.8,6.8,11.2,11.2v3.2v6.4"/>
				<path class="st41" d="M98.9,323.7l-2.4-0.9L79,316.1c-4-1.5-6.7-5.4-6.7-9.7v-6V180.3"/>
				<path class="st41" d="M167.5,264.6c0,3.1,2.5,5.6,5.6,5.6c3.1,0,5.6-2.5,5.6-5.6c0-3.1-2.5-5.6-5.6-5.6
					C170,259.1,167.5,261.6,167.5,264.6z"/>
				<path class="st41" d="M179.4,274.2c3.1-2,5.1-5.5,5.1-9.5c0-6.3-5.1-11.4-11.4-11.4c-6.3,0-11.4,5.1-11.4,11.4
					c0,4,2,7.5,5.1,9.5c1.8,1.2,4,1.9,6.3,1.9C175.4,276.1,177.6,275.4,179.4,274.2z"/>
				<path class="st41" d="M166.7,274.2v44.3c0,3.5,2.8,6.3,6.3,6.3h0c3.5,0,6.3-2.8,6.3-6.3v-44.3"/>
				<path class="st41" d="M155,324.8h-12.3c-0.9,0-1.9-0.2-2.7-0.5l-22.4-7.9v-16.9c0-6.5-5.3-11.7-11.8-11.7
					c-6.5,0-11.7,5.3-11.7,11.7v8.6l-21.8-7.7"/>
				<line class="st41" x1="136.5" y1="245" x2="136.5" y2="272.3"/>
				<line class="st41" x1="112.5" y1="255.3" x2="112.5" y2="245"/>
				<path class="st41" d="M112.5,245v-4c2-2,3.2-3.1,5.2-5.2h13.7c2,2,3.1,3.2,5.2,5.2v4h-6.8H112.5z"/>
				<polyline class="st41" points="129.7,267.4 129.7,245.1 119.3,245.1 119.3,260.1 				"/>
				<path class="st41" d="M103,269.9c0,3.6,2.9,6.6,6.6,6.6s6.6-3,6.6-6.6c0-3.6-3-6.6-6.6-6.6S103,266.3,103,269.9z"/>
				<path class="st41" d="M118,282c0,1.8,1.4,3.2,3.2,3.2s3.2-1.4,3.2-3.2c0-1.8-1.4-3.2-3.2-3.2S118,280.2,118,282z"/>
				<path class="st41" d="M105.8,205.9h-6.7c-4.2,0-7.6,3.4-7.6,7.6v29.2c0,4.2,3.4,7.6,7.6,7.6h6.7V205.9z"/>
				<path class="st41" d="M98.2,228.1c1.2,0,2.1-0.9,2.1-2.1v-9.5c0-1.2-0.9-2.1-2.1-2.1c-0.6,0-1.1,0.2-1.5,0.6
					c-0.4,0.4-0.6,0.9-0.6,1.5v9.5C96.1,227.2,97,228.1,98.2,228.1z"/>
				<path class="st41" d="M72.3,139.6l15-5.1c1.2-0.4,2.4-0.4,3.5,0l15,5.1"/>
				<path class="st41" d="M105.8,155.4c0,0-1.3,0-3.1,0c-3,0-7.1,0-7.1,0v22.8c0,3.7-3,6.7-6.8,6.6c-3.6-0.1-6.4-3.3-6.4-6.8v-22.5
					H72.3"/>
				<line class="st41" x1="105.8" y1="161.8" x2="105.8" y2="200"/>
				<polyline class="st41" points="105.8,130.6 105.8,139.6 105.8,145.9 				"/>
				<path class="st41" d="M72.3,145.9c0-2.4,0-4.5,0-6.4c0-5.7,0-9,0-9"/>
				<path class="st41" d="M72.3,180.3c0-6.6,0-12.8,0-18.5"/>
				<path class="st41" d="M72.3,161.8v-6.4v-9.5l15-5.1c1.2-0.4,2.4-0.4,3.5,0l15,5.1v9.5v6.4"/>
				<path class="st41" d="M89.1,180.3c1.5,0,2.8-1.2,2.8-2.8v-19c0-1.5-1.2-2.8-2.8-2.8c-0.8,0-1.5,0.3-1.9,0.8
					c-0.5,0.5-0.8,1.2-0.8,1.9v19C86.3,179,87.6,180.3,89.1,180.3z"/>
				<path class="st41" d="M98.9,323.7c-0.2,2.2-0.3,4.4-0.3,6.8c0,12.5,2.9,23.4,5,29.8c0.7,2,1.3,3.6,1.7,4.6
					c0.3,0.8,0.5,1.2,0.5,1.2s0.2-0.4,0.5-1.2c0.4-1,1-2.6,1.7-4.6c2.1-6.4,5-17.4,5-29.8c0-0.5,0-1,0-1.4
					c-0.2-11.9-2.9-22.2-5-28.4c-0.6-2-1.2-3.5-1.6-4.5c-0.3-0.9-0.6-1.4-0.6-1.4s-0.2,0.5-0.6,1.4c-0.4,1-1,2.5-1.6,4.5
					C101.9,305.8,99.7,314,98.9,323.7z"/>
				<line class="st41" x1="106.3" y1="364.9" x2="105.3" y2="364.9"/>
				<line class="st41" x1="106.4" y1="296.1" x2="105.3" y2="296.1"/>
				<line class="st41" x1="103.6" y1="300.6" x2="103.6" y2="360.2"/>
				<line class="st41" x1="108" y1="300.6" x2="108" y2="360.2"/>
				<path class="st41" d="M290.1,287c-1.5,0-2.8-1.2-2.8-2.8v-50.5c0-1.5,1.3-2.8,2.8-2.8c0.8,0,1.5,0.3,2,0.8
					c0.5,0.5,0.8,1.2,0.8,2v50.5C292.9,285.7,291.6,287,290.1,287z"/>
				<path class="st41" d="M209.9,287c-1.5,0-2.8-1.2-2.8-2.8v-50.5c0-1.5,1.3-2.8,2.8-2.8c0.8,0,1.5,0.3,2,0.8
					c0.5,0.5,0.8,1.2,0.8,2v50.5C212.7,285.7,211.4,287,209.9,287z"/>
				<path class="st41" d="M238.3,274c0,1.2-1,2.2-2.2,2.2c-1.2,0-2.2-1-2.2-2.2c0-1.2,1-2.2,2.2-2.2
					C237.3,271.8,238.3,272.8,238.3,274z"/>
				<path class="st41" d="M266.1,274c0,1.2-1,2.2-2.2,2.2c-1.2,0-2.2-1-2.2-2.2c0-1.2,1-2.2,2.2-2.2
					C265.1,271.8,266.1,272.8,266.1,274z"/>
				<rect x="246.3" y="268.8" class="st41" width="7.3" height="10.4"/>
			</g>
		</g>
	</g>
</g>
</svg>
